<svg width="279" height="247" viewBox="0 0 279 247" fill="none" xmlns="http://www.w3.org/2000/svg">
<g clip-path="url(#clip0_1433_101)">
<path d="M140.746 119.112L246.326 200.349L244.947 79.5662L140.242 46.3555L140.746 119.112Z" fill="#0F4EB8" stroke="#0A3A8C" stroke-width="2" stroke-linecap="round" stroke-linejoin="round"/>
<path d="M140.747 119.112L34.1328 200.561L35.3263 78.7181L140.243 46.3555L140.747 119.112Z" fill="#0F4EB8" stroke="#0A3A8C" stroke-width="2" stroke-linecap="round" stroke-linejoin="round"/>
<path d="M246.329 200.352L140.219 246.338L140.749 119.114L244.817 78.2695L246.329 200.352Z" fill="#B6D0FA" stroke="#0A3A8C" stroke-width="2" stroke-linecap="round" stroke-linejoin="round"/>
<path d="M34.1328 200.562L140.216 246.336L140.747 119.112L35.3263 78.7188L34.1328 200.562Z" fill="#B6D0FA" stroke="#0A3A8C" stroke-width="2" stroke-linecap="round" stroke-linejoin="round"/>
<path d="M0.664062 109.12L104.626 156.829L140.748 119.112L35.3269 78.7188L0.664062 109.12Z" fill="#B6D0FA" stroke="#0A3A8C" stroke-width="2" stroke-linecap="round" stroke-linejoin="round"/>
<path d="M278.34 108.936L172.496 155.982L140.75 119.114L244.818 78.2695L278.34 108.936Z" fill="#B6D0FA" stroke="#0A3A8C" stroke-width="2" stroke-linecap="round" stroke-linejoin="round"/>
<path d="M154.508 21.3349C154.508 27.272 154.508 33.2091 154.508 39.1727C154.508 40.9221 155.039 41.4257 156.736 41.4522C160.29 41.4522 163.844 41.4522 167.397 41.4522C168.538 41.4522 169.519 41.7172 169.997 42.8834C170.474 44.0232 169.943 44.8713 169.174 45.64C160.343 54.4661 151.511 63.2658 142.68 72.0919C141.274 73.4967 140.161 73.4967 138.728 72.0919C129.923 63.2923 121.118 54.4926 112.314 45.693C111.704 45.0834 111.173 44.4207 111.279 43.4665C111.412 42.2473 112.367 41.4522 113.799 41.4522C117.379 41.4522 120.986 41.4522 124.566 41.4522C126.555 41.4522 127.033 41.0016 127.033 39.0137C127.033 27.1925 127.033 15.3713 127.033 3.55004C127.033 1.90673 127.537 1.05857 128.73 0.767015C129.022 0.6875 129.34 0.6875 129.658 0.6875C137.058 0.6875 144.457 0.6875 151.83 0.6875C153.633 0.6875 154.482 1.56216 154.482 3.338C154.482 9.35463 154.482 15.3448 154.482 21.3614L154.508 21.3349Z" fill="#FFF3A1" stroke="#0A3A8C" stroke-width="2" stroke-linecap="round" stroke-linejoin="round"/>
<path d="M63.7026 45.0555C67.9195 49.2698 72.1098 53.4576 76.3266 57.6719C77.5466 58.8911 78.2891 58.9176 79.5091 57.6719C82.0286 55.1539 84.5481 52.6624 87.041 50.1179C87.8632 49.2963 88.7384 48.7927 89.9053 49.2963C91.0457 49.7734 91.2844 50.7275 91.2844 51.8408C91.2844 64.3246 91.2844 76.782 91.2844 89.2658C91.2844 91.2537 90.4888 92.0488 88.4732 92.0488C76.0084 92.0488 63.57 92.0488 51.1052 92.0488C50.23 92.0488 49.4079 91.9428 48.7979 91.2272C48.0023 90.273 48.1349 89.0273 49.1692 88.0201C51.6887 85.4756 54.2347 82.9576 56.7807 80.4131C58.1863 79.0084 58.1863 78.3457 56.7807 76.9675C48.4266 68.6184 40.046 60.2428 31.6919 51.8938C30.525 50.7275 30.2863 49.7734 30.9228 48.7132C31.0819 48.4481 31.2941 48.2096 31.5328 47.9975C36.7574 42.7761 41.982 37.5546 47.2066 32.3331C48.4796 31.0608 49.6996 31.0608 50.9726 32.3331C55.216 36.5739 59.4593 40.8147 63.7292 45.082L63.7026 45.0555Z" fill="#FFF3A1" stroke="#0A3A8C" stroke-width="2" stroke-linecap="round" stroke-linejoin="round"/>
<path d="M217.761 45.0555C213.545 49.2698 209.354 53.4576 205.137 57.6719C203.918 58.8911 203.175 58.9176 201.955 57.6719C199.435 55.1539 196.916 52.6624 194.423 50.1179C193.601 49.2963 192.726 48.7927 191.559 49.2963C190.418 49.7734 190.18 50.7275 190.18 51.8408C190.18 64.3246 190.18 76.782 190.18 89.2658C190.18 91.2537 190.975 92.0488 192.991 92.0488C205.456 92.0488 217.894 92.0488 230.359 92.0488C231.234 92.0488 232.056 91.9428 232.666 91.2272C233.462 90.273 233.329 89.0273 232.295 88.0201C229.775 85.4756 227.229 82.9576 224.683 80.4131C223.278 79.0084 223.278 78.3457 224.683 76.9675C233.037 68.6184 241.418 60.2428 249.772 51.8938C250.939 50.7275 251.178 49.7734 250.541 48.7132C250.382 48.4481 250.17 48.2096 249.931 47.9975C244.707 42.7761 239.482 37.5546 234.257 32.3331C232.984 31.0608 231.764 31.0608 230.491 32.3331C226.248 36.5739 222.005 40.8147 217.735 45.082L217.761 45.0555Z" fill="#FFF3A1" stroke="#0A3A8C" stroke-width="2" stroke-linecap="round" stroke-linejoin="round"/>
<path d="M236.145 204.063C236.145 204.672 235.774 205.282 235.297 205.494L214.319 214.267C213.178 214.744 212.25 214.373 212.25 213.419L212.621 175.093V162.477C212.621 162.238 212.993 162.291 213.152 162.556L218.27 171.17L222.62 166.505C222.62 166.505 223.097 165.922 223.362 166.823L227.022 173.874L230.178 169.659C230.549 169.103 230.656 169.739 230.709 169.871C230.762 170.004 233.44 175.809 233.44 175.809L235.854 172.018C235.854 172.018 236.066 172.018 236.066 172.177V180.261L236.145 204.116V204.063Z" fill="#FFF3A1" stroke="#0A3A8C" stroke-width="2" stroke-linecap="round" stroke-linejoin="round"/>
</g>
<defs>
<clipPath id="clip0_1433_101">
<rect width="279" height="247" fill="white"/>
</clipPath>
</defs>
</svg>
