<svg width="209" height="215" viewBox="0 0 209 215" fill="none" xmlns="http://www.w3.org/2000/svg">
<path d="M207.879 14.7031V67.9353H180.5V14.7031C180.5 13.6406 180.609 12.6326 180.827 11.6519C182.216 5.54953 187.665 1 194.176 1C197.935 1 201.395 2.52559 203.847 5.00468C206.326 7.45652 207.852 10.9163 207.852 14.6758L207.879 14.7031Z" fill="#0F4EB8" stroke="#0A3A8C" stroke-width="2" stroke-linecap="round" stroke-linejoin="round"/>
<path d="M1 200.248V147.016H28.3789V200.248C28.3789 201.31 28.27 202.318 28.052 203.299C26.6626 209.401 21.2141 213.951 14.7031 213.951C10.9436 213.951 1.02724 212.425 1.02724 200.275L1 200.248Z" fill="#0F4EB8" stroke="#0A3A8C" stroke-width="2" stroke-linecap="round" stroke-linejoin="round"/>
<path d="M195.704 1C188.103 1 182.028 7.07512 182.028 13.1775V201.643C182.028 208.399 176.498 213.929 169.741 213.929H14.7031C22.3038 213.929 28.379 207.854 28.379 201.751V13.3137C28.379 6.55751 33.9365 1 40.6927 1H195.704Z" fill="#FFF3A1" stroke="#0A3A8C" stroke-width="2" stroke-linecap="round" stroke-linejoin="round"/>
<path d="M163.931 36.2812H89.8309C89.0786 36.2812 88.4688 36.8911 88.4688 37.6434V37.8886C88.4688 38.6409 89.0786 39.2507 89.8309 39.2507H163.931C164.683 39.2507 165.293 38.6409 165.293 37.8886V37.6434C165.293 36.8911 164.683 36.2812 163.931 36.2812Z" fill="#0F4EB8" stroke="#0F4EB8" stroke-width="2" stroke-miterlimit="10"/>
<path d="M116.774 46.8477H89.8309C89.0786 46.8477 88.4688 47.4575 88.4688 48.2098V48.455C88.4688 49.2073 89.0786 49.8171 89.8309 49.8171H116.774C117.526 49.8171 118.136 49.2073 118.136 48.455V48.2098C118.136 47.4575 117.526 46.8477 116.774 46.8477Z" fill="#0F4EB8" stroke="#0F4EB8" stroke-width="2" stroke-miterlimit="10"/>
<path d="M163.911 46.8477H123.292C122.54 46.8477 121.93 47.4575 121.93 48.2098V48.455C121.93 49.2073 122.54 49.8171 123.292 49.8171H163.911C164.663 49.8171 165.273 49.2073 165.273 48.455V48.2098C165.273 47.4575 164.663 46.8477 163.911 46.8477Z" fill="#0F4EB8" stroke="#0F4EB8" stroke-width="2" stroke-miterlimit="10"/>
<path d="M116.774 67.9922H89.8309C89.0786 67.9922 88.4688 68.602 88.4688 69.3543V69.5995C88.4688 70.3518 89.0786 70.9616 89.8309 70.9616H116.774C117.526 70.9616 118.136 70.3518 118.136 69.5995V69.3543C118.136 68.602 117.526 67.9922 116.774 67.9922Z" fill="#0F4EB8" stroke="#0F4EB8" stroke-width="2" stroke-miterlimit="10"/>
<path d="M163.911 67.9922H123.292C122.54 67.9922 121.93 68.602 121.93 69.3543V69.5995C121.93 70.3518 122.54 70.9616 123.292 70.9616H163.911C164.663 70.9616 165.273 70.3518 165.273 69.5995V69.3543C165.273 68.602 164.663 67.9922 163.911 67.9922Z" fill="#0F4EB8" stroke="#0F4EB8" stroke-width="2" stroke-miterlimit="10"/>
<path d="M163.931 57.4258H89.8309C89.0786 57.4258 88.4688 58.0356 88.4688 58.7879V59.0331C88.4688 59.7854 89.0786 60.3952 89.8309 60.3952H163.931C164.683 60.3952 165.293 59.7854 165.293 59.0331V58.7879C165.293 58.0356 164.683 57.4258 163.931 57.4258Z" fill="#0F4EB8" stroke="#0F4EB8" stroke-width="2" stroke-miterlimit="10"/>
<path d="M163.94 93.7305H44.9715C44.2192 93.7305 43.6094 94.3403 43.6094 95.0926V95.3378C43.6094 96.0901 44.2192 96.6999 44.9715 96.6999H163.94C164.693 96.6999 165.303 96.0901 165.303 95.3378V95.0926C165.303 94.3403 164.693 93.7305 163.94 93.7305Z" fill="#0F4EB8" stroke="#0F4EB8" stroke-width="2" stroke-miterlimit="10"/>
<path d="M89.2409 104.297H44.9715C44.2192 104.297 43.6094 104.907 43.6094 105.659V105.904C43.6094 106.656 44.2192 107.266 44.9715 107.266H89.2409C89.9932 107.266 90.603 106.656 90.603 105.904V105.659C90.603 104.907 89.9932 104.297 89.2409 104.297Z" fill="#0F4EB8" stroke="#0F4EB8" stroke-width="2" stroke-miterlimit="10"/>
<path d="M163.942 104.297H97.9871C97.2348 104.297 96.625 104.907 96.625 105.659V105.904C96.625 106.656 97.2348 107.266 97.9871 107.266H163.942C164.694 107.266 165.304 106.656 165.304 105.904V105.659C165.304 104.907 164.694 104.297 163.942 104.297Z" fill="#0F4EB8" stroke="#0F4EB8" stroke-width="2" stroke-miterlimit="10"/>
<path d="M89.2409 125.41H44.9715C44.2192 125.41 43.6094 126.02 43.6094 126.772V127.017C43.6094 127.77 44.2192 128.38 44.9715 128.38H89.2409C89.9932 128.38 90.603 127.77 90.603 127.017V126.772C90.603 126.02 89.9932 125.41 89.2409 125.41Z" fill="#0F4EB8" stroke="#0F4EB8" stroke-width="2" stroke-miterlimit="10"/>
<path d="M163.942 125.41H97.9871C97.2348 125.41 96.625 126.02 96.625 126.772V127.017C96.625 127.77 97.2348 128.38 97.9871 128.38H163.942C164.694 128.38 165.304 127.77 165.304 127.017V126.772C165.304 126.02 164.694 125.41 163.942 125.41Z" fill="#0F4EB8" stroke="#0F4EB8" stroke-width="2" stroke-miterlimit="10"/>
<path d="M163.94 114.875H44.9715C44.2192 114.875 43.6094 115.485 43.6094 116.237V116.482C43.6094 117.235 44.2192 117.844 44.9715 117.844H163.94C164.693 117.844 165.303 117.235 165.303 116.482V116.237C165.303 115.485 164.693 114.875 163.94 114.875Z" fill="#0F4EB8" stroke="#0F4EB8" stroke-width="2" stroke-miterlimit="10"/>
<path d="M163.94 135.988H44.9715C44.2192 135.988 43.6094 136.598 43.6094 137.35V137.596C43.6094 138.348 44.2192 138.958 44.9715 138.958H163.94C164.693 138.958 165.303 138.348 165.303 137.596V137.35C165.303 136.598 164.693 135.988 163.94 135.988Z" fill="#0F4EB8" stroke="#0F4EB8" stroke-width="2" stroke-miterlimit="10"/>
<path d="M89.2409 146.555H44.9715C44.2192 146.555 43.6094 147.165 43.6094 147.917V148.162C43.6094 148.914 44.2192 149.524 44.9715 149.524H89.2409C89.9932 149.524 90.603 148.914 90.603 148.162V147.917C90.603 147.165 89.9932 146.555 89.2409 146.555Z" fill="#0F4EB8" stroke="#0F4EB8" stroke-width="2" stroke-miterlimit="10"/>
<path d="M163.942 146.555H97.9871C97.2348 146.555 96.625 147.165 96.625 147.917V148.162C96.625 148.914 97.2348 149.524 97.9871 149.524H163.942C164.694 149.524 165.304 148.914 165.304 148.162V147.917C165.304 147.165 164.694 146.555 163.942 146.555Z" fill="#0F4EB8" stroke="#0F4EB8" stroke-width="2" stroke-miterlimit="10"/>
<path d="M89.2409 167.668H44.9715C44.2192 167.668 43.6094 168.278 43.6094 169.03V169.275C43.6094 170.028 44.2192 170.637 44.9715 170.637H89.2409C89.9932 170.637 90.603 170.028 90.603 169.275V169.03C90.603 168.278 89.9932 167.668 89.2409 167.668Z" fill="#0F4EB8" stroke="#0F4EB8" stroke-width="2" stroke-miterlimit="10"/>
<path d="M163.942 167.668H97.9871C97.2348 167.668 96.625 168.278 96.625 169.03V169.275C96.625 170.028 97.2348 170.637 97.9871 170.637H163.942C164.694 170.637 165.304 170.028 165.304 169.275V169.03C165.304 168.278 164.694 167.668 163.942 167.668Z" fill="#0F4EB8" stroke="#0F4EB8" stroke-width="2" stroke-miterlimit="10"/>
<path d="M163.94 157.121H44.9715C44.2192 157.121 43.6094 157.731 43.6094 158.483V158.728C43.6094 159.481 44.2192 160.091 44.9715 160.091H163.94C164.693 160.091 165.303 159.481 165.303 158.728V158.483C165.303 157.731 164.693 157.121 163.94 157.121Z" fill="#0F4EB8" stroke="#0F4EB8" stroke-width="2" stroke-miterlimit="10"/>
<path d="M64.9712 75.0674C64.1266 75.0674 63.4456 74.3863 63.4456 73.5418V68.4747C59.7678 67.9843 56.4442 66.2408 54.5644 63.7344C54.0468 63.0534 54.183 62.0999 54.8641 61.5823C55.5452 61.0647 56.4987 61.2009 57.0163 61.8819C58.5964 63.9796 61.7293 65.4235 65.0256 65.5325C67.532 65.6142 69.7659 64.9331 71.1008 63.6255C72.1088 62.6447 72.6264 61.3371 72.6264 59.7298C72.6264 56.4606 69.8476 55.5344 65.3253 54.3085C61.0755 53.137 55.7631 51.6932 55.7631 45.945C55.7631 43.4659 56.5259 41.4772 58.0243 40.0333C59.3592 38.7256 61.2117 37.9629 63.4456 37.7449V33.6857C63.4456 32.8412 64.1266 32.1602 64.9712 32.1602C65.8157 32.1602 66.4968 32.8412 66.4968 33.6857V37.7994C69.8476 38.208 73.1712 39.7064 75.2417 41.7768C75.841 42.3762 75.841 43.3569 75.2417 43.9562C74.6423 44.5556 73.6616 44.5556 73.0622 43.9562C71.2642 42.1582 67.9134 40.8233 64.9167 40.7416C62.9007 40.6599 61.1844 41.2047 60.1764 42.2127C59.3047 43.0572 58.8416 44.3104 58.8416 45.945C58.8416 49.2141 61.6203 50.1403 66.1426 51.3663C70.3925 52.5377 75.7048 53.9816 75.7048 59.7298C75.7048 62.1816 74.8603 64.2793 73.2529 65.8321C71.6184 67.4122 69.221 68.3657 66.524 68.5564V73.5146C66.524 74.3591 65.8429 75.0402 64.9984 75.0402L64.9712 75.0674Z" fill="#0F4EB8" stroke="#0F4EB8" stroke-width="2" stroke-miterlimit="10"/>
</svg>
