<svg width="210" height="227" viewBox="0 0 210 227" fill="none" xmlns="http://www.w3.org/2000/svg">
<path d="M207.883 14.7031V67.9353H180.504V14.7031C180.504 13.6406 180.613 12.6326 180.831 11.6519C182.22 5.54953 187.669 1 194.18 1C197.939 1 201.399 2.52559 203.851 5.00468C206.33 7.45652 207.856 10.9163 207.856 14.6758L207.883 14.7031Z" fill="#0F4EB8" stroke="#0A3A8C" stroke-width="2" stroke-linecap="round" stroke-linejoin="round"/>
<path d="M1 200.246V147.014H28.3789V200.246C28.3789 201.308 28.27 202.316 28.052 203.297C26.6626 209.399 21.2141 213.949 14.7031 213.949C10.9436 213.949 1.02724 212.423 1.02724 200.273L1 200.246Z" fill="#0F4EB8" stroke="#0A3A8C" stroke-width="2" stroke-linecap="round" stroke-linejoin="round"/>
<path d="M195.708 1C188.107 1 182.032 7.07512 182.032 13.1775V201.643C182.032 208.399 176.501 213.929 169.745 213.929H14.707C22.3077 213.929 28.3829 207.854 28.3829 201.751V13.3137C28.3829 6.55751 33.9404 1 40.6966 1H195.708Z" fill="#FFF3A1" stroke="#0A3A8C" stroke-width="2" stroke-linecap="round" stroke-linejoin="round"/>
<path d="M163.935 36.2793H89.8348C89.0825 36.2793 88.4727 36.8891 88.4727 37.6414V37.8866C88.4727 38.6389 89.0825 39.2488 89.8348 39.2488H163.935C164.687 39.2488 165.297 38.6389 165.297 37.8866V37.6414C165.297 36.8891 164.687 36.2793 163.935 36.2793Z" fill="#0F4EB8" stroke="#0F4EB8" stroke-width="2" stroke-miterlimit="10"/>
<path d="M116.778 46.8457H89.8348C89.0825 46.8457 88.4727 47.4556 88.4727 48.2078V48.453C88.4727 49.2053 89.0825 49.8152 89.8348 49.8152H116.778C117.53 49.8152 118.14 49.2053 118.14 48.453V48.2078C118.14 47.4556 117.53 46.8457 116.778 46.8457Z" fill="#0F4EB8" stroke="#0F4EB8" stroke-width="2" stroke-miterlimit="10"/>
<path d="M163.911 46.8457H123.292C122.54 46.8457 121.93 47.4556 121.93 48.2078V48.453C121.93 49.2053 122.54 49.8152 123.292 49.8152H163.911C164.663 49.8152 165.273 49.2053 165.273 48.453V48.2078C165.273 47.4556 164.663 46.8457 163.911 46.8457Z" fill="#0F4EB8" stroke="#0F4EB8" stroke-width="2" stroke-miterlimit="10"/>
<path d="M116.778 67.9902H89.8348C89.0825 67.9902 88.4727 68.6001 88.4727 69.3524V69.5976C88.4727 70.3498 89.0825 70.9597 89.8348 70.9597H116.778C117.53 70.9597 118.14 70.3498 118.14 69.5976V69.3524C118.14 68.6001 117.53 67.9902 116.778 67.9902Z" fill="#0F4EB8" stroke="#0F4EB8" stroke-width="2" stroke-miterlimit="10"/>
<path d="M163.911 67.9902H123.292C122.54 67.9902 121.93 68.6001 121.93 69.3524V69.5976C121.93 70.3498 122.54 70.9597 123.292 70.9597H163.911C164.663 70.9597 165.273 70.3498 165.273 69.5976V69.3524C165.273 68.6001 164.663 67.9902 163.911 67.9902Z" fill="#0F4EB8" stroke="#0F4EB8" stroke-width="2" stroke-miterlimit="10"/>
<path d="M163.935 57.4238H89.8348C89.0825 57.4238 88.4727 58.0337 88.4727 58.786V59.0311C88.4727 59.7834 89.0825 60.3933 89.8348 60.3933H163.935C164.687 60.3933 165.297 59.7834 165.297 59.0311V58.786C165.297 58.0337 164.687 57.4238 163.935 57.4238Z" fill="#0F4EB8" stroke="#0F4EB8" stroke-width="2" stroke-miterlimit="10"/>
<path d="M163.94 93.7324H44.9715C44.2192 93.7324 43.6094 94.3423 43.6094 95.0946V95.3397C43.6094 96.092 44.2192 96.7019 44.9715 96.7019H163.94C164.693 96.7019 165.303 96.092 165.303 95.3397V95.0946C165.303 94.3423 164.693 93.7324 163.94 93.7324Z" fill="#0F4EB8" stroke="#0F4EB8" stroke-width="2" stroke-miterlimit="10"/>
<path d="M89.2409 104.299H44.9715C44.2192 104.299 43.6094 104.909 43.6094 105.661V105.906C43.6094 106.658 44.2192 107.268 44.9715 107.268H89.2409C89.9932 107.268 90.603 106.658 90.603 105.906V105.661C90.603 104.909 89.9932 104.299 89.2409 104.299Z" fill="#0F4EB8" stroke="#0F4EB8" stroke-width="2" stroke-miterlimit="10"/>
<path d="M163.942 104.299H97.9871C97.2348 104.299 96.625 104.909 96.625 105.661V105.906C96.625 106.658 97.2348 107.268 97.9871 107.268H163.942C164.694 107.268 165.304 106.658 165.304 105.906V105.661C165.304 104.909 164.694 104.299 163.942 104.299Z" fill="#0F4EB8" stroke="#0F4EB8" stroke-width="2" stroke-miterlimit="10"/>
<path d="M89.2409 125.412H44.9715C44.2192 125.412 43.6094 126.022 43.6094 126.774V127.019C43.6094 127.772 44.2192 128.382 44.9715 128.382H89.2409C89.9932 128.382 90.603 127.772 90.603 127.019V126.774C90.603 126.022 89.9932 125.412 89.2409 125.412Z" fill="#0F4EB8" stroke="#0F4EB8" stroke-width="2" stroke-miterlimit="10"/>
<path d="M163.942 125.412H97.9871C97.2348 125.412 96.625 126.022 96.625 126.774V127.019C96.625 127.772 97.2348 128.382 97.9871 128.382H163.942C164.694 128.382 165.304 127.772 165.304 127.019V126.774C165.304 126.022 164.694 125.412 163.942 125.412Z" fill="#0F4EB8" stroke="#0F4EB8" stroke-width="2" stroke-miterlimit="10"/>
<path d="M163.94 114.877H44.9715C44.2192 114.877 43.6094 115.487 43.6094 116.239V116.484C43.6094 117.237 44.2192 117.846 44.9715 117.846H163.94C164.693 117.846 165.303 117.237 165.303 116.484V116.239C165.303 115.487 164.693 114.877 163.94 114.877Z" fill="#0F4EB8" stroke="#0F4EB8" stroke-width="2" stroke-miterlimit="10"/>
<path d="M163.94 135.99H44.9715C44.2192 135.99 43.6094 136.6 43.6094 137.352V137.598C43.6094 138.35 44.2192 138.96 44.9715 138.96H163.94C164.693 138.96 165.303 138.35 165.303 137.598V137.352C165.303 136.6 164.693 135.99 163.94 135.99Z" fill="#0F4EB8" stroke="#0F4EB8" stroke-width="2" stroke-miterlimit="10"/>
<path d="M89.2409 146.559H44.9715C44.2192 146.559 43.6094 147.168 43.6094 147.921V148.166C43.6094 148.918 44.2192 149.528 44.9715 149.528H89.2409C89.9932 149.528 90.603 148.918 90.603 148.166V147.921C90.603 147.168 89.9932 146.559 89.2409 146.559Z" fill="#0F4EB8" stroke="#0F4EB8" stroke-width="2" stroke-miterlimit="10"/>
<path d="M163.942 146.559H97.9871C97.2348 146.559 96.625 147.168 96.625 147.921V148.166C96.625 148.918 97.2348 149.528 97.9871 149.528H163.942C164.694 149.528 165.304 148.918 165.304 148.166V147.921C165.304 147.168 164.694 146.559 163.942 146.559Z" fill="#0F4EB8" stroke="#0F4EB8" stroke-width="2" stroke-miterlimit="10"/>
<path d="M89.2409 167.67H44.9715C44.2192 167.67 43.6094 168.28 43.6094 169.032V169.277C43.6094 170.03 44.2192 170.639 44.9715 170.639H89.2409C89.9932 170.639 90.603 170.03 90.603 169.277V169.032C90.603 168.28 89.9932 167.67 89.2409 167.67Z" fill="#0F4EB8" stroke="#0F4EB8" stroke-width="2" stroke-miterlimit="10"/>
<path d="M163.942 167.67H97.9871C97.2348 167.67 96.625 168.28 96.625 169.032V169.277C96.625 170.03 97.2348 170.639 97.9871 170.639H163.942C164.694 170.639 165.304 170.03 165.304 169.277V169.032C165.304 168.28 164.694 167.67 163.942 167.67Z" fill="#0F4EB8" stroke="#0F4EB8" stroke-width="2" stroke-miterlimit="10"/>
<path d="M163.94 157.125H44.9715C44.2192 157.125 43.6094 157.735 43.6094 158.487V158.732C43.6094 159.485 44.2192 160.094 44.9715 160.094H163.94C164.693 160.094 165.303 159.485 165.303 158.732V158.487C165.303 157.735 164.693 157.125 163.94 157.125Z" fill="#0F4EB8" stroke="#0F4EB8" stroke-width="2" stroke-miterlimit="10"/>
<path d="M64.9712 75.0674C64.1266 75.0674 63.4456 74.3863 63.4456 73.5418V68.4747C59.7678 67.9843 56.4442 66.2408 54.5644 63.7344C54.0468 63.0534 54.183 62.0999 54.8641 61.5823C55.5452 61.0647 56.4987 61.2009 57.0163 61.8819C58.5964 63.9796 61.7293 65.4235 65.0256 65.5325C67.532 65.6142 69.7659 64.9331 71.1008 63.6255C72.1088 62.6447 72.6264 61.3371 72.6264 59.7298C72.6264 56.4606 69.8476 55.5344 65.3253 54.3085C61.0755 53.137 55.7631 51.6932 55.7631 45.945C55.7631 43.4659 56.5259 41.4772 58.0243 40.0333C59.3592 38.7256 61.2117 37.9629 63.4456 37.7449V33.6857C63.4456 32.8412 64.1266 32.1602 64.9712 32.1602C65.8157 32.1602 66.4968 32.8412 66.4968 33.6857V37.7994C69.8476 38.208 73.1712 39.7064 75.2417 41.7768C75.841 42.3762 75.841 43.3569 75.2417 43.9562C74.6423 44.5556 73.6616 44.5556 73.0622 43.9562C71.2642 42.1582 67.9134 40.8233 64.9167 40.7416C62.9007 40.6599 61.1844 41.2047 60.1764 42.2127C59.3047 43.0572 58.8416 44.3104 58.8416 45.945C58.8416 49.2141 61.6203 50.1403 66.1426 51.3663C70.3925 52.5377 75.7048 53.9816 75.7048 59.7298C75.7048 62.1816 74.8603 64.2793 73.2529 65.8321C71.6184 67.4122 69.221 68.3657 66.524 68.5564V73.5146C66.524 74.3591 65.8429 75.0402 64.9984 75.0402L64.9712 75.0674Z" fill="#0F4EB8" stroke="#0F4EB8" stroke-width="2" stroke-miterlimit="10"/>
<circle cx="172.5" cy="191.5" r="35.5" fill="white"/>
<path d="M202.952 208.947C206.277 203.655 208.205 197.435 208.205 190.78C208.205 171.576 192.276 156 172.603 156C152.929 156 137 171.576 137 190.78C137 209.983 152.929 225.532 172.603 225.532C177.996 225.532 183.11 224.359 187.665 222.258" stroke="#0A3A8C" stroke-width="2.5" stroke-linecap="round" stroke-linejoin="round"/>
<path d="M181 178.862V204H166V178.862C166 174.517 169.35 171 173.512 171C175.581 171 177.453 171.879 178.808 173.302C180.163 174.724 181 176.69 181 178.862Z" fill="#B6D0FA" stroke="#0A3A8C" stroke-width="2" stroke-linecap="round" stroke-linejoin="round"/>
<path d="M189 205.698C189 206.734 188.736 207 187.709 207C185.803 206.97 183.867 206.97 181.931 206.97H158.437C157.44 207 157 206.852 157 205.668C157.088 199.452 157.029 193.206 157.059 186.99C157.059 184.681 157.704 184 159.992 184H186.067C188.237 184 188.971 184.71 188.971 186.901C188.971 193.147 188.941 199.422 188.971 205.698H189Z" fill="white" stroke="#0A3A8C" stroke-width="2" stroke-linecap="round" stroke-linejoin="round"/>
<path d="M177 195.441C177 197.373 175.497 198.975 173.594 198.999C171.715 199.046 170 197.326 170 195.441C170 193.532 171.597 192 173.523 192C175.497 192 176.977 193.485 177 195.441Z" fill="#0A3A8C"/>
</svg>
