<svg width="316" height="173" viewBox="0 0 316 173" fill="none" xmlns="http://www.w3.org/2000/svg">
<path d="M299.71 98.7227H34.1951C33.3064 98.7227 32.5859 99.4236 32.5859 100.288V128.468C32.5859 129.333 33.3064 130.034 34.1951 130.034H299.71C300.599 130.034 301.319 129.333 301.319 128.468V100.288C301.319 99.4236 300.599 98.7227 299.71 98.7227Z" fill="#B6D0FA" stroke="#0A3A8C" stroke-width="2" stroke-miterlimit="10"/>
<path d="M307.756 83.0664H29.3672V122.205H307.756V83.0664Z" fill="#0F4EB8" stroke="#0A3A8C" stroke-width="2" stroke-miterlimit="10"/>
<path d="M211.079 1H24.4139C23.5251 1 22.8047 1.70093 22.8047 2.56556V109.024C22.8047 109.888 23.5251 110.589 24.4139 110.589H211.079C211.968 110.589 212.688 109.888 212.688 109.024V2.56556C212.688 1.70093 211.968 1 211.079 1Z" fill="#FFDC3E" stroke="#0A3A8C" stroke-width="2" stroke-miterlimit="10"/>
<path d="M202.13 8.54688H33.3592C32.4705 8.54688 31.75 9.2478 31.75 10.1124V101.479C31.75 102.343 32.4705 103.044 33.3592 103.044H202.13C203.019 103.044 203.739 102.343 203.739 101.479V10.1124C203.739 9.2478 203.019 8.54688 202.13 8.54688Z" fill="#FFFDF0" stroke="#0A3A8C" stroke-width="2" stroke-miterlimit="10"/>
<path d="M51.8984 7.91797V103.417" stroke="#0A3A8C" stroke-width="2" stroke-miterlimit="10"/>
<path d="M68.7969 7.91797V103.417" stroke="#0A3A8C" stroke-width="2" stroke-miterlimit="10"/>
<path d="M85.6875 7.91797V103.417" stroke="#0A3A8C" stroke-width="2" stroke-miterlimit="10"/>
<path d="M102.586 7.91797V103.417" stroke="#0A3A8C" stroke-width="2" stroke-miterlimit="10"/>
<path d="M119.484 7.91797V103.417" stroke="#0A3A8C" stroke-width="2" stroke-miterlimit="10"/>
<path d="M136.383 7.91797V103.417" stroke="#0A3A8C" stroke-width="2" stroke-miterlimit="10"/>
<path d="M153.273 7.91797V103.417" stroke="#0A3A8C" stroke-width="2" stroke-miterlimit="10"/>
<path d="M170.172 7.91797V103.417" stroke="#0A3A8C" stroke-width="2" stroke-miterlimit="10"/>
<path d="M187.07 7.91797V103.417" stroke="#0A3A8C" stroke-width="2" stroke-miterlimit="10"/>
<path d="M314.193 65.4082V108.305C314.193 109.056 313.485 109.682 312.584 109.682H228.906C228.005 109.682 227.297 109.056 227.297 108.305V21.823C227.297 21.0715 228.005 20.4453 228.906 20.4453H279.531C280.078 20.4453 280.593 20.6958 280.883 21.0715L313.935 64.6567C314.096 64.8759 314.193 65.1264 314.193 65.4082Z" fill="#FFF3A1" stroke="#0A3A8C" stroke-width="2" stroke-miterlimit="10"/>
<path d="M129.945 126.902H60.7497C59.4166 126.902 58.3359 127.954 58.3359 129.251C58.3359 130.548 59.4166 131.599 60.7497 131.599H129.945C131.278 131.599 132.358 130.548 132.358 129.251C132.358 127.954 131.278 126.902 129.945 126.902Z" fill="#B6D0FA" stroke="#0A3A8C" stroke-width="2" stroke-miterlimit="10"/>
<path d="M61.841 156.652C75.9185 156.652 87.3305 145.549 87.3305 131.853C87.3305 118.157 75.9185 107.055 61.841 107.055C47.7636 107.055 36.3516 118.157 36.3516 131.853C36.3516 145.549 47.7636 156.652 61.841 156.652Z" fill="#FFFDF0" stroke="#0A3A8C" stroke-width="2" stroke-miterlimit="10"/>
<path d="M61.8425 149.887C72.0806 149.887 80.3803 141.812 80.3803 131.852C80.3803 121.891 72.0806 113.816 61.8425 113.816C51.6043 113.816 43.3047 121.891 43.3047 131.852C43.3047 141.812 51.6043 149.887 61.8425 149.887Z" fill="#FFFDF0" stroke="#0A3A8C" stroke-width="2" stroke-miterlimit="10"/>
<path d="M43.5312 131.852H80.1562" stroke="#0A3A8C" stroke-width="2" stroke-miterlimit="10"/>
<path d="M61.8438 114.035V149.667" stroke="#0A3A8C" stroke-width="2" stroke-miterlimit="10"/>
<path d="M48.875 119.266L74.7828 144.471" stroke="#0A3A8C" stroke-width="2" stroke-miterlimit="10"/>
<path d="M74.7828 119.266L48.875 144.471" stroke="#0A3A8C" stroke-width="2" stroke-miterlimit="10"/>
<path d="M61.8423 138.616C65.6816 138.616 68.794 135.588 68.794 131.853C68.794 128.118 65.6816 125.09 61.8423 125.09C58.003 125.09 54.8906 128.118 54.8906 131.853C54.8906 135.588 58.003 138.616 61.8423 138.616Z" fill="#FFFDF0" stroke="#0A3A8C" stroke-width="2" stroke-miterlimit="10"/>
<path d="M92.5786 131.632C92.5786 134.951 87.4614 134.419 87.4614 131.632C87.4614 117.949 76.0684 106.834 62.0042 106.834C47.9399 106.834 36.5147 117.949 36.5147 131.632C36.5147 134.388 31.4297 134.951 31.4297 131.632C31.4297 115.194 45.1077 101.887 62.0042 101.887C78.9006 101.887 92.5786 115.194 92.5786 131.632Z" fill="#B6D0FA" stroke="#0A3A8C" stroke-width="2" stroke-miterlimit="10"/>
<path d="M155.177 156.652C169.254 156.652 180.666 145.549 180.666 131.853C180.666 118.157 169.254 107.055 155.177 107.055C141.1 107.055 129.688 118.157 129.688 131.853C129.688 145.549 141.1 156.652 155.177 156.652Z" fill="#FFFDF0" stroke="#0A3A8C" stroke-width="2" stroke-miterlimit="10"/>
<path d="M155.178 149.887C165.417 149.887 173.716 141.812 173.716 131.852C173.716 121.891 165.417 113.816 155.178 113.816C144.94 113.816 136.641 121.891 136.641 131.852C136.641 141.812 144.94 149.887 155.178 149.887Z" fill="#FFFDF0" stroke="#0A3A8C" stroke-width="2" stroke-miterlimit="10"/>
<path d="M136.867 131.852H173.492" stroke="#0A3A8C" stroke-width="2" stroke-miterlimit="10"/>
<path d="M155.18 114.035V149.667" stroke="#0A3A8C" stroke-width="2" stroke-miterlimit="10"/>
<path d="M142.211 119.266L168.119 144.471" stroke="#0A3A8C" stroke-width="2" stroke-miterlimit="10"/>
<path d="M168.119 119.266L142.211 144.471" stroke="#0A3A8C" stroke-width="2" stroke-miterlimit="10"/>
<path d="M155.178 138.616C159.018 138.616 162.13 135.588 162.13 131.853C162.13 128.118 159.018 125.09 155.178 125.09C151.339 125.09 148.227 128.118 148.227 131.853C148.227 135.588 151.339 138.616 155.178 138.616Z" fill="#FFFDF0" stroke="#0A3A8C" stroke-width="2" stroke-miterlimit="10"/>
<path d="M185.915 131.632C185.915 134.951 180.797 134.419 180.797 131.632C180.797 117.949 169.404 106.834 155.34 106.834C141.276 106.834 129.851 117.949 129.851 131.632C129.851 134.388 124.766 134.951 124.766 131.632C124.766 115.194 138.444 101.887 155.34 101.887C172.237 101.887 185.915 115.194 185.915 131.632Z" fill="#B6D0FA" stroke="#0A3A8C" stroke-width="2" stroke-miterlimit="10"/>
<path d="M264.599 156.652C278.676 156.652 290.088 145.549 290.088 131.853C290.088 118.157 278.676 107.055 264.599 107.055C250.521 107.055 239.109 118.157 239.109 131.853C239.109 145.549 250.521 156.652 264.599 156.652Z" fill="#FFFDF0" stroke="#0A3A8C" stroke-width="2" stroke-miterlimit="10"/>
<path d="M264.6 149.887C274.838 149.887 283.138 141.812 283.138 131.852C283.138 121.891 274.838 113.816 264.6 113.816C254.362 113.816 246.062 121.891 246.062 131.852C246.062 141.812 254.362 149.887 264.6 149.887Z" fill="#FFFDF0" stroke="#0A3A8C" stroke-width="2" stroke-miterlimit="10"/>
<path d="M246.289 131.852H282.914" stroke="#0A3A8C" stroke-width="2" stroke-miterlimit="10"/>
<path d="M264.602 114.035V149.667" stroke="#0A3A8C" stroke-width="2" stroke-miterlimit="10"/>
<path d="M251.633 119.266L277.541 144.471" stroke="#0A3A8C" stroke-width="2" stroke-miterlimit="10"/>
<path d="M277.541 119.266L251.633 144.471" stroke="#0A3A8C" stroke-width="2" stroke-miterlimit="10"/>
<path d="M264.6 138.616C268.439 138.616 271.552 135.588 271.552 131.853C271.552 128.118 268.439 125.09 264.6 125.09C260.761 125.09 257.648 128.118 257.648 131.853C257.648 135.588 260.761 138.616 264.6 138.616Z" fill="#FFFDF0" stroke="#0A3A8C" stroke-width="2" stroke-miterlimit="10"/>
<path d="M295.336 131.632C295.336 134.951 290.219 134.419 290.219 131.632C290.219 117.949 278.826 106.834 264.762 106.834C250.698 106.834 239.273 117.949 239.273 131.632C239.273 134.388 234.188 134.951 234.188 131.632C234.188 115.194 247.866 101.887 264.762 101.887C281.658 101.887 295.336 115.194 295.336 131.632Z" fill="#B6D0FA" stroke="#0A3A8C" stroke-width="2" stroke-miterlimit="10"/>
<path d="M302.964 64.2811H256.265C255.364 64.2811 254.656 63.5923 254.656 62.7156V27.9288C254.656 27.0521 255.364 26.3633 256.265 26.3633H276.38C276.895 26.3633 277.378 26.5825 277.668 26.9895L304.251 61.7762C305.056 62.8095 304.251 64.2811 302.964 64.2811Z" fill="#FFFDF0" stroke="#0A3A8C" stroke-width="2" stroke-miterlimit="10"/>
<path d="M246.608 26.707H236.953C236.064 26.707 235.344 27.408 235.344 28.2726V62.7149C235.344 63.5795 236.064 64.2805 236.953 64.2805H246.608C247.497 64.2805 248.217 63.5795 248.217 62.7149V28.2726C248.217 27.408 247.497 26.707 246.608 26.707Z" fill="#FFFDF0" stroke="#0A3A8C" stroke-width="2" stroke-miterlimit="10"/>
<path d="M235.344 70.8547V74.9252C235.344 75.0981 235.488 75.2383 235.666 75.2383H254.332C254.51 75.2383 254.654 75.0981 254.654 74.9252V70.8547C254.654 70.6818 254.51 70.5416 254.332 70.5416H235.666C235.488 70.5416 235.344 70.6818 235.344 70.8547Z" fill="#FFFDF0" stroke="#0A3A8C" stroke-width="2" stroke-miterlimit="10"/>
<path d="M108.652 152.878L37.9766 159.891V101.109L108.652 97.5859V152.878Z" fill="#FFFDF0" stroke="#0A3A8C" stroke-width="2" stroke-linecap="round" stroke-linejoin="round"/>
<path d="M108.64 97.5907L37.9648 101.114L20.3047 94.1011L82.9651 91.2891L108.64 97.5907Z" fill="#FFFDF0" stroke="#0A3A8C" stroke-width="2" stroke-linecap="round" stroke-linejoin="round"/>
<path d="M37.9648 159.888L20.3047 145.896V94.0938L37.9648 101.107V159.888Z" fill="#FFFDF0" stroke="#0A3A8C" stroke-width="2" stroke-linecap="round" stroke-linejoin="round"/>
<path d="M44.3757 164.089L20.2969 171.103V130.481L44.3757 124.891V164.089Z" fill="#B6D0FA" stroke="#0A3A8C" stroke-width="2" stroke-linecap="round" stroke-linejoin="round"/>
<path d="M1 165.487L20.2908 171.111V130.489L1 127.711V165.487Z" fill="#B6D0FA" stroke="#0A3A8C" stroke-width="2" stroke-linecap="round" stroke-linejoin="round"/>
<path d="M1 127.71L20.2908 130.488L44.3696 124.898L25.1135 122.086L1 127.71Z" fill="#B6D0FA" stroke="#0A3A8C" stroke-width="2" stroke-linecap="round" stroke-linejoin="round"/>
<path d="M92.3996 165.891L70.125 161.622L70.2638 137.703L92.7813 140.685L92.3996 165.891Z" fill="#B6D0FA" stroke="#0A3A8C" stroke-width="2" stroke-linecap="round" stroke-linejoin="round"/>
<path d="M92.7831 140.689L70.2656 137.708L89.4176 135.031L112.039 137.979L92.7831 140.689Z" fill="#B6D0FA" stroke="#0A3A8C" stroke-width="2" stroke-linecap="round" stroke-linejoin="round"/>
<path d="M92.4062 165.901L111.905 161.632L112.044 137.984L92.7879 140.695L92.4062 165.901Z" fill="#B6D0FA" stroke="#0A3A8C" stroke-width="2" stroke-linecap="round" stroke-linejoin="round"/>
<path d="M35.3438 96.4053L76.8745 97.5572V66.0152L35.3438 64.8633V96.4053Z" fill="#B6D0FA" stroke="#0A3A8C" stroke-width="2" stroke-linecap="round" stroke-linejoin="round"/>
<path d="M35.3438 64.8572L76.8745 66.0091L86.277 63.7053L47.4178 62.5195L35.3438 64.8572Z" fill="#B6D0FA" stroke="#0A3A8C" stroke-width="2" stroke-linecap="round" stroke-linejoin="round"/>
<path d="M76.8672 97.5568L86.2697 94.0671V63.7109L76.8672 66.0148V97.5568Z" fill="#B6D0FA" stroke="#0A3A8C" stroke-width="2" stroke-linecap="round" stroke-linejoin="round"/>
</svg>
