<svg width="259" height="196" viewBox="0 0 259 196" fill="none" xmlns="http://www.w3.org/2000/svg">
<g clip-path="url(#clip0_1436_2)">
<path d="M85.5606 142.021L85.8457 133.335L80.594 133.162C80.2768 131.358 79.7789 129.619 79.1245 127.959L83.9386 125.31L79.7709 117.691L74.6477 120.51C73.5435 119.209 72.3189 118.014 70.99 116.946L74.0494 111.764L66.5935 107.335L63.4376 112.682C61.9039 112.122 60.3059 111.708 58.6597 111.438V105.156H49.9911V111.438C48.7384 111.643 47.5179 111.929 46.3294 112.304L43.4145 106.803L35.7617 110.882L38.5924 116.23C37.3557 117.136 36.2034 118.146 35.1434 119.246L30.1647 116.065L25.5073 123.393L30.1969 126.389C29.438 127.996 28.8358 129.691 28.4021 131.451L23.0741 131.273L22.7891 139.963L27.7316 140.124C27.8962 142.057 28.2576 143.933 28.8076 145.729L24.7002 147.988L28.8679 155.611L32.6822 153.513C33.8546 155.14 35.2077 156.63 36.7053 157.95L34.5853 161.542L42.0453 165.972L44.0569 162.565C45.9319 163.346 47.9154 163.922 49.9791 164.26V168.154H58.6476V164.26C60.2778 163.99 61.8597 163.58 63.3814 163.032L65.2243 166.511L72.877 162.432L70.9418 158.78C72.3711 157.636 73.6881 156.352 74.8525 154.938L78.466 157.25L83.1235 149.917L79.2329 147.433C79.9114 145.665 80.4093 143.805 80.6984 141.876L85.5526 142.037L85.5606 142.021ZM54.3154 149.659C47.1485 149.659 41.3427 143.833 41.3427 136.649C41.3427 129.465 47.1525 123.639 54.3154 123.639C61.4783 123.639 67.2881 129.465 67.2881 136.649C67.2881 143.833 61.4783 149.659 54.3154 149.659Z" fill="#FFF3A1" stroke="#0A3A8C" stroke-width="2" stroke-miterlimit="10"/>
<path d="M207.738 91.3894L212.668 91.019L211.949 81.4757L207.079 81.8421C206.348 79.1684 205.172 76.6758 203.634 74.4571L206.979 70.9418L200.077 64.334L196.756 67.8251C194.287 66.2426 191.513 65.095 188.538 64.4991V59.6992H178.994V64.4991C175.248 65.252 171.815 66.8748 168.912 69.1459L165.274 65.9809L159.019 73.2129L162.689 76.402C161.159 79.1241 160.143 82.1763 159.766 85.4259L154.867 85.7923L155.582 95.3356L160.532 94.9611C161.287 97.5946 162.472 100.047 164.014 102.233L160.557 105.865L167.458 112.469L170.94 108.809C173.369 110.339 176.087 111.446 178.994 112.03V117.104H188.538V112.03C192.215 111.293 195.584 109.715 198.455 107.512L202.261 110.822L208.513 103.594L204.738 100.313C206.28 97.6187 207.32 94.6027 207.734 91.3854L207.738 91.3894ZM183.768 96.0201C179.572 96.0201 176.175 92.6095 176.175 88.4016C176.175 84.1937 179.576 80.7871 183.768 80.7871C187.959 80.7871 191.36 84.1977 191.36 88.4016C191.36 92.6055 187.959 96.0201 183.768 96.0201Z" fill="#B6D0FA" stroke="#0A3A8C" stroke-width="2" stroke-miterlimit="10"/>
<path d="M163.838 152.689C163.838 151.654 163.786 150.627 163.694 149.617L170.511 147.825L167.452 136.115L160.502 137.935C159.036 134.875 157.129 132.068 154.865 129.596L159.325 123.801L149.769 116.404L145.253 122.275C142.33 120.777 139.166 119.694 135.833 119.098V111.637H123.76V119.098C120.596 119.666 117.581 120.669 114.782 122.05L110.35 116.118L100.689 123.375L105.074 129.241C103.407 131.009 101.922 132.95 100.661 135.04L93.8837 132.535L89.7121 143.895L96.361 146.351C95.9756 148.405 95.7628 150.515 95.7628 152.681C95.7628 153.426 95.7989 154.167 95.8431 154.908L89.0938 156.679L92.1532 168.389L98.754 166.658C100.183 169.851 102.091 172.786 104.383 175.367L100.28 180.703L109.836 188.1L113.879 182.849C116.93 184.468 120.259 185.636 123.768 186.264V192.863H135.841V186.264C139.186 185.664 142.358 184.576 145.285 183.075L149.252 188.39L158.912 181.13L154.889 175.746C156.595 173.882 158.089 171.82 159.349 169.609L165.721 171.965L169.889 160.606L163.385 158.206C163.678 156.406 163.834 154.565 163.834 152.685L163.838 152.689ZM129.807 175.496C117.007 175.496 106.632 165.087 106.632 152.254C106.632 139.421 117.007 129.016 129.807 129.016C142.607 129.016 152.982 139.421 152.982 152.254C152.982 165.087 142.603 175.496 129.807 175.496Z" fill="#FFFDF0" stroke="#0A3A8C" stroke-width="2" stroke-miterlimit="10"/>
<path d="M148.091 56.4742C148.091 55.0568 148.019 53.6596 147.894 52.2784L157.209 49.8342L153.034 33.8401L143.542 36.3286C141.543 32.1449 138.933 28.3155 135.837 24.9371L141.932 17.0206L128.879 6.91756L122.712 14.9347C118.717 12.8892 114.397 11.4114 109.848 10.5939V0.402344H93.3577V10.5939C89.0375 11.3671 84.914 12.7402 81.0917 14.6247L75.037 6.52294L61.8394 16.4367L67.8259 24.4498C65.5534 26.8618 63.5218 29.5154 61.7993 32.3744L52.5405 28.9557L46.8432 44.4706L55.9252 47.8249C55.3953 50.6275 55.1102 53.5106 55.1102 56.4742C55.1102 57.493 55.1584 58.5077 55.2226 59.5144L46 61.9345L50.1757 77.9326L59.1895 75.5649C61.1448 79.9258 63.7466 83.9364 66.8784 87.4638L61.2733 94.7481L74.3263 104.855L79.847 97.6836C84.0147 99.8983 88.5597 101.489 93.3537 102.351V111.366H109.844V102.351C114.409 101.533 118.745 100.047 122.74 97.9936L128.16 105.25L141.358 95.336L135.861 87.9792C138.19 85.4303 140.234 82.6197 141.956 79.5996L150.661 82.817L156.354 67.298L147.469 64.0203C147.87 61.564 148.083 59.0473 148.083 56.4823L148.091 56.4742ZM101.605 87.6289C84.1231 87.6289 69.9499 73.4106 69.9499 55.8783C69.9499 38.346 84.1231 24.1317 101.605 24.1317C119.086 24.1317 133.263 38.342 133.263 55.8783C133.263 73.4146 119.086 87.6289 101.605 87.6289Z" fill="#0F4EB8" stroke="#0A3A8C" stroke-width="2" stroke-miterlimit="10"/>
<path d="M258.209 161.019L258.586 149.518L251.632 149.289C251.215 146.901 250.552 144.598 249.685 142.399L256.057 138.892L250.54 128.805L243.759 132.538C242.297 130.814 240.675 129.232 238.917 127.818L242.964 120.957L233.095 115.094L228.915 122.169C226.887 121.428 224.772 120.876 222.587 120.522V112.211H211.116V120.522C209.462 120.792 207.84 121.174 206.27 121.666L202.412 114.385L192.282 119.785L196.032 126.864C194.398 128.064 192.872 129.401 191.467 130.859L184.878 126.647L178.715 136.351L184.922 140.317C183.914 142.443 183.119 144.686 182.549 147.018L175.495 146.784L175.117 158.285L181.662 158.498C181.879 161.059 182.356 163.539 183.087 165.915L177.651 168.907L183.167 178.994L188.218 176.215C189.772 178.37 191.559 180.339 193.546 182.09L190.74 186.842L200.613 192.705L203.275 188.195C205.756 189.23 208.382 189.991 211.116 190.438V195.592H222.587V190.438C224.747 190.083 226.843 189.536 228.851 188.811L231.292 193.418L241.422 188.018L238.86 183.186C240.756 181.672 242.494 179.972 244.04 178.1L248.826 181.16L254.989 171.456L249.838 168.166C250.733 165.823 251.395 163.366 251.781 160.809L258.209 161.019ZM216.85 167.578C209.322 167.578 203.215 161.458 203.215 153.903C203.215 146.349 209.318 140.229 216.85 140.229C224.382 140.229 230.485 146.349 230.485 153.903C230.485 161.458 224.382 167.578 216.85 167.578Z" fill="#FFDC3E" stroke="#0A3A8C" stroke-width="2" stroke-miterlimit="10"/>
<path d="M40.0905 90.4221L43.7884 90.1443L43.2504 82.9848L39.5967 83.2626C39.0466 81.2573 38.1673 79.3889 37.015 77.7219L39.5244 75.0844L34.345 70.1275L31.8556 72.7449C30.0007 71.557 27.9209 70.6953 25.6925 70.2483V66.6484H18.5336V70.2483C15.7231 70.8121 13.1494 72.0321 10.9692 73.7354L8.239 71.3597L3.54538 76.7837L6.2957 79.1755C5.14739 81.2171 4.38453 83.5083 4.10348 85.9444L0.429688 86.2223L0.967707 93.3818L4.68164 93.0999C5.24777 95.077 6.13911 96.9172 7.29144 98.5561L4.6977 101.282L9.87714 106.239L12.491 103.493C14.3138 104.64 16.3494 105.474 18.5336 105.909V109.714H25.6925V105.909C28.4508 105.357 30.9803 104.173 33.1324 102.518L35.9871 105.003L40.6767 99.5789L37.8461 97.1185C39.0024 95.0971 39.7814 92.8341 40.0945 90.4221H40.0905ZM22.1111 98.6688C16.3374 98.6688 11.6558 93.9737 11.6558 88.1833C11.6558 82.3929 16.3374 77.6977 22.1111 77.6977C27.8847 77.6977 32.5663 82.3929 32.5663 88.1833C32.5663 93.9737 27.8847 98.6688 22.1111 98.6688Z" fill="#B6D0FA" stroke="#0A3A8C" stroke-width="2" stroke-miterlimit="10"/>
</g>
<defs>
<clipPath id="clip0_1436_2">
<rect width="259" height="196" fill="white"/>
</clipPath>
</defs>
</svg>
