<svg width="178" height="204" viewBox="0 0 178 204" fill="none" xmlns="http://www.w3.org/2000/svg">
<path d="M173.981 25.7695H26.8298C26.3154 25.7695 25.8984 26.1872 25.8984 26.7023V202.068C25.8984 202.583 26.3154 203.001 26.8298 203.001H173.981C174.495 203.001 174.912 202.583 174.912 202.068V26.7023C174.912 26.1872 174.495 25.7695 173.981 25.7695Z" fill="#0F4EB8" stroke="#0A3A8C" stroke-width="2" stroke-miterlimit="10"/>
<path d="M162.793 14.5742H15.6423C15.1279 14.5742 14.7109 14.9918 14.7109 15.507V190.873C14.7109 191.388 15.1279 191.806 15.6423 191.806H162.793C163.307 191.806 163.724 191.388 163.724 190.873V15.507C163.724 14.9918 163.307 14.5742 162.793 14.5742Z" fill="#FFDC3E" stroke="#0A3A8C" stroke-width="2" stroke-miterlimit="10"/>
<path d="M149.754 1.51562H2.60321C2.08885 1.51562 1.67188 1.93325 1.67188 2.44842V177.814C1.67188 178.33 2.08885 178.747 2.60321 178.747H149.754C150.268 178.747 150.685 178.33 150.685 177.814V2.44842C150.685 1.93325 150.268 1.51562 149.754 1.51562Z" fill="white" stroke="#0A3A8C" stroke-width="2" stroke-miterlimit="10"/>
<path d="M20.2969 112H107.842" stroke="#0A3A8C" stroke-width="2" stroke-linecap="round" stroke-linejoin="round"/>
<path d="M20.2969 133.859H79.9023" stroke="#0A3A8C" stroke-width="2" stroke-linecap="round" stroke-linejoin="round"/>
<path d="M20.2969 24.5391H131.461" stroke="#0A3A8C" stroke-width="2" stroke-linecap="round" stroke-linejoin="round"/>
<path d="M20.2969 46.4023H132.057" stroke="#0A3A8C" stroke-width="2" stroke-linecap="round" stroke-linejoin="round"/>
<path d="M20.2969 68.2695H132.057" stroke="#0A3A8C" stroke-width="2" stroke-linecap="round" stroke-linejoin="round"/>
<path d="M20.2969 90.1328H132.057" stroke="#0A3A8C" stroke-width="2" stroke-linecap="round" stroke-linejoin="round"/>
<path d="M20.2969 155.727H61.2756" stroke="#0A3A8C" stroke-width="2" stroke-linecap="round" stroke-linejoin="round"/>
<path d="M165.234 84.0321L165.401 84.144C168.27 85.2821 171.082 87.1103 172.964 89.3117C174.975 91.6624 176.67 96.0279 176.801 97.7815L103.281 161.212C102.89 161.548 102.313 161.51 101.959 161.119L91.0249 148.395C90.6896 148.003 90.7269 147.425 91.118 147.071L164.097 84.1067C164.414 83.8269 164.88 83.8082 165.215 84.0321H165.234Z" fill="#B6D0FA" stroke="#0A3A8C" stroke-width="2" stroke-miterlimit="10"/>
<path d="M96.5045 154.738L101.981 161.099L92.9654 163.338L83.9688 165.577L87.5078 156.976L91.0469 148.395L96.5045 154.738Z" fill="#FFFDF0" stroke="#0A3A8C" stroke-width="2" stroke-linecap="round" stroke-linejoin="round"/>
<path d="M89.5736 160.689L92.0696 163.562L87.9903 164.55L83.9297 165.558L85.513 161.677L87.0962 157.797L89.5736 160.689Z" fill="#0A3A8C" stroke="#0A3A8C" stroke-width="1.84" stroke-linecap="round" stroke-linejoin="round"/>
</svg>
