<svg width="241" height="205" viewBox="0 0 241 205" fill="none" xmlns="http://www.w3.org/2000/svg">
<path d="M60.5979 176.37H14.9766L23.2714 40.457L51.3851 40.8997L60.5979 176.37Z" fill="#B6D0FA" stroke="#0A3A8C" stroke-width="2.34" stroke-miterlimit="10"/>
<path d="M6.77029 176.422H68.8173C71.9975 176.422 74.5876 179.012 74.5876 182.192V203.159H1V182.192C1 179.012 3.59007 176.422 6.77029 176.422Z" fill="#0F4EB8" stroke="#0A3A8C" stroke-width="2" stroke-miterlimit="10"/>
<path d="M94.6294 11.1476L39.3438 22.4258L43.1676 41.1702L98.4532 29.892L94.6294 11.1476Z" fill="#B6D0FA" stroke="#0A3A8C" stroke-width="2" stroke-miterlimit="10"/>
<path d="M37.7988 50.8476C48.1379 50.8476 56.5194 42.466 56.5194 32.1269C56.5194 21.7877 48.1379 13.4062 37.7988 13.4062C27.4596 13.4062 19.0781 21.7877 19.0781 32.1269C19.0781 42.466 27.4596 50.8476 37.7988 50.8476Z" fill="#FFDC3E" stroke="#0A3A8C" stroke-width="2" stroke-miterlimit="10"/>
<path d="M37.8012 41.2274C42.8259 41.2274 46.8992 37.154 46.8992 32.1293C46.8992 27.1046 42.8259 23.0312 37.8012 23.0312C32.7765 23.0312 28.7031 27.1046 28.7031 32.1293C28.7031 37.154 32.7765 41.2274 37.8012 41.2274Z" fill="#FFFDF0" stroke="#0A3A8C" stroke-width="2" stroke-miterlimit="10"/>
<path d="M123.616 51.9706L109.922 15.0703L91.9866 21.7261L105.68 58.6264L123.616 51.9706Z" fill="#B6D0FA" stroke="#0A3A8C" stroke-width="2" stroke-miterlimit="10"/>
<path d="M100.447 38.4414C110.786 38.4414 119.168 30.0598 119.168 19.7206C119.168 9.3815 110.786 1 100.447 1C90.1081 1 81.7266 9.3815 81.7266 19.7206C81.7266 30.0598 90.1081 38.4414 100.447 38.4414Z" fill="#FFDC3E" stroke="#0A3A8C" stroke-width="2" stroke-miterlimit="10"/>
<path d="M100.45 28.8211C105.474 28.8211 109.548 24.7477 109.548 19.723C109.548 14.6983 105.474 10.625 100.45 10.625C95.4249 10.625 91.3516 14.6983 91.3516 19.723C91.3516 24.7477 95.4249 28.8211 100.45 28.8211Z" fill="#FFFDF0" stroke="#0A3A8C" stroke-width="2" stroke-miterlimit="10"/>
<path d="M153.729 59.0159C153.778 58.229 153.172 57.5406 152.385 57.4914L127.599 55.9833C126.812 55.9341 126.123 56.5405 126.074 57.3274L125.386 68.6549C125.336 69.4418 125.943 70.1303 126.73 70.1794L138.729 70.9171L137.713 87.4903C137.664 88.2772 138.27 88.9657 139.057 89.0148L150.385 89.7033C151.172 89.7525 151.86 89.146 151.909 88.3592L153.008 70.4909C153.008 70.4909 153.04 70.4089 153.04 70.3597L153.729 59.0323V59.0159Z" fill="#B6D0FA" stroke="#0A3A8C" stroke-width="2" stroke-miterlimit="10"/>
<path d="M82.7475 76.1635C82.3377 75.4913 82.5508 74.5897 83.2229 74.1799L104.403 61.1968C105.075 60.7869 105.976 61 106.386 61.6721L112.32 71.3439C112.73 72.0161 112.517 72.9176 111.845 73.3274L101.599 79.6059L110.271 93.753C110.681 94.4251 110.468 95.3267 109.796 95.7365L100.124 101.671C99.4519 102.081 98.5666 101.867 98.1404 101.195L88.7801 85.9335C88.7801 85.9335 88.7145 85.868 88.6817 85.8352L82.7475 76.1635Z" fill="#B6D0FA" stroke="#0A3A8C" stroke-width="2" stroke-miterlimit="10"/>
<path d="M116.768 76.2742C124.717 76.2742 131.161 69.8303 131.161 61.8813C131.161 53.9323 124.717 47.4883 116.768 47.4883C108.819 47.4883 102.375 53.9323 102.375 61.8813C102.375 69.8303 108.819 76.2742 116.768 76.2742Z" fill="#FFDC3E" stroke="#0A3A8C" stroke-width="2" stroke-miterlimit="10"/>
<path d="M116.772 68.8613C120.629 68.8613 123.756 65.7347 123.756 61.8779C123.756 58.0211 120.629 54.8945 116.772 54.8945C112.916 54.8945 109.789 58.0211 109.789 61.8779C109.789 65.7347 112.916 68.8613 116.772 68.8613Z" fill="#FFFDF0" stroke="#0A3A8C" stroke-width="2" stroke-miterlimit="10"/>
<path d="M217.675 158.883H113.17C100.939 158.883 91.0234 168.795 91.0234 181.021C91.0234 193.248 100.939 203.16 113.17 203.16H217.675C229.906 203.16 239.822 193.248 239.822 181.021C239.822 168.795 229.906 158.883 217.675 158.883Z" fill="#0F4EB8" stroke="#0A3A8C" stroke-width="1.88" stroke-miterlimit="10"/>
<path d="M216.045 166.352H114.819C106.915 166.352 100.508 172.759 100.508 180.663V181.4C100.508 189.304 106.915 195.711 114.819 195.711H216.045C223.948 195.711 230.356 189.304 230.356 181.4V180.663C230.356 172.759 223.948 166.352 216.045 166.352Z" fill="#B6D0FA" stroke="#0A3A8C" stroke-width="2" stroke-miterlimit="10"/>
<path d="M165.421 195.354C173.334 195.354 179.748 188.939 179.748 181.027C179.748 173.114 173.334 166.699 165.421 166.699C157.508 166.699 151.094 173.114 151.094 181.027C151.094 188.939 157.508 195.354 165.421 195.354Z" fill="#FFDC3E" stroke="#0A3A8C" stroke-width="2" stroke-miterlimit="10"/>
<path d="M165.419 187.979C169.258 187.979 172.37 184.867 172.37 181.029C172.37 177.19 169.258 174.078 165.419 174.078C161.581 174.078 158.469 177.19 158.469 181.029C158.469 184.867 161.581 187.979 165.419 187.979Z" fill="#FFFDF0" stroke="#0A3A8C" stroke-width="2" stroke-miterlimit="10"/>
<path d="M114.835 195.354C122.748 195.354 129.163 188.939 129.163 181.027C129.163 173.114 122.748 166.699 114.835 166.699C106.922 166.699 100.508 173.114 100.508 181.027C100.508 188.939 106.922 195.354 114.835 195.354Z" fill="#FFDC3E" stroke="#0A3A8C" stroke-width="2" stroke-miterlimit="10"/>
<path d="M114.833 187.979C118.672 187.979 121.784 184.867 121.784 181.029C121.784 177.19 118.672 174.078 114.833 174.078C110.995 174.078 107.883 177.19 107.883 181.029C107.883 184.867 110.995 187.979 114.833 187.979Z" fill="#FFFDF0" stroke="#0A3A8C" stroke-width="2" stroke-miterlimit="10"/>
<path d="M215.999 195.354C223.912 195.354 230.327 188.939 230.327 181.027C230.327 173.114 223.912 166.699 215.999 166.699C208.086 166.699 201.672 173.114 201.672 181.027C201.672 188.939 208.086 195.354 215.999 195.354Z" fill="#FFDC3E" stroke="#0A3A8C" stroke-width="2" stroke-miterlimit="10"/>
<path d="M215.997 187.979C219.836 187.979 222.948 184.867 222.948 181.029C222.948 177.19 219.836 174.078 215.997 174.078C212.159 174.078 209.047 177.19 209.047 181.029C209.047 184.867 212.159 187.979 215.997 187.979Z" fill="#FFFDF0" stroke="#0A3A8C" stroke-width="2" stroke-miterlimit="10"/>
<path d="M150.264 120.129H113.2C112.775 120.129 112.43 120.474 112.43 120.899V157.964C112.43 158.389 112.775 158.734 113.2 158.734H150.264C150.69 158.734 151.035 158.389 151.035 157.964V120.899C151.035 120.474 150.69 120.129 150.264 120.129Z" fill="#FFFDF0" stroke="#0A3A8C" stroke-width="2" stroke-miterlimit="10"/>
<path d="M141.604 120.129H131.965C131.549 120.129 131.211 120.467 131.211 120.883V141.718C131.211 142.135 131.549 142.472 131.965 142.472H141.604C142.02 142.472 142.358 142.135 142.358 141.718V120.883C142.358 120.467 142.02 120.129 141.604 120.129Z" fill="#FFDC3E" stroke="#0A3A8C" stroke-width="2" stroke-miterlimit="10"/>
<path d="M217.655 120.129H180.591C180.165 120.129 179.82 120.474 179.82 120.899V157.964C179.82 158.389 180.165 158.734 180.591 158.734H217.655C218.081 158.734 218.426 158.389 218.426 157.964V120.899C218.426 120.474 218.081 120.129 217.655 120.129Z" fill="#FFFDF0" stroke="#0A3A8C" stroke-width="2" stroke-miterlimit="10"/>
<path d="M208.995 120.129H199.356C198.939 120.129 198.602 120.467 198.602 120.883V141.718C198.602 142.135 198.939 142.472 199.356 142.472H208.995C209.411 142.472 209.749 142.135 209.749 141.718V120.883C209.749 120.467 209.411 120.129 208.995 120.129Z" fill="#FFDC3E" stroke="#0A3A8C" stroke-width="2" stroke-miterlimit="10"/>
</svg>
