<?xml version="1.0" encoding="UTF-8"?>
<svg xmlns="http://www.w3.org/2000/svg" width="500" height="300" xmlns:xlink="http://www.w3.org/1999/xlink" viewBox="0 0 500 300">
  <defs>
    <style>
      .cls-1, .cls-2 {
        fill: #e3b391;
      }

      .cls-1, .cls-2, .cls-3, .cls-4, .cls-5, .cls-6, .cls-7, .cls-8, .cls-9, .cls-10, .cls-11 {
        stroke-linecap: round;
      }

      .cls-1, .cls-2, .cls-6, .cls-8, .cls-9, .cls-11 {
        stroke: #582012;
        stroke-width: 2.47px;
      }

      .cls-1, .cls-12, .cls-6, .cls-9 {
        stroke-miterlimit: 10;
      }

      .cls-13 {
        clip-path: url(#clippath-2);
      }

      .cls-13, .cls-4, .cls-14, .cls-15, .cls-16 {
        fill: none;
      }

      .cls-17, .cls-12 {
        fill: #ffeddb;
      }

      .cls-18 {
        fill: #fff;
      }

      .cls-19 {
        fill: #aac8fa;
      }

      .cls-2, .cls-3, .cls-4, .cls-5, .cls-7, .cls-8, .cls-10, .cls-11 {
        stroke-linejoin: round;
      }

      .cls-20 {
        fill: #8c4901;
        mix-blend-mode: multiply;
        opacity: .15;
      }

      .cls-3, .cls-4 {
        stroke: #0a3a8c;
        stroke-width: 1.22px;
      }

      .cls-3, .cls-21 {
        fill: #0a3a8c;
      }

      .cls-22 {
        fill: #fffdf0;
      }

      .cls-5 {
        fill: #e6ecf0;
      }

      .cls-5, .cls-7, .cls-10 {
        stroke: #414b52;
        stroke-width: .82px;
      }

      .cls-23 {
        fill: #b6d0fa;
      }

      .cls-24 {
        fill: #7eaaf2;
      }

      .cls-12 {
        stroke: #78402e;
      }

      .cls-6, .cls-11 {
        fill: #854a31;
      }

      .cls-14 {
        isolation: isolate;
      }

      .cls-7 {
        fill: #d9e1e6;
      }

      .cls-25 {
        fill: #ff69aa;
      }

      .cls-15 {
        clip-path: url(#clippath);
      }

      .cls-8, .cls-9 {
        fill: #ba7f5d;
      }

      .cls-16 {
        clip-path: url(#clippath-1);
      }

      .cls-10 {
        fill: #aeb4b8;
      }
    </style>
    <clipPath id="clippath">
      <path class="cls-19" d="m139.78,212.23s-44.52-17.87-63.97,12.41c-2.89,4.5.08,19.95,5.19,18.79,2.31-.52,4.34-1.13,5.33-1.54,3.12-1.29,6.27.96,11.28,1.52,4.47.5,21.69-7.93,21.69-7.93"/>
    </clipPath>
    <clipPath id="clippath-1">
      <path class="cls-23" d="m62.11,171.83c8.84,33.92,43.65,86.24,150.99,86.24,85.75,0,107.12-46.17,118.99-46.17s46.76,22.77,46.76,10.2c0-31.31-42.8-34.21-42.8-34.21,0,0-.26-39.58-30.87-39.58-19.26,0,7.92,19.79,7.92,36.15,0,9.5-58.13,12.93-58.13-37.2,0-67.12-57.43-90.76-99.38-90.76-92.34,0-101.43,69.21-101.43,97.18,0,4.84,1.21,23.66,7.95,18.15,16.34-12.11,79.11-1.27,91.95-1.27s18.57-2.94,22.34-17.59"/>
    </clipPath>
    <clipPath id="clippath-2">
      <path class="cls-19" d="m229.93,224.98s-42.48,46.02-77.68,3.75c-2.53-3.04,11.76-6.35,15.28-6.6,3.44-.24,5.3-3.73,9.63-6.52,3.86-2.49,23.45-2.61,23.45-2.61"/>
    </clipPath>
  </defs>
  <g class="cls-14">
    <g id="Layer_1" data-name="Layer 1">
      <g>
        <rect class="cls-1" x="227.72" y="170.41" width="99.59" height="111.51"/>
        <rect class="cls-9" x="327.74" y="182.08" width="125.79" height="99.84"/>
        <rect class="cls-1" x="333.4" y="124.8" width="107.99" height="57.28"/>
        <rect class="cls-9" x="287.55" y="79.76" width="32.98" height="90.65"/>
        <rect class="cls-6" x="257.24" y="98.96" width="30.32" height="71.45"/>
        <rect class="cls-11" x="345.96" y="112.6" width="76.76" height="12.2"/>
        <rect class="cls-6" x="201.12" y="174.56" width="21.26" height="106.54" transform="translate(21.92 -18.56) rotate(5.29)"/>
        <polygon class="cls-8" points="449.53 232 331.74 232 327.74 182.08 453.53 182.08 449.53 232"/>
        <polygon class="cls-8" points="331.74 232 449.53 232 453.53 281.92 327.74 281.92 331.74 232"/>
        <rect class="cls-17" x="280.04" y="193" width="37.3" height="77.81"/>
        <rect class="cls-17" x="339.65" y="131.84" width="50.99" height="3.47"/>
        <polygon class="cls-8" points="308.31 165.41 287.55 170.41 287.55 79.76 308.31 84.76 308.31 165.41"/>
        <polygon class="cls-8" points="299.78 84.76 320.53 79.76 320.53 170.41 299.78 165.41 299.78 84.76"/>
      </g>
      <g>
        <g>
          <path class="cls-19" d="m139.78,212.23s-44.52-17.87-63.97,12.41c-2.89,4.5.08,19.95,5.19,18.79,2.31-.52,4.34-1.13,5.33-1.54,3.12-1.29,6.27.96,11.28,1.52,4.47.5,21.69-7.93,21.69-7.93"/>
          <g class="cls-15">
            <path class="cls-24" d="m102.88,201.9s-9.38,29.46,2.81,45.39c12.18,15.94,24.44-17.96,24.44-17.96l-27.24-27.43Z"/>
          </g>
        </g>
        <path class="cls-21" d="m139.55,212.78c-20.23-7.48-48.39-9.15-61.89,10.9,0,0-.58.87-.58.87-.58.81-.68,1.61-.81,2.61-.32,4.12.56,8.37,1.79,12.3.53,1.86,3.84,10,5.85,5.65.71-1.32.6-3.8,2.41-4.28,1.56-.55,3.28-.32,4.8.07,2.44.61,4.62,1.46,7.08,1.57,4.48-.52,8.75-2.5,12.96-4.13,2.65-1.07,5.27-2.23,7.88-3.39.3-.14.66,0,.8.3.13.29,0,.63-.27.77-5.13,2.63-10.33,5.09-15.82,7.04-1.74.59-3.57,1.21-5.48,1.32-1.15.02-2.32-.25-3.44-.47-2.57-.47-5.39-1.97-7.86-1.18,0,0-.2.07-.2.07,0,0-.06.02-.03.01.17-.06.19-.2.06.07-.39.95-.58,2-1.05,3.04-.7,1.91-2.83,3.21-4.79,1.99-4.96-3.48-7.07-15.17-6.61-20.95.1-1.11.42-2.53,1.12-3.47l.62-.91c10.35-15.49,30.01-18.71,47.21-15.52,5.71,1,11.3,2.48,16.72,4.62.7.32.32,1.39-.45,1.1h0Z"/>
      </g>
      <path class="cls-22" d="m339.81,98.84c19.67,3.78,45.25-3.08,43.39-27.41-1.28-16.79-12.76-36.02-31.13-36.94-20.95-1.05-32.85,19.52-42.81,34.67-6.13,9.32-13.44,18.18-20.76,26.65-8.51,9.85-17.7,15.28-30.76,16.05h-12.2s5.94,35.58,6.33,35.18,11.39-9.41,11.39-9.41c6.75-4.32,14.56-6.93,22.53-7.66,7.65-.69,15.88,2.58,23.26,1.08,3.15-.64,6.77-3.66,4.97-7.25,1.01,1.72,2.86,2.83,4.8,3.31,5.31,1.33,13.57.75,17.07-4.06,3.4-4.68-1.42-13.47,3.75-16.71l10.64-6.13"/>
      <path class="cls-22" d="m257.04,101.6c-.47-3.26,3.62-4.38,6.06-4.52,3.32-.19,6.32-.53,9.33-2.07,3.2-1.63,6.2-4.68,4.24-8.44-.26-.5-2.04-3.24-2.81-2.59,3.6-3.07,8.81-4.11,10.09-9.28.84-3.42-3.04-14.93-8.26-12.38,7.84-3.83,16.32-8.32,19.57-16.42,2.62-6.52.98-14.45-3.76-19.65-9.42-10.34-25.92-5.96-36.4.36-9,5.43-11.81,14.84-12.89,24.71-1.24,11.37-1.46,22.93-2.21,34.35-1.05,8.83-4.18,6.45-7.52,2.94l5.33,37.63s37.51-3.1,28.37-8.13c-9.14-5.03-9.14-16.51-9.14-16.51Z"/>
      <g>
        <path class="cls-23" d="m62.11,171.83c8.84,33.92,43.65,86.24,150.99,86.24,85.75,0,107.12-46.17,118.99-46.17s46.76,22.77,46.76,10.2c0-31.31-42.8-34.21-42.8-34.21,0,0-.26-39.58-30.87-39.58-19.26,0,7.92,19.79,7.92,36.15,0,9.5-58.13,12.93-58.13-37.2,0-67.12-57.43-90.76-99.38-90.76-92.34,0-101.43,69.21-101.43,97.18,0,4.84,1.21,23.66,7.95,18.15,16.34-12.11,79.11-1.27,91.95-1.27s18.57-2.94,22.34-17.59"/>
        <g class="cls-16">
          <path class="cls-19" d="m376.32,210.02s5.23,20.68-27.75.88c-32.98-19.8-51.32,48.35-108.57-21.12-21.59-26.2,9.37-95.51-108.3-63.54-81.53,22.15-84.96-45.95-88.12-11.92-3.17,34.03-32.45,72.52,43.01,78.21,75.46,5.69,100.13,61.81,171.17,64.62,71.04,2.81,129.61-4.15,128.82-29.56-.79-25.41-10.25-17.57-10.25-17.57Z"/>
          <path class="cls-24" d="m226.21,225.36c20.61,13.54,49.92,15.42,88.05-.85,0,0-55.65,50.23-77.81,27.01-8.57-8.98-21.02-17.81-22.05-21.73-1.64-6.21,11.82-4.43,11.82-4.43Z"/>
          <path class="cls-24" d="m54.15,153.68c2.09,9.19,2.21,9.81,7.95,8.71,5.75-1.1,28.61-7.43,56.58-3.21,29.84,4.5,39.44,7.48,46.28,5.19,6.84-2.29,10.15-7.08,10.15-7.08,0,0-6.5,27.22-40.39,23.39-33.89-3.83-74.48,15.58-80.57,5.42-6.09-10.17,0-32.42,0-32.42Z"/>
        </g>
      </g>
      <path class="cls-18" d="m314.25,224.51c-3.11,2.6-6.67,5.43-10.77,8.3-6.67,4.67-14.79,9.48-24.83,13.61-16.2,6.68-37.42,11.65-65.56,11.65-67.16,0-105.92-20.49-127.7-44.13h0c-13.03-14.15-19.98-29.43-23.29-42.12,16.34-12.12,79.11-1.27,91.95-1.27,9.61,0,15.23-1.65,19.04-8.6,3.83,15.34,12.04,32.97,23.84,48.05,15.52,19.85,37.26,35.29,63.44,35.29,12.98,0,27.06-3.8,42.01-12.74,3.89-2.34,7.85-5.01,11.86-8.07Z"/>
      <path class="cls-22" d="m303.49,232.81c-6.67,4.67-14.79,9.48-24.83,13.61-16.2,6.68-37.42,11.65-65.56,11.65-67.16,0-105.92-20.49-127.7-44.13h0s28.89-9.05,60.56,6.61c31.66,15.66,50.99-10.54,50.99-10.54,15.52,19.85,37.26,35.29,63.44,35.29,12.98,0,27.06-3.8,42.01-12.74l1.09.23Z"/>
      <path class="cls-21" d="m257.72,111.43c13.02-.8,23.29-7.54,31.18-17.62,6.37-7.66,12.66-15.42,18.17-23.71,11.82-18.54,26.08-43.17,52.07-36.11,15.69,5.17,24.5,21.75,25.88,37.41,1,11.25-4.73,21.34-15.16,25.82-9.47,4.21-20.24,4.46-30.14,2.05-.52-.14-.36-.91.16-.85,4.93.63,9.9.69,14.77.08,14.89-1.68,28.24-10.26,26.73-26.83-1.19-13.9-8.79-28.98-22.46-34.03-9-3.32-19.22-.81-26.62,5.15-11.78,9.22-18.51,23.19-27.48,34.91-4.54,6.03-9.39,11.79-14.38,17.43-4.93,5.75-10.78,11.01-17.86,13.98-4.68,2.06-9.77,2.94-14.8,3.18-.24.01-.44-.17-.45-.41-.01-.23.17-.43.4-.45h0Z"/>
      <path class="cls-21" d="m339.91,106.74c-1.16,1.23-1.44,2.63-1.45,4.19.05,3.59,1.21,7.1.03,10.92-.65,2.06-2.26,3.77-4.02,4.94-5.38,3.5-17.83,3.65-20.85-2.75-.02,0,.84-.46.84-.46,1.7,2.39.22,5.75-2.09,7.21-2.16,1.57-4.93,1.84-7.49,1.93-4.9.05-9.63-1.12-14.4-1.5-9.37-.62-18.8,2.29-26.95,6.81-.23.13-.53.05-.66-.18-.12-.22-.05-.48.14-.62,7.97-5.53,17.85-8.94,27.64-8.5,4.79.3,9.49,1.38,14.22,1.44,2.17-.05,4.46-.02,6.36-1.14,1.85-1,3.16-2.85,2.38-5.01-.19-.5.53-.88.84-.46,3.64,4.73,17.43,3.21,20.21-1.95,2.22-4.62-1.33-12.94,4.75-15.67.48-.21.93.45.51.81h0Z"/>
      <path class="cls-21" d="m239.55,85.64l.56-18.74c.48-9.39.34-19.12,3.53-28.17,3.35-9.93,11.91-15.37,21.5-18.45,13.48-4.62,28.66-1.21,32.58,14.05,3.64,15.19-9.11,24.15-21.82,28.39-.61.33-1.05-.58-.4-.82,5.69-2.89,9.48,6.85,9.62,11.22.15,6.51-6.71,8.39-10.95,11.21,0,0-.6-.7-.59-.7.92-.66,1.8.33,2.38.92,1.57,1.6,2.6,4.06,1.71,6.27-1.13,2.87-3.84,4.5-6.54,5.56-2.68,1.04-5.57,1.25-8.27,1.36-2.23.21-5.63.98-5.37,3.8.03.25-.16.47-.41.5-.24.02-.46-.14-.5-.38-.57-3.42,3.42-4.97,6.16-5.2,2.75-.21,5.41-.47,7.86-1.43,5.19-2.01,8.45-6.27,3.55-10.7,0,0-.59-.7-.59-.7,3.11-3.17,8.01-4.37,9.26-8.84.19-.52.2-1.01.17-1.58-.36-3.39-1.57-7.4-4.1-9.84-.86-.76-1.9-1.05-3.01-.65,0,0-.4-.82-.4-.82,6.5-4.2,13.29-7.85,17.04-14.46,3.61-6.13,2.51-14.47-2.15-19.76-8.38-9.34-22.77-5.96-32.61-.78-5.37,2.61-9.52,7.16-11.63,12.79-3.24,8.66-3.34,18.13-4.25,27.31-.47,6.22-.84,12.47-1.44,18.7-.03.55-.94.54-.91-.06h0Z"/>
      <ellipse class="cls-21" cx="190.99" cy="159.02" rx="7.56" ry="8.46"/>
      <circle class="cls-18" cx="192.45" cy="157.29" r="4.27"/>
      <circle class="cls-18" cx="188.18" cy="163.21" r="1.66"/>
      <ellipse class="cls-25" cx="209.25" cy="171.71" rx="8.13" ry="4.22"/>
      <g>
        <path class="cls-21" d="m62.69,171.68c15.57,55.71,70.99,79.66,124.43,83.77,44.29,4.05,91-1.67,125.71-31.77,3.44-2.83,6.75-5.83,10.28-8.71,2.03-1.55,4.22-3.4,6.93-4.22,2.11-.69,4.53-.15,6.58.34,4.52,1.19,8.69,2.94,12.84,4.69,4.14,1.76,8.23,3.59,12.36,5.25,3.99,1.54,8.24,3.31,12.44,3.59,4.03.24,3.39-2.42,3.2-5.61-.47-5.38-2.61-10.51-6.07-14.67-8.78-10.08-22.55-14.22-35.43-15.84-.31-.03-.54-.3-.54-.61-.47-9.84-2.85-20.05-8.66-28.15-4.32-6.04-11.21-9.98-18.62-10.52-2.78-.04-6.78-.71-8.77,1.53-1.63,3.34,5.09,11.49,6.92,14.76,3.61,5.76,7.47,11.83,7.69,18.92-.32,4.05-5.54,5.23-8.72,5.99-10.17,1.82-20.85.04-30.05-4.63-12.73-6.29-20.27-19.53-21.16-33.44-.37-4.84-.17-10.27-.72-15.1-4.25-53.36-53.24-81.46-103.15-79.36-33.83.68-67.09,13.31-83.2,44.87-8.93,17.44-12.66,38.43-11,57.92.26,2.05,1.66,13.46,5.19,10.01,16.32-11.23,64.02-3.92,84.42-2.25,7.82.57,18.07,2.09,24.04-3.87.8-.78,1.56-1.83,2.16-2.77,1.73-2.69,2.89-5.83,3.97-8.98.25-.73,1.32-.45,1.18.3-2.84,16.13-11.12,19.87-26.57,18.81-15.1-1.31-30.13-3.3-45.19-4.02-9.98-.46-20.03-.68-29.9.82-4.01.67-7.98,1.56-11.38,3.63,0,0-.95.6-.95.6-.4.29-.79.59-1.33.84-7.92,3.13-8.51-13.21-8.88-17.94-.71-48.45,22.65-87.65,72.09-97.69,47.45-10.09,106.04,5.13,125.04,54.05,3.68,9.54,5.57,19.71,6.01,29.9.12,2.98.09,7.12.33,10.04.79,13.19,7.93,25.81,19.92,31.81,8.69,4.5,19.05,6.29,28.73,4.61,2.49-.56,6.83-1.53,7.27-4.15-.17-6.56-3.9-12.52-7.3-18.01-2.59-4.39-6.1-8.38-7.32-13.54-.87-6.87,9.07-5.38,13.3-4.84,3.4.61,6.7,1.87,9.6,3.75,11.68,7.78,15.57,22.78,16.19,36.08,0,.03-.57-.6-.57-.6,4.55.35,9,1.14,13.38,2.32,8.75,2.39,17.47,6.4,23.58,13.33,3.84,4.4,6.24,10.02,6.82,15.83.58,4.74.16,8.46-5.66,8.38-4.78-.26-9.01-2-13.37-3.6-4.22-1.63-8.34-3.41-12.48-5.11-5.35-2.04-10.59-4.64-16.24-5.03-2.74.28-4.81,2.19-7.09,3.92-3.4,2.8-6.74,5.85-10.21,8.73-35.5,31.01-82.64,36.56-127.96,32.36-35.66-3.2-72.6-14.18-98.55-39.98-12.78-12.79-22.35-28.89-26.79-46.44-.08-.33.12-.66.44-.74.32-.08.65.11.74.43h0Z"/>
        <path class="cls-21" d="m173.68,161.82c10.18,36.05,36.57,73.71,75.26,81.29,17.22,3.2,34.95-1.51,50.13-9.78,1.6-.71,3.5-2.09,5.04-2.93,1.4-.82,3.62-2.14,4.94-3.1.01-.02,4.86-3.27,4.87-3.28.28-.19.66-.11.84.16.18.27.12.62-.13.82-6.18,4.86-12.74,9.31-19.81,12.89-40.4,20.28-78.72,2.29-102.81-32.98-8.92-12.99-15.66-27.51-19.51-42.8-.08-.33.12-.66.44-.74.33-.08.65.12.74.44h0Z"/>
        <circle class="cls-3" cx="91.63" cy="149.81" r="1.71"/>
        <ellipse class="cls-4" cx="209.25" cy="171.71" rx="8.13" ry="4.22"/>
        <path class="cls-4" d="m173.09,199.75c20.11,36.97,67.34,59.1,100.56,48.62"/>
        <path class="cls-4" d="m164.96,177.78c1.4,6.76,3.7,13.23,6.74,19.31"/>
        <path class="cls-4" d="m184.75,232.82c17.35,13.92,41.7,21.55,77.01,19.31"/>
        <path class="cls-4" d="m157.94,197.09c6.1,13.06,13.91,24.6,24.4,33.71"/>
        <path class="cls-4" d="m149.27,174.35c1.25,4,2.59,7.93,4.04,11.75"/>
        <path class="cls-4" d="m154.59,225.36c16.52,21.32,44.3,34.12,95.03,29.53"/>
        <path class="cls-4" d="m133.53,175.93c3.82,15.87,8.78,30.88,16.88,43.51"/>
        <path class="cls-4" d="m129.54,213c14.47,27.02,39.22,43.86,79.71,45.05"/>
        <path class="cls-4" d="m117.12,177.78c2.33,10.69,5.47,20.59,9.58,29.51"/>
        <path class="cls-4" d="m100.87,200.85c11.73,29.03,35.09,47.82,72.22,54.48"/>
        <path class="cls-4" d="m93.35,171.71c.65,4.65,1.49,9.14,2.53,13.45"/>
        <path class="cls-4" d="m76.65,180.68c6.24,30.33,26.25,51.15,56.88,64.64"/>
        <path class="cls-4" d="m166.79,193.74c4.31,11.96,20.5,34.22,36.85,42.91"/>
        <path class="cls-4" d="m167.67,234.99c10.2,8.23,23.71,14.08,43.29,17.9"/>
        <path class="cls-4" d="m128.01,204.56c13.19,30.43,36.93,47.43,75.63,53.52"/>
        <path class="cls-4" d="m118.68,194.71c13.36,40.56,38.2,58.87,70.63,62.45"/>
        <path class="cls-4" d="m90.72,208.03c8.65,14.88,31.19,30.3,47.76,39.12"/>
        <path class="cls-4" d="m96.7,175.93c2.46,14.38,7.56,29.95,16.89,42.35"/>
        <path class="cls-4" d="m114.6,220.56c12.6,14.9,28.61,26.64,50.36,33.06"/>
        <circle class="cls-3" cx="66.8" cy="151.17" r="1.71"/>
        <circle class="cls-3" cx="78.3" cy="149.45" r="1.71"/>
      </g>
      <path class="cls-21" d="m203.96,143.2c-3.54-.92-7.17-1.69-10.84-1.43-2.64.18-5.23.82-7.5,2.13-.74.48-1.58.84-2.76.8-.32,0-.57-.29-.52-.6.51-3.6,7.77-4.76,10.71-4.75,3,.01,5.87.73,8.63,1.79.89.4,1.76.82,2.62,1.24.22.11.31.37.2.59-.1.2-.33.29-.53.23h0Z"/>
      <path class="cls-21" d="m185.35,153.56c3.78-5.93,11.8-2.42,16,1.19.38.29-.06.89-.45.62-4.22-2.74-11.03-6.47-14.91-1.37-.28.39-.9-.03-.64-.43h0Z"/>
      <path class="cls-20" d="m165.76,220.98c-16.65,3.07-19.5,5.45-18.12,8.1,1.38,2.64,11.13,13.63,14.62,14.37,3.04-7.43,3.6-15.09,3.5-22.47Z"/>
      <g>
        <polygon class="cls-7" points="149.36 179.73 82.36 179.73 79.13 164.86 146.12 164.86 149.36 179.73"/>
        <polygon class="cls-10" points="147.78 181.53 80.78 181.53 77.55 166.65 144.55 166.65 147.78 181.53"/>
        <polygon class="cls-5" points="77.55 166.65 79.13 164.86 146.12 164.86 144.55 166.65 77.55 166.65"/>
        <path class="cls-12" d="m158.36,216.29s30.96,34.09,33.53,33.51-8.67,22.88-19.51,19.55c-10.84-3.33-14.02-53.06-14.02-53.06Z"/>
        <path class="cls-12" d="m163.61,229.23s23.89,27.96,26.79,28.97-10.7,10.41-10.7,10.41l-16.09-39.38Z"/>
        <polygon class="cls-11" points="177.63 274.07 93.8 274.07 70.12 174.09 153.94 174.09 177.63 274.07"/>
        <polygon class="cls-2" points="70.12 174.09 74.54 170.5 158.36 170.5 153.94 174.09 70.12 174.09"/>
        <polygon class="cls-8" points="153.94 174.09 158.36 170.5 182.05 270.48 177.63 274.07 153.94 174.09"/>
      </g>
      <g>
        <g>
          <path class="cls-19" d="m229.93,224.98s-42.48,46.02-77.68,3.75c-2.53-3.04,11.76-6.35,15.28-6.6,3.44-.24,5.3-3.73,9.63-6.52,3.86-2.49,23.45-2.61,23.45-2.61"/>
          <g class="cls-13">
            <path class="cls-24" d="m224.79,229.82c-29.51,16.08-54.48,14.83-74.86-3.89,0,0,24.27,47.08,34.98,46.75,10.71-.33,39.88-42.86,39.88-42.86"/>
            <path class="cls-23" d="m197.47,216.56c-1.87-2.86-17.03-.13-19.36,1.36-1.68,1.07-6.53,5.9-8.65,6.52-1.07.31-11.46.08-11.23,3,.97,12.32,45.98-.55,39.24-10.88Z"/>
          </g>
        </g>
        <path class="cls-21" d="m230.38,225.39c-12.43,12.82-29.49,23.53-47.98,22.12-12.36-1.07-23.23-8.52-30.88-17.93-1.9-2.04.51-4.07,2.35-4.88,4.27-1.94,8.63-2.98,13.29-3.59,3.18-.04,5.78-3.97,8.72-5.78,1.92-1.44,4.5-1.75,6.75-2.1,3.01-.39,6-.57,9-.69,2.99-.13,5.98-.17,8.98-.14.34,0,.61.28.6.61,0,.33-.27.6-.6.6-7.31.39-14.88.37-21.91,2.32-3.93,1.49-6.3,6.52-10.76,7.19-3.02.35-6.12,1.09-9.09,2-1.92.65-4.08,1.3-5.56,2.58-.17.17-.25.34-.23.3.02-.05-.09-.15.17.15,3.78,4.49,8.15,8.48,13.07,11.58,12.8,8.15,28.52,6.93,41.67.24,7.92-3.91,15.21-9.22,21.51-15.4.5-.58,1.46.22.89.83h0Z"/>
      </g>
      <g>
        <path class="cls-23" d="m80.11,247.41c7.8,1.9,19-7.19,17.81-10.86-1.19-3.67-17.42-15.49-21.47-11.96-4.06,3.53,2.41,22.51,3.67,22.82Z"/>
        <path class="cls-21" d="m80.32,246.54c5.84,1.27,13.5-3.07,16.64-8,.83-1.38.33-2.32-.66-3.43-2.46-2.81-5.54-5.03-8.71-7-2.93-1.61-6.58-3.51-9.93-2.92-1.57.76-1.35,3.12-1.36,4.84.45,5.59,1.76,11.54,4.27,16.62,0,0,.02.02,0,0-.07-.05-.16-.1-.25-.12h0Zm-.42,1.74c-.41-.1-.72-.46-.93-.78-1.5-2.55-2.35-5.4-3.22-8.2-3.87-13.22-2.18-22.14,12.42-12.13,3.22,2.08,6.36,4.37,8.99,7.19.51.61,1.05,1.18,1.36,2.12.25,1.01-.09,1.89-.43,2.63-3.32,5.67-11.53,10.49-18.19,9.17h0Z"/>
      </g>
    </g>
  </g>
</svg>