<?xml version="1.0" encoding="UTF-8"?>
<svg id="Layer_1" data-name="Layer 1" xmlns="http://www.w3.org/2000/svg" xmlns:xlink="http://www.w3.org/1999/xlink" viewBox="0 0 44.49 44.49">
  <defs>
    <style>
      .cls-1 {
        fill: url(#linear-gradient-2);
      }

      .cls-2 {
        fill: url(#linear-gradient-17);
      }

      .cls-3 {
        fill: url(#linear-gradient-15);
      }

      .cls-4 {
        fill: url(#linear-gradient-18);
      }

      .cls-5 {
        fill: url(#linear-gradient-28);
      }

      .cls-6 {
        fill: url(#linear-gradient-14);
      }

      .cls-7 {
        fill: url(#linear-gradient-20);
      }

      .cls-8 {
        fill: url(#linear-gradient-6);
      }

      .cls-9 {
        fill: url(#linear-gradient-11);
      }

      .cls-10 {
        fill: url(#linear-gradient-10);
      }

      .cls-11 {
        fill: url(#linear-gradient-16);
      }

      .cls-12 {
        fill: url(#linear-gradient-21);
      }

      .cls-13 {
        fill: url(#linear-gradient-25);
      }

      .cls-14 {
        fill: url(#linear-gradient-5);
      }

      .cls-15 {
        fill: url(#linear-gradient-7);
      }

      .cls-16 {
        fill: url(#linear-gradient-24);
      }

      .cls-17 {
        fill: url(#linear-gradient-9);
      }

      .cls-18 {
        fill: url(#linear-gradient-22);
      }

      .cls-19 {
        fill: url(#linear-gradient-3);
      }

      .cls-20 {
        fill: url(#linear-gradient);
      }

      .cls-21 {
        fill: url(#linear-gradient-27);
      }

      .cls-22 {
        fill: url(#linear-gradient-29);
      }

      .cls-23 {
        fill: url(#linear-gradient-23);
      }

      .cls-24 {
        fill: url(#linear-gradient-19);
      }

      .cls-25 {
        fill: url(#linear-gradient-4);
      }

      .cls-26 {
        fill: url(#linear-gradient-8);
      }

      .cls-27 {
        fill: url(#linear-gradient-12);
      }

      .cls-28 {
        fill: url(#linear-gradient-13);
      }

      .cls-29 {
        fill: url(#linear-gradient-26);
      }
    </style>
    <linearGradient id="linear-gradient" x1="4.89" y1="4.89" x2="52.46" y2="52.46" gradientUnits="userSpaceOnUse">
      <stop offset="0" stop-color="#f7bf4d"/>
      <stop offset=".35" stop-color="#f7eab7"/>
      <stop offset=".41" stop-color="#f6e6af"/>
      <stop offset=".5" stop-color="#f4dc9b"/>
      <stop offset=".6" stop-color="#f2cb79"/>
      <stop offset=".72" stop-color="#eeb44b"/>
      <stop offset=".77" stop-color="#edab39"/>
      <stop offset="1" stop-color="#fcd079"/>
    </linearGradient>
    <linearGradient id="linear-gradient-2" x1="10.07" y1="2.17" x2="42.95" y2="35.05" gradientUnits="userSpaceOnUse">
      <stop offset=".14" stop-color="#f7bf4d"/>
      <stop offset=".15" stop-color="#f7c459"/>
      <stop offset=".19" stop-color="#f7d481"/>
      <stop offset=".23" stop-color="#f7e09e"/>
      <stop offset=".26" stop-color="#f7e7b0"/>
      <stop offset=".29" stop-color="#f7eab7"/>
      <stop offset=".46" stop-color="#edae40"/>
      <stop offset=".47" stop-color="#edab39"/>
      <stop offset=".62" stop-color="#fcd079"/>
      <stop offset=".66" stop-color="#f6c872"/>
      <stop offset=".71" stop-color="#e8b560"/>
      <stop offset=".78" stop-color="#d09543"/>
      <stop offset=".85" stop-color="#b0681a"/>
      <stop offset=".86" stop-color="#ab6214"/>
      <stop offset=".94" stop-color="#bf7521"/>
      <stop offset="1" stop-color="#c97f28"/>
    </linearGradient>
    <linearGradient id="linear-gradient-3" x1="1.22" y1="11.03" x2="34.09" y2="43.91" xlink:href="#linear-gradient-2"/>
    <linearGradient id="linear-gradient-4" x1="14.64" y1="-2.39" x2="47.52" y2="30.48" xlink:href="#linear-gradient-2"/>
    <linearGradient id="linear-gradient-5" x1="6.13" y1="6.12" x2="39.01" y2="39" xlink:href="#linear-gradient-2"/>
    <linearGradient id="linear-gradient-6" x1="15.89" y1="-3.64" x2="48.77" y2="29.23" xlink:href="#linear-gradient-2"/>
    <linearGradient id="linear-gradient-7" x1="5.17" y1="33.8" x2="7.03" y2="33.8" gradientUnits="userSpaceOnUse">
      <stop offset="0" stop-color="#ab6214"/>
      <stop offset=".06" stop-color="#ae6516"/>
      <stop offset=".12" stop-color="#b7711d"/>
      <stop offset=".18" stop-color="#c78529"/>
      <stop offset=".24" stop-color="#dea03a"/>
      <stop offset=".3" stop-color="#f7bf4d"/>
      <stop offset=".3" stop-color="#f2ba4a"/>
      <stop offset=".32" stop-color="#c48630"/>
      <stop offset=".34" stop-color="#9f5e1b"/>
      <stop offset=".36" stop-color="#85410c"/>
      <stop offset=".38" stop-color="#752f03"/>
      <stop offset=".39" stop-color="#702900"/>
      <stop offset=".43" stop-color="#772f02"/>
      <stop offset=".47" stop-color="#8a4209"/>
      <stop offset=".52" stop-color="#aa6113"/>
      <stop offset=".52" stop-color="#ab6214"/>
      <stop offset=".8" stop-color="#bf7521"/>
      <stop offset="1" stop-color="#c97f28"/>
    </linearGradient>
    <linearGradient id="linear-gradient-8" x1="6.91" y1="35.95" x2="10.49" y2="35.95" xlink:href="#linear-gradient-7"/>
    <linearGradient id="linear-gradient-9" x1="-9.13" y1="18.34" x2="29.47" y2="56.95" xlink:href="#linear-gradient-7"/>
    <linearGradient id="linear-gradient-10" x1="-8.87" y1="18.08" x2="29.73" y2="56.69" xlink:href="#linear-gradient-7"/>
    <linearGradient id="linear-gradient-11" x1="14.7" y1="-5.49" x2="53.3" y2="33.12" xlink:href="#linear-gradient-7"/>
    <linearGradient id="linear-gradient-12" x1="11.06" y1="-1.85" x2="49.66" y2="36.75" xlink:href="#linear-gradient-7"/>
    <linearGradient id="linear-gradient-13" x1="13.01" y1="-3.8" x2="51.62" y2="34.8" xlink:href="#linear-gradient-7"/>
    <linearGradient id="linear-gradient-14" x1="-3.76" y1="12.98" x2="34.84" y2="51.58" xlink:href="#linear-gradient-7"/>
    <linearGradient id="linear-gradient-15" x1="-3.76" y1="12.98" x2="34.84" y2="51.58" xlink:href="#linear-gradient-7"/>
    <linearGradient id="linear-gradient-16" x1="-2.92" y1="12.13" x2="35.68" y2="50.74" xlink:href="#linear-gradient-7"/>
    <linearGradient id="linear-gradient-17" x1="-2.92" y1="12.13" x2="35.68" y2="50.74" xlink:href="#linear-gradient-7"/>
    <linearGradient id="linear-gradient-18" x1="2.21" y1="7" x2="40.81" y2="45.61" xlink:href="#linear-gradient-7"/>
    <linearGradient id="linear-gradient-19" x1="-3.2" y1="12.41" x2="35.4" y2="51.01" xlink:href="#linear-gradient-7"/>
    <linearGradient id="linear-gradient-20" x1="1.12" y1="8.09" x2="39.72" y2="46.7" xlink:href="#linear-gradient-7"/>
    <linearGradient id="linear-gradient-21" x1="2.09" y1="7.12" x2="40.7" y2="45.72" xlink:href="#linear-gradient-7"/>
    <linearGradient id="linear-gradient-22" x1="-2.88" y1="12.09" x2="35.73" y2="50.69" xlink:href="#linear-gradient-7"/>
    <linearGradient id="linear-gradient-23" x1="-1.94" y1="11.15" x2="36.66" y2="49.75" xlink:href="#linear-gradient-7"/>
    <linearGradient id="linear-gradient-24" x1="-5.74" y1="14.95" x2="32.87" y2="53.55" xlink:href="#linear-gradient-7"/>
    <linearGradient id="linear-gradient-25" x1="-3.61" y1="12.82" x2="34.99" y2="51.42" xlink:href="#linear-gradient-7"/>
    <linearGradient id="linear-gradient-26" x1="-4.57" y1="13.78" x2="34.03" y2="52.39" xlink:href="#linear-gradient-7"/>
    <linearGradient id="linear-gradient-27" x1="-4.57" y1="13.78" x2="34.03" y2="52.39" xlink:href="#linear-gradient-7"/>
    <linearGradient id="linear-gradient-28" x1="-1.28" y1="10.49" x2="37.32" y2="49.1" xlink:href="#linear-gradient-7"/>
    <linearGradient id="linear-gradient-29" x1="3.52" y1="7.39" x2="36.49" y2="44.69" xlink:href="#linear-gradient-7"/>
  </defs>
  <circle class="cls-20" cx="22.24" cy="22.24" r="22.24"/>
  <path class="cls-1" d="m4.72,15.72s-.06,0-.09-.02c-.13-.05-.19-.19-.14-.32C7.3,8.11,14.44,3.22,22.24,3.22c5.6,0,10.89,2.45,14.51,6.72.09.1.08.26-.03.35-.1.09-.26.08-.35-.03-3.53-4.16-8.68-6.54-14.13-6.54-7.6,0-14.55,4.76-17.29,11.85-.04.1-.13.16-.23.16Z"/>
  <path class="cls-19" d="m22.24,41.27c-4.86,0-9.48-1.83-13.02-5.15-.1-.09-.11-.25-.01-.35.1-.1.25-.1.35-.01,3.45,3.24,7.95,5.02,12.68,5.02,6.6,0,12.76-3.56,16.06-9.28.07-.12.22-.16.34-.09.12.07.16.22.09.34-3.39,5.88-9.71,9.53-16.49,9.53Z"/>
  <path class="cls-25" d="m39.8,29.17s-.06,0-.09-.02c-.13-.05-.19-.19-.14-.32.8-2.1,1.21-4.32,1.21-6.59,0-1.71-.23-3.41-.69-5.04-.04-.13.04-.27.17-.31.14-.03.27.04.31.17.47,1.68.71,3.42.71,5.18,0,2.33-.42,4.61-1.24,6.76-.04.1-.13.16-.23.16Z"/>
  <path class="cls-14" d="m22.24,44.49C9.98,44.49,0,34.51,0,22.24S9.98,0,22.24,0c6.96,0,13.4,3.17,17.65,8.7l-.79.61C35.04,4.03,28.9,1,22.24,1,10.53,1,1,10.53,1,22.24s9.53,21.24,21.24,21.24c7.66,0,14.76-4.15,18.52-10.83l.87.49c-3.94,7-11.37,11.34-19.39,11.34Z"/>
  <path class="cls-8" d="m42.28,31.21c-.07,0-.13-.01-.19-.04-.25-.11-.37-.4-.27-.66,1.11-2.62,1.67-5.4,1.67-8.27,0-2.29-.36-4.54-1.08-6.69-.09-.26.05-.54.32-.63.26-.09.54.06.63.32.75,2.25,1.13,4.61,1.13,7,0,3-.59,5.92-1.75,8.66-.08.19-.27.31-.46.31Z"/>
  <g>
    <path class="cls-15" d="m7.03,32.68c-.79.61-1.4,1.4-1.7,2.39-.06-.07-.12-.15-.16-.22.15-.46.37-.89.66-1.28.3-.4.65-.74,1.03-1.04.06.05.11.1.17.15Z"/>
    <path class="cls-26" d="m10.49,34.88c-.46.52-.93,1.03-1.46,1.5-.19.15-.38.32-.61.41-.15.05-.29.07-.43.1-.34.05-.69.03-.91.2-.06-.06-.12-.12-.17-.18.14-.12.32-.17.48-.2.36-.06.75-.04,1.06-.2.46-.28.85-.68,1.25-1.05.22-.22.43-.43.64-.65.05.02.1.05.15.07Z"/>
    <path class="cls-17" d="m7.24,32.96c-.86.66-1.41,1.48-1.64,2.44-.1-.11-.19-.22-.27-.33-.06-.07-.12-.15-.16-.22-.09-.11-.18-.23-.26-.35.17-.41.38-.79.64-1.14.31-.41.68-.78,1.1-1.1.13-.11.32-.1.44.01l.17.15c.08.06.12.16.12.27s-.05.21-.14.27Z"/>
    <path class="cls-10" d="m10.84,34.81c.02.11-.01.22-.08.3-.42.47-.92,1.03-1.5,1.53l-.08.06c-.18.15-.38.32-.64.42-.16.05-.31.08-.47.11-.12.02-.23.03-.32.04-.16.02-.31.03-.41.08-.09-.08-.18-.17-.26-.26-.06-.06-.12-.12-.17-.18-.09-.08-.17-.16-.24-.25.16-.15.41-.26.68-.3.1,0,.22-.03.34-.04.23-.02.45-.04.6-.12.34-.21.67-.52.99-.83l.18-.17c.21-.2.42-.42.63-.63.11-.11.27-.15.41-.07l.14.06c.1.05.17.14.2.25Z"/>
  </g>
  <g>
    <path class="cls-9" d="m27.37,19.04c-.19,0-.4-.19-.41-.38,0-.23.16-.41.37-.43,0,0,0,0,.01,0,1.76-.1,2.95-1.18,3.63-2.06.56-.67,1.19-1.45,1.73-2.19.34-.46.65-.95.96-1.43.71-1.11,1.45-2.26,2.53-3.12,1.08-.88,2.53-1.22,3.79-.87,2.24.63,3.42,2.96,3.61,5,.14,1.57-.68,2.97-2.1,3.57-1.16.52-2.57.61-3.98.27-.09-.02-.21-.11-.25-.19-.05-.08-.07-.22-.04-.31.05-.19.24-.31.44-.3.63.08,1.22.08,1.75.01,1.59-.18,3.21-1.05,3.03-2.97-.13-1.55-.98-3.37-2.57-3.96-2.5-.8-4.07,1.54-5.46,3.6-.31.46-.61.9-.9,1.29-.47.63-1.08,1.37-1.81,2.2-.76.89-1.53,1.49-2.36,1.84-.57.25-1.21.39-1.96.42,0,0,0,0-.01,0Z"/>
    <path class="cls-27" d="m28.08,22.24c-.15,0-.32-.07-.38-.19-.1-.19-.05-.42.12-.54,1.13-.78,2.42-1.18,3.67-1.13.21,0,.48.04.78.08.64.09,1.52.22,1.75-.14,0-.02-.01-.05-.01-.08,0-.03-.01-.06-.01-.09,0-.05.02-.1.05-.15.04-.11.1-.21.17-.24.19-.1.41-.04.52.13.11.14.49.23.93.19.52-.04.91-.24,1-.41.06-.13.06-.38.07-.62,0-.5,0-1.18.69-1.49.16-.07.42,0,.51.16.1.17.08.38-.06.51-.1.11-.09.26-.05.59.01.09.02.19.03.29.03.28.04.83-.26,1.25-.41.55-1.17.84-2.06.76-.31-.03-.58-.09-.81-.19-.09.14-.21.26-.35.35-.71.43-1.51.3-2.23.19-.25-.04-.48-.08-.71-.09-1.28-.08-2.43.39-3.17.81-.05.03-.11.04-.17.04Zm-.17-.65s0,0-.01,0c0,0,0,0,.01,0Z"/>
    <path class="cls-28" d="m27.29,17.76c-.18,0-.39-.17-.42-.34-.04-.22.02-.44.15-.61.22-.29.63-.42.93-.44.32-.02.62-.05.88-.16.33-.13.5-.3.52-.42.02-.11-.08-.24-.18-.32,0,0-.01-.01-.02-.02h0s0-.01-.01-.02l-.07-.08c-.05-.06-.08-.12-.08-.2,0-.03,0-.06,0-.09.01-.07.05-.13.1-.19h0c.16-.16.34-.28.52-.4.39-.26.56-.4.56-.65-.02-.28-.2-.84-.39-.97-.08.03-.18.02-.26-.02-.12-.04-.24-.13-.28-.24-.07-.18,0-.38.16-.48,0,0,0,0,0,0,.02-.01.04-.02.06-.03,1.36-.82,2.44-1.62,2.13-2.92-.13-.52-.41-.91-.84-1.14-.58-.32-1.41-.35-2.22-.07-1.62.51-2.31,1.28-2.55,2.85-.14.97-.21,1.98-.29,2.96-.04.56-.08,1.12-.13,1.67-.02.19-.24.37-.43.37-.23-.01-.39-.2-.38-.42l.07-2.34c.01-.23.02-.46.03-.69.06-1.37.12-2.93,1.1-4.1.5-.58,1.21-1,2.23-1.35,1.21-.41,2.85-.43,3.86.73.58.66.83,1.49.72,2.33-.11.83-.6,1.58-1.33,2.07-.23.16-.48.31-.77.45.33.41.44.92.48,1.31.02.81-.57,1.19-1.06,1.46.09.14.14.29.16.45.05.59-.36,1.09-1.08,1.36-.39.15-.79.18-1.14.19-.21.02-.32.08-.34.1,0,.09-.02.2-.07.27-.06.08-.18.15-.27.16-.01,0-.02,0-.03,0Zm-.31-.39s0,.02,0,.02c0,0,0-.02,0-.02Z"/>
    <g>
      <path class="cls-6" d="m6.63,23.73c-.2,0-.36-.16-.36-.36s.16-.36.36-.36.36.16.36.36-.16.36-.36.36Zm0-.43s-.06.03-.06.06c0,.07.13.07.13,0,0-.04-.03-.06-.06-.06Z"/>
      <path class="cls-3" d="m6.63,23.81c-.24,0-.44-.2-.44-.44s.2-.44.44-.44.44.2.44.44-.2.44-.44.44Zm.01-.44h-.01s.01,0,.01,0Z"/>
    </g>
    <g>
      <path class="cls-11" d="m8.32,23.73c-.2,0-.36-.16-.36-.36s.16-.36.36-.36.36.16.36.36-.16.36-.36.36Zm0-.43s-.06.03-.06.06c0,.07.13.07.13,0,0-.04-.03-.06-.06-.06Z"/>
      <path class="cls-2" d="m8.32,23.81c-.24,0-.44-.2-.44-.44s.2-.44.44-.44.44.2.44.44-.2.44-.44.44Zm.01-.44h-.01s.01,0,.01,0Z"/>
    </g>
    <path class="cls-4" d="m21.31,26.85c-.71,0-1.24-.32-1.24-.75s.53-.75,1.24-.75,1.24.32,1.24.75-.53.75-1.24.75Zm0-1.05c-.49,0-.79.19-.79.3s.3.3.79.3.79-.19.79-.3-.3-.3-.79-.3Z"/>
    <path class="cls-24" d="m21.58,36.88s-.03,0-.04,0c-3.29-.4-5.71-1.65-7.39-3.83-.06-.08-.09-.17-.09-.26,0-.12.05-.25.16-.33.07-.06.23-.1.32-.09.11.01.22.07.29.16,1.54,1.98,3.72,3.13,6.69,3.5.09.01.18.06.24.14l.11.14c.05.06.08.14.08.22,0,.06-.01.12-.04.17-.06.11-.18.18-.31.18Zm-6.88-4.26s0,0,0,0c0,0,0,0,0,0Zm6.16,3.05s-.09,0-.13-.02c-1.01-.4-1.94-.94-2.75-1.59-.11-.08-.16-.21-.16-.33,0-.09.03-.18.09-.26.15-.18.41-.21.59-.08.72.58,1.53,1.06,2.41,1.42.09.04.16.11.2.2.02.06.04.11.07.17.02.05.03.1.03.15,0,.09-.03.17-.1.24-.07.07-.16.11-.25.11Zm-.49-1.62c-.07,0-.14-.02-.21-.07-1.59-1.15-2.88-2.59-3.75-4.18-.04-.06-.05-.13-.05-.2,0-.15.08-.3.22-.37.2-.11.45-.04.57.16.79,1.44,1.95,2.76,3.38,3.82.07.05.12.13.14.22v.04s.04.16.04.16c0,.03,0,.05,0,.08,0,.12-.06.23-.16.29-.06.04-.12.06-.19.06Z"/>
    <path class="cls-7" d="m21.76,37.42c-1.04,0-2.14-.05-3.28-.15-3.08-.28-5.81-.97-8.13-2.07-.05-.02-.11-.05-.16-.08-.5-.24-1.01-.51-1.49-.81-.66-.4-1.3-.86-1.89-1.36l-.17-.15c-1.9-1.68-3.26-3.76-3.95-6.04-.22.03-.38-.07-.5-.15-.66-.46-.78-1.96-.76-3.14.12-4.02,1.41-7.14,3.85-9.28,2.67-2.34,6.54-3.32,11.22-2.85,6.75.85,11.06,5.45,10.99,11.71-.04,2.78,1.74,4.7,4.54,4.88.78.06,1.64-.12,1.76-.29-.04-.7-.45-1.36-.85-2-.09-.16-.19-.3-.28-.44-.27-.41-.55-.83-.68-1.35-.05-.42.09-.65.22-.78.43-.43,1.27-.32,1.77-.26.55.1,1.01.27,1.4.53,1.54,1.03,2.03,2.91,2.15,4.41.46.05.92.14,1.37.26,1.36.37,2.4.97,3.11,1.77.52.6.86,1.37.94,2.17.05.38.06.82-.21,1.13-.19.21-.45.33-.85.3-.6-.03-1.11-.22-1.6-.4l-.18-.07c-.39-.14-.78-.31-1.17-.48-.77-.33-1.49-.65-2.26-.77-.14,0-.31.11-.56.3l-.15.12c-1.29,1.12-2.59,2.25-4.1,3.05-1.7.95-3.67,1.61-5.84,1.96-.14.03-.29-.05-.36-.18-.07-.14-.14-.26-.2-.34-.01-.02-.03-.05-.04-.08-.02-.02-.04-.05-.06-.08-.05-.09-.07-.18-.09-.24,0-.04-.01-.07,0-.11-.01-.04-.02-.08-.02-.12,0-.03,0-.09,0-.15,0-.1.04-.2.12-.27.03-.03.07-.05.1-.06-.12-.05-.21-.17-.22-.3,0-.01,0-.08,0-.09,0-.04,0-.08-.02-.12-.04-.12,0-.25.09-.34.09-.09.22-.13.34-.09.22.06.45.12.67.16,2.37.43,4.58-.41,6.02-1.19.13-.06.25-.14.37-.21.09-.06.18-.11.26-.16.77-.56,1.54-1.22,2.28-1.85l.14-.11c.28-.21.62-.48,1.05-.55.29-.05.57.01.83.08.77.21,1.48.52,2.17.82.34.15.68.3,1.02.43l.13.05c.44.17.89.35,1.32.37.05,0,.08,0,.09,0h0s-.05-.12-.05-.21v-.12c-.06-.59-.29-1.16-.68-1.63-.58-.68-1.43-1.18-2.62-1.54-.53-.16-1.06-.26-1.56-.32-.2,0-.38-.19-.38-.42-.07-1.35-.45-3.16-1.81-4.06-.43-.28-.97-.43-1.56-.43-.21,0-.46,0-.51.07h0s.12.19.17.29l.06.12c.13.22.28.46.44.7l.21.33c.47.75.99,1.57,1.01,2.54-.13,1.27-2.3,1.21-2.74,1.19-3.06-.16-5.24-2.23-5.44-5.16-.02-.27-.03-.61-.04-.92v-.36c-.1-2.14-.74-4.09-1.86-5.62-2.88-3.95-8.04-4.91-11.92-4.49-6.61.58-10.34,4.87-10.24,11.78,0,.38.11,1.2.24,1.53.95-.58,2.02-.66,2.98-.73,2.27-.11,4.47.12,6.6.34l1.09.11c.8.07,1.59.15,2.26-.08.61-.22.87-.87,1.13-1.63.08-.22.3-.33.52-.27.22.06.35.27.3.49-.08.45-.2.83-.35,1.16.67,2.24,1.81,4.38,3.21,6.02.06.07.09.16.08.25,0,.11-.01.22-.01.33,0,.15-.09.27-.23.32-.13.05-.29,0-.38-.1-.38-.44-.74-.91-1.07-1.39-.98-1.41-1.73-2.94-2.23-4.56-.36.31-.8.5-1.33.56-.67.09-1.36.04-2.01-.02l-1.13-.12c-2.07-.21-4.22-.44-6.32-.35-.77.05-1.64.11-2.37.46.36,1.19.93,2.32,1.69,3.36-.37-.78-.64-1.6-.82-2.47-.02-.09.01-.24.06-.32.05-.08.18-.17.28-.18.09-.01.24,0,.31.06.08.05.17.18.18.27.39,1.89,1.19,3.46,2.46,4.8l.15.15c.85.86,1.9,1.62,3.13,2.28.1.05.23.1.35.15h.02c-.76-.58-1.46-1.26-2.12-2.04-.06-.07-.11-.22-.1-.31.01-.12.07-.22.16-.29.07-.06.22-.11.31-.09.11.01.22.07.29.16.9,1.06,1.89,1.93,3,2.62-.91-.87-1.69-1.94-2.32-3.21l-.06-.13c-.32-.66-.6-1.35-.84-2.1-.03-.09-.02-.24.02-.32.05-.1.14-.18.25-.22.08-.03.24-.02.32.02.1.05.18.14.22.25.24.72.51,1.4.81,2.01l.07.15c1.21,2.42,3.03,3.99,5.9,5.08.66.1,3.88.25,4.51.25h0c.1,0,.2.04.27.12.11.12.22.24.34.36.1.1.14.25.09.38-.09.23-.39.22-.64.22Zm-12.06-5.4s0,0,0,0c0,0,0,0,0,0Zm.56-3.13s0,0,0,0c0,0,0,0,0,0Zm-7.67-3.16s0,0,0,0c0,0,0,0,0,0Zm14.34-2s0,0,0,0c0,0,0,0,0,0Z"/>
    <path class="cls-12" d="m19.9,24.24s-.08-.01-.12-.03c-.37-.23-.9-.22-1.62.02-.02,0-.06.01-.07.01-.1,0-.18-.06-.21-.15-.02-.05-.01-.12.01-.17.03-.05.08-.09.13-.11.85-.28,1.5-.28,2,.02.11.07.14.2.08.31,0,0,0,0,0,0-.04.07-.12.11-.19.11Zm-1.79-.16s0,0,0,0c0,0,0,0,0,0Zm1.85-.03h0,0Z"/>
    <path class="cls-18" d="m17.95,33.9c-.1,0-.2-.04-.28-.1h0c-1.27-1.1-2.3-2.52-3.15-4.35-.04-.08-.05-.24-.01-.33.03-.09.14-.2.22-.24.08-.04.24-.04.32-.01.11.04.19.12.24.22.8,1.71,1.76,3.04,2.94,4.06.18.15.2.42.04.6-.07.08-.22.15-.32.15Zm-.18-.22s0,0,0,0c0,0,0,0,0,0Z"/>
    <path class="cls-23" d="m14.33,28.32c-.18,0-.33-.11-.4-.27-.18-.47-.35-.97-.51-1.49-.03-.09-.01-.24.03-.32.04-.08.16-.18.25-.21.24-.06.46.06.53.28h0c.16.51.33.99.5,1.44.03.09.03.24,0,.32-.05.1-.13.19-.24.23-.04.01-.11.03-.15.03Zm-.26-.33s0,0,0,0c0,0,0,0,0,0Z"/>
    <path class="cls-16" d="m7.95,29.54c-.17,0-.32-.1-.39-.25-.2-.44-.38-.96-.53-1.53-.06-.23.07-.46.29-.52.09-.03.25,0,.33.04.1.06.17.15.2.26,0,0,0,0,0,0,.14.54.3,1.01.48,1.4.04.09.04.24,0,.33-.04.11-.13.2-.24.24-.04.02-.11.03-.16.03Z"/>
    <path class="cls-13" d="m13.96,32.48c-.14,0-.28-.07-.36-.19-.91-1.42-1.58-3.14-2.16-5.56-.05-.23.09-.46.31-.51.23-.06.46.09.51.31h0c.56,2.33,1.19,3.96,2.05,5.3.12.2.07.46-.12.59-.06.04-.17.07-.24.07Z"/>
    <g>
      <path class="cls-29" d="m4.97,23.69c-.2,0-.36-.16-.36-.36s.16-.36.36-.36.37.16.37.36-.16.36-.37.36Zm0-.43s-.06.03-.06.06c0,.07.13.07.13,0,0-.04-.03-.06-.06-.06Z"/>
      <path class="cls-21" d="m4.97,23.76c-.24,0-.44-.2-.44-.44s.2-.44.44-.44.44.2.44.44-.2.44-.44.44Zm.01-.44h-.01s.01,0,.01,0Z"/>
    </g>
    <path class="cls-5" d="m26.19,38.87s-.04,0-.06,0c-.85,0-1.62-.12-2.32-.35-.72-.23-1.41-.65-1.98-1.2-.14-.13-.26-.27-.39-.41l-.46-.62c-.17-.27-.32-.55-.44-.83-.03-.06-.06-.13-.08-.21-.13-.33-.23-.63-.3-.93l-.03-.13c-.05-.2-.07-.31-.09-.42-.01-.05-.02-.11-.03-.17-.04-.25-.07-.47-.09-.68-.04-.47-.06-.9-.05-1.32,0-.12,0-.23.01-.35,0-.22.03-.44.06-.66.04-.24.24-.4.48-.37.23.03.39.24.37.47-.02.25-.03.51-.04.78,0,.11,0,.22,0,.33.01.64.08,1.25.21,1.82.01.07.03.14.05.2.11.47.27.91.46,1.31l.09.19c.17.33.37.64.58.9.04.04.07.09.11.13l.09.1c.12.13.24.24.37.35.42.35.9.62,1.43.79.56.19,1.17.27,1.67.3-.09-.29-.23-.6-.41-.92-.05-.1-.11-.19-.16-.28,0,0-.05-.08-.05-.08-.04-.07-.08-.16-.11-.25-.02-.07-.04-.14-.05-.22-.01-.07-.02-.15-.02-.24,0-.04,0-.09,0-.15v-.19c.02-.15.03-.3.01-.44,0-.07-.02-.12-.03-.17-.06-.15-.13-.27-.2-.38-.4-.66-.87-1.28-1.27-1.79-.15-.18-.12-.44.07-.59.18-.15.45-.12.6.06.46.56.95,1.16,1.38,1.82.15.25.28.46.35.72.02.08.04.17.04.27,0,0,0,.05,0,.09,0,.14,0,.28,0,.43,0,.08,0,.16,0,.24,0,.04,0,.08,0,.12,0,.04,0,.08.01.11,0,0,.03.08.03.09.01.02.05.08.06.1.06.09.13.22.22.38.76,1.38.59,1.85.4,2.08h0c-.13.16-.32.21-.47.21Zm-2.56-6.21s0,0,0,0c0,0,0,0,0,0Zm.42-.35s0,0,0,0c0,0,0,0,0,0Zm-3.98-1.7s0,0,0,0c0,0,0,0,0,0Z"/>
  </g>
  <path class="cls-22" d="m19.03,24.3c-.52,0-.94.29-.94.64s.42.64.94.64.94-.28.94-.64-.42-.64-.94-.64Zm-.53.88c-.14,0-.25-.11-.25-.25s.11-.25.25-.25.25.11.25.25-.11.25-.25.25Z"/>
</svg>