<?xml version="1.0" encoding="UTF-8"?>
<svg id="Layer_1" data-name="Layer 1" xmlns="http://www.w3.org/2000/svg" viewBox="0 0 33.57 30.49">
  <defs>
    <style>
      .cls-1 {
        fill: #2b3f8a;
      }
    </style>
  </defs>
  <path class="cls-1" d="m30.49,22.14h-.64v-8.35c0-.52-.43-.95-.95-.95h-5.22c-.52,0-.95.43-.95.95v8.35H2.77c-1.45,0-2.63-1.18-2.63-2.63V3.46C.14,2.01,1.32.83,2.77.83h27.72c1.45,0,2.63,1.18,2.63,2.63v16.05c0,1.45-1.18,2.63-2.63,2.63ZM2.77,1.83c-.9,0-1.63.73-1.63,1.63v16.05c0,.9.73,1.63,1.63,1.63h18.96v-7.35c0-1.08.88-1.95,1.95-1.95h5.22c1.08,0,1.95.88,1.95,1.95v7.31c.73-.16,1.27-.81,1.27-1.59V3.46c0-.9-.73-1.63-1.63-1.63H2.77Z"/>
  <rect class="cls-1" x="30.35" y="18.97" width="2.27" height="1"/>
  <rect class="cls-1" x=".64" y="18.97" width="21.59" height="1"/>
  <path class="cls-1" d="m18.35,29.66h-3.43v-8.31h3.43v8.31Zm-2.43-1h1.43v-6.31h-1.43v6.31Z"/>
  <path class="cls-1" d="m21.44,29.66h-9.61c-.28,0-.5-.22-.5-.5s.22-.5.5-.5h9.61c.28,0,.5.22.5.5s-.22.5-.5.5Z"/>
  <path class="cls-1" d="m28.9,27.43h-5.22c-1.08,0-1.95-.88-1.95-1.95v-11.69c0-1.08.88-1.95,1.95-1.95h5.22c1.08,0,1.95.88,1.95,1.95v11.69c0,1.08-.87,1.95-1.95,1.95Zm-5.22-14.59c-.52,0-.95.43-.95.95v11.69c0,.52.43.95.95.95h5.22c.52,0,.95-.43.95-.95v-11.69c0-.52-.43-.95-.95-.95h-5.22Z"/>
  <circle class="cls-1" cx="26.29" cy="25.06" r=".69"/>
  <circle class="cls-1" cx="16.63" cy="3.66" r=".69"/>
  <path class="cls-1" d="m27.53,14.66h-2.48c-.28,0-.5-.22-.5-.5s.22-.5.5-.5h2.48c.28,0,.5.22.5.5s-.22.5-.5.5Z"/>
</svg>