<?xml version="1.0" encoding="UTF-8"?>
<svg id="Layer_1" data-name="Layer 1" xmlns="http://www.w3.org/2000/svg" viewBox="0 0 33.57 30.49">
  <defs>
    <style>
      .cls-1 {
        fill: #2b3f8a;
      }
    </style>
  </defs>
  <path class="cls-1" d="m21.5,12.1h-9.83c-.21,0-.4-.13-.47-.33-.62-1.75-1.58-5.09-1.23-6.55l.8-3.99c.05-.23.25-.4.49-.4h2.66c.28,0,.5.22.5.5v2.41c0,.61.5,1.1,1.1,1.1h1.78c.61,0,1.1-.5,1.1-1.1V1.33c0-.28.22-.5.5-.5h2.65c.23,0,.43.16.48.38l1.02,4.01c.31,1.2-.37,3.97-1.08,6.52-.06.22-.26.37-.48.37Zm-9.48-1h9.1c.42-1.53,1.23-4.62.97-5.64h0s-.92-3.63-.92-3.63h-1.76v1.91c0,1.16-.94,2.1-2.1,2.1h-1.78c-1.16,0-2.1-.94-2.1-2.1v-1.91h-1.75l-.72,3.61c-.21.87.25,3.25,1.08,5.66Z"/>
  <path class="cls-1" d="m16.63,29.66c-4.87,0-9.73-.35-15.09-1.06-.16-.02-.29-.11-.37-.25s-.08-.3-.02-.45c2.57-5.84,7.61-12.42,8.17-13.15h0c.56-.72,1.4-1.13,2.31-1.13h9.89c.81,0,1.6.34,2.15.94,2.46,2.67,6.83,7.96,8.46,13.41.04.14.02.29-.06.41-.08.12-.21.21-.35.22-5.36.71-10.22,1.06-15.09,1.06Zm-14.29-1.97c10.13,1.29,18.52,1.29,28.66-.01-1.7-5.06-5.74-9.94-8.06-12.45-.36-.39-.87-.61-1.41-.61h-9.89c-.6,0-1.16.27-1.52.75h0c-.54.7-5.18,6.76-7.77,12.33Zm7.38-12.64h0,0Z"/>
  <path class="cls-1" d="m21.5,14.61h-9.83c-.28,0-.5-.22-.5-.5v-2.51c0-.28.22-.5.5-.5h9.83c.28,0,.5.22.5.5v2.51c0,.28-.22.5-.5.5Zm-9.33-1h8.83v-1.51h-8.83v1.51Z"/>
  <path class="cls-1" d="m11.16,19.66c-.06,0-.12-.01-.18-.03-.26-.1-.39-.39-.29-.65l.13-.34c.6-1.58,1.28-3.37,2.4-4.82.17-.22.48-.26.7-.09.22.17.26.48.09.7-1.02,1.34-1.68,3.06-2.26,4.57l-.13.35c-.08.2-.27.32-.47.32Z"/>
  <path class="cls-1" d="m22.11,21.21c-.24,0-.45-.17-.49-.41-.4-2.13-1.27-4.29-2.61-6.43-.15-.23-.07-.54.16-.69.23-.15.54-.07.69.16,1.4,2.24,2.32,4.52,2.74,6.77.05.27-.13.53-.4.58-.03,0-.06,0-.09,0Z"/>
</svg>