<?xml version="1.0" encoding="UTF-8"?>
<svg id="Layer_1" data-name="Layer 1" xmlns="http://www.w3.org/2000/svg" viewBox="0 0 33.57 30.49">
  <defs>
    <style>
      .cls-1 {
        fill: #2b3f8a;
      }
    </style>
  </defs>
  <path class="cls-1" d="m16.63,29.61c-.09,0-.18-.02-.26-.07C15.71,29.14.11,19.68.11,11.11.11,7.85.98,5.16,2.64,3.35c1.46-1.59,3.49-2.47,5.71-2.47,3.45,0,7,2.14,8.28,5.85,1.28-3.72,4.83-5.85,8.28-5.85,2.22,0,4.25.88,5.71,2.47,1.66,1.81,2.54,4.5,2.54,7.76,0,1.46-.46,3.03-1.35,4.68-.13.24-.44.33-.68.2-.24-.13-.33-.44-.2-.68.82-1.5,1.23-2.92,1.23-4.21,0-3.01-.79-5.46-2.27-7.09-1.27-1.39-3.03-2.15-4.97-2.15-3.82,0-7.78,2.97-7.78,7.94,0,.28-.22.5-.5.5s-.5-.22-.5-.5c0-4.97-3.96-7.94-7.78-7.94-1.94,0-3.7.76-4.97,2.15-1.49,1.63-2.27,4.08-2.27,7.09,0,7.44,13.48,16.14,15.52,17.41,1.37-.86,7.92-5.07,12.06-10,.18-.21.49-.24.7-.06.21.18.24.49.06.7-4.72,5.63-12.49,10.33-12.57,10.37-.08.05-.17.07-.26.07Z"/>
  <path class="cls-1" d="m18.88,24.41h0c-.21,0-.4-.13-.47-.33l-3.73-10.27-1.67,5.19c-.07.21-.26.35-.48.35H2.4c-.28,0-.5-.22-.5-.5s.22-.5.5-.5h9.77l2-6.23c.07-.2.25-.34.47-.35.22,0,.41.13.48.33l3.76,10.36,2.35-6.31c.07-.19.25-.32.45-.33.22-.01.39.11.47.29l1.02,2.24h7.69c.28,0,.5.22.5.5s-.22.5-.5.5h-8.01c-.2,0-.37-.11-.46-.29l-.65-1.43-2.4,6.45c-.07.2-.26.33-.47.33Z"/>
</svg>