<?xml version="1.0" encoding="UTF-8"?>
<svg id="Layer_1" data-name="Layer 1" xmlns="http://www.w3.org/2000/svg" viewBox="0 0 33.57 30.49">
  <defs>
    <style>
      .cls-1 {
        fill: #2b3f8a;
      }
    </style>
  </defs>
  <path class="cls-1" d="m8.83,26.55H2.67c-.71,0-1.37-.28-1.86-.8-.49-.52-.75-1.2-.71-1.92l.82-15.26c.07-1.36,1.2-2.43,2.57-2.43h18.57c1.37,0,2.49,1.07,2.57,2.43l.54,9.98c0,.17-.07.34-.21.43-.14.1-.32.12-.48.05-.23-.09-.46-.21-.69-.33-.29-.15-.65-.08-.91.17-.72.68-1.69,1.18-2.98,1.54-1.13.32-2.41.5-3.52.65l-.56.08c-1.43.19-2.77.38-3.92.72-1.53.48-2.56,1.9-2.56,3.51v.66c0,.28-.22.5-.5.5ZM3.49,7.14c-.84,0-1.53.65-1.57,1.49l-.82,15.26c-.02.44.13.86.43,1.18.3.31.7.49,1.14.49h5.66v-.16c0-2.05,1.31-3.85,3.27-4.47,1.23-.37,2.68-.56,4.08-.75l.56-.08c1.08-.15,2.32-.32,3.38-.63,1.14-.32,1.97-.75,2.56-1.3.53-.51,1.29-.66,1.94-.39l-.5-9.15c-.05-.83-.74-1.49-1.57-1.49H3.49Z"/>
  <path class="cls-1" d="m18.03,9.38c-.28,0-.5-.22-.5-.5v-2.3c0-2.62-2.13-4.75-4.75-4.75s-4.75,2.13-4.75,4.75v2.3c0,.28-.22.5-.5.5s-.5-.22-.5-.5v-2.3c0-3.17,2.58-5.75,5.75-5.75s5.75,2.58,5.75,5.75v2.3c0,.28-.22.5-.5.5Z"/>
  <path class="cls-1" d="m8.36,12.01h-1.67c-.28,0-.5-.22-.5-.5v-2.46c0-.28.22-.5.5-.5h1.67c.28,0,.5.22.5.5v2.46c0,.28-.22.5-.5.5Zm-1.17-1h.67v-1.46h-.67v1.46Z"/>
  <path class="cls-1" d="m18.87,12.01h-1.67c-.28,0-.5-.22-.5-.5v-2.46c0-.28.22-.5.5-.5h1.67c.28,0,.5.22.5.5v2.46c0,.28-.22.5-.5.5Zm-1.17-1h.67v-1.46h-.67v1.46Z"/>
  <g>
    <path class="cls-1" d="m14.9,27.81h-6.07c-.28,0-.5-.22-.5-.5v-1.92c0-2.05,1.31-3.85,3.27-4.47.11-.04.23-.03.34.01,1.95.8,3.09,2.5,3.38,5.06.05.36.07.77.08,1.31,0,.13-.05.26-.14.36s-.22.15-.36.15Zm-5.57-1h5.05c-.01-.24-.03-.47-.06-.7-.24-2.12-1.09-3.49-2.6-4.18-1.44.53-2.4,1.9-2.4,3.45v1.42Z"/>
    <path class="cls-1" d="m32.64,27.81H14.9c-.27,0-.49-.22-.5-.49,0-.42-.03-.83-.08-1.21-.25-2.2-1.15-3.59-2.76-4.25-.2-.08-.32-.28-.31-.49s.15-.39.36-.45c1.22-.36,2.67-.56,4.07-.75l.56-.08c1.08-.15,2.32-.32,3.38-.63,1.14-.32,1.97-.75,2.56-1.3.56-.54,1.38-.68,2.05-.34.21.1.41.21.62.29,2.35,1,4.84.97,6.21-.06.3-.22.68-.26,1.02-.12.34.14.58.45.64.82.49,3.18.46,7.06.42,8.58,0,.27-.23.49-.5.49Zm-17.26-1h16.77c.03-1.73.02-5.11-.42-7.91-1.73,1.22-4.55,1.3-7.26.14-.23-.09-.46-.21-.69-.32-.29-.15-.65-.08-.91.17-.72.68-1.69,1.18-2.98,1.54-1.13.32-2.41.5-3.52.65l-.56.08c-.95.13-1.87.25-2.72.42,1.25.93,2,2.41,2.22,4.41.03.24.05.51.07.82Z"/>
    <path class="cls-1" d="m30.79,29.66H10.67c-1.29,0-2.34-1.05-2.34-2.35,0-.28.22-.5.5-.5h23.81c.28,0,.5.22.5.5,0,1.3-1.05,2.35-2.35,2.35Zm-21.36-1.85c.2.5.68.85,1.24.85h20.12c.57,0,1.06-.35,1.25-.85H9.43Z"/>
    <path class="cls-1" d="m17.78,23.05c-.15,0-.3-.07-.4-.2l-2.11-2.82c-.17-.22-.12-.53.1-.7.22-.17.53-.12.7.1l2.11,2.82c.17.22.12.53-.1.7-.09.07-.19.1-.3.1Z"/>
    <path class="cls-1" d="m21.19,22.36c-.15,0-.3-.07-.4-.2l-2.11-2.82c-.17-.22-.12-.53.1-.7.22-.17.53-.12.7.1l2.11,2.82c.17.22.12.53-.1.7-.09.07-.19.1-.3.1Z"/>
  </g>
</svg>