<?xml version="1.0" encoding="UTF-8"?>
<svg id="Layer_1" data-name="Layer 1" xmlns="http://www.w3.org/2000/svg" viewBox="0 0 30.43 30.43">
  <defs>
    <style>
      .cls-1 {
        fill: #2b3f8a;
      }

      .cls-2 {
        fill: none;
        stroke: #2b3f8a;
        stroke-linecap: round;
        stroke-linejoin: round;
        stroke-width: 2px;
      }
    </style>
  </defs>
  <path class="cls-2" d="m15.22,1.26C7.49,1.26,1.22,7.53,1.22,15.26c0,3.01.96,5.8,2.58,8.09,2.53,3.58,6.7,5.91,11.42,5.91s8.89-2.33,11.42-5.91c1.62-2.29,2.58-5.08,2.58-8.09,0-7.73-6.27-14-14-14Zm0,21.5c-2.4,0-4.55-1.13-5.91-2.9-1-1.27-1.59-2.86-1.59-4.6,0-4.14,3.36-7.5,7.5-7.5s7.5,3.36,7.5,7.5c0,1.74-.59,3.33-1.59,4.6-1.36,1.77-3.51,2.9-5.91,2.9Z"/>
  <path class="cls-1" d="m15.22,23.76c-2.65,0-5.1-1.2-6.7-3.29-1.17-1.49-1.8-3.29-1.8-5.21,0-4.69,3.81-8.5,8.5-8.5s8.5,3.81,8.5,8.5c0,1.92-.62,3.72-1.8,5.22-1.6,2.08-4.04,3.28-6.7,3.28Zm0-15c-3.58,0-6.5,2.92-6.5,6.5,0,1.46.48,2.84,1.38,3.98,1.23,1.6,3.1,2.52,5.12,2.52s3.89-.91,5.12-2.51c.91-1.15,1.38-2.53,1.38-3.99,0-3.58-2.92-6.5-6.5-6.5Z"/>
  <path class="cls-1" d="m15.22,30.26c-4.86,0-9.43-2.37-12.24-6.33-.29-.4-.23-.96.12-1.3,1.7-1.64,3.67-2.88,5.85-3.71.41-.15.88-.02,1.15.33,1.23,1.59,3.09,2.51,5.12,2.51s3.89-.91,5.12-2.51c.27-.35.73-.48,1.15-.33,2.18.82,4.15,2.07,5.85,3.71.36.34.41.89.12,1.3-2.8,3.97-7.38,6.33-12.24,6.33Zm-10.07-6.79c2.45,3.01,6.15,4.79,10.07,4.79s7.62-1.77,10.07-4.79c-1.17-1-2.46-1.81-3.86-2.42-1.59,1.73-3.81,2.7-6.21,2.7s-4.62-.98-6.21-2.7c-1.4.6-2.69,1.41-3.86,2.42Z"/>
</svg>