<?xml version="1.0" encoding="UTF-8"?>
<svg id="Layer_1" data-name="Layer 1" xmlns="http://www.w3.org/2000/svg" viewBox="0 0 30 30">
  <defs>
    <style>
      .cls-1 {
        fill: #2b3f8a;
      }
    </style>
  </defs>
  <path class="cls-1" d="m14.6,24.67H5.12c-.48,0-.89-.34-.98-.81L1.53,10.16c-.06-.29.02-.59.21-.82.19-.23.47-.36.77-.36h17.86c.55,0,1,.45,1,1s-.45,1-1,1H3.72l2.22,11.7h8.65c.55,0,1,.45,1,1s-.45,1-1,1Z"/>
  <path class="cls-1" d="m23.26,29.9c-2.88,0-5.23-2.34-5.23-5.23s2.34-5.23,5.23-5.23,5.23,2.34,5.23,5.23-2.34,5.23-5.23,5.23Zm0-8.45c-1.78,0-3.23,1.45-3.23,3.23s1.45,3.23,3.23,3.23,3.23-1.45,3.23-3.23-1.45-3.23-3.23-3.23Z"/>
  <path class="cls-1" d="m23.96,16.86c-.06,0-.12,0-.19-.02-.54-.1-.9-.63-.8-1.17l2.58-13.57h-11.9c-.55,0-1-.45-1-1s.45-1,1-1h13.11c.3,0,.58.13.77.36.19.23.27.53.21.82l-2.81,14.76c-.09.48-.51.81-.98.81Z"/>
  <path class="cls-1" d="m5.39,29.9c-.79,0-1.43-.64-1.43-1.43s.64-1.43,1.43-1.43,1.43.64,1.43,1.43-.64,1.43-1.43,1.43Z"/>
</svg>