<?xml version="1.0" encoding="UTF-8"?>
<svg id="Layer_1" data-name="Layer 1" xmlns="http://www.w3.org/2000/svg" xmlns:xlink="http://www.w3.org/1999/xlink" viewBox="0 0 288.3 79.76">
  <defs>
    <style>
      .cls-1 {
        fill: #e3f4ff;
      }

      .cls-2 {
        clip-path: url(#clippath-2);
      }

      .cls-2, .cls-3, .cls-4, .cls-5 {
        fill: none;
      }

      .cls-6 {
        fill: #fff;
      }

      .cls-7 {
        fill: #3da4e9;
      }

      .cls-8 {
        fill: #8cddff;
      }

      .cls-9 {
        fill: #33a0e9;
      }

      .cls-10 {
        fill: #71d4fc;
      }

      .cls-11 {
        fill: #f5fbff;
      }

      .cls-12, .cls-13 {
        fill: #2b3f8a;
      }

      .cls-14 {
        fill: #1879ba;
      }

      .cls-13, .cls-5 {
        stroke: #2b3f8a;
        stroke-linecap: round;
        stroke-linejoin: round;
        stroke-width: .38px;
      }

      .cls-15 {
        fill: #ff69aa;
      }

      .cls-3 {
        clip-path: url(#clippath);
      }

      .cls-4 {
        clip-path: url(#clippath-1);
      }
    </style>
    <clipPath id="clippath">
      <path class="cls-7" d="m25.47,60.73s-19.76.36-17.17,17.53c.19,1.23,3.96-1.44,4.76-2.22.78-.76,1.99-.47,3.56-.9,1.4-.39,5.53-4.98,5.53-4.98"/>
    </clipPath>
    <clipPath id="clippath-1">
      <path class="cls-8" d="m2.94,48.41c2.79,10.7,13.77,27.21,47.64,27.21,27.05,0,33.8-14.57,37.54-14.57s14.75,7.18,14.75,3.22c0-9.88-13.5-10.79-13.5-10.79,0,0-.08-12.49-9.74-12.49-6.08,0,2.5,6.24,2.5,11.4,0,3-18.34,4.08-18.34-11.74,0-21.18-18.12-28.64-31.35-28.64C3.3,12.02.43,33.86.43,42.68c0,1.53.38,7.47,2.51,5.73,5.16-3.82,24.96-.4,29.01-.4s5.86-.93,7.05-5.55"/>
    </clipPath>
    <clipPath id="clippath-2">
      <path class="cls-10" d="m46.93,59.83s-2.58,19.59,14.78,19.59c1.25,0-.83-4.13-1.49-5.04-.64-.88-.17-2.04-.36-3.65-.18-1.44-4.1-6.21-4.1-6.21"/>
    </clipPath>
  </defs>
  <g>
    <g>
      <path class="cls-12" d="m113.77,18.17h6.66c7.41,0,12,3.84,12,12.04s-4.59,12.23-11.74,12.23h-6.92v-24.27Zm6.36,20.37c4.53,0,7.35-2.43,7.35-8.33s-2.82-8.17-7.35-8.17h-1.51v16.5h1.51Z"/>
      <path class="cls-12" d="m161.94,18.17h5.38l4.13,11.35c.52,1.51.98,3.12,1.48,4.69h.16c.52-1.57.95-3.18,1.48-4.69l4.03-11.35h5.38v24.27h-4.43v-10.13c0-2.3.36-5.67.59-7.97h-.13l-1.97,5.71-3.74,10.2h-2.79l-3.77-10.2-1.94-5.71h-.13c.23,2.3.62,5.67.62,7.97v10.13h-4.36v-24.27Z"/>
      <path class="cls-12" d="m187.57,18.17h14.89v4.03h-10.04v5.61h8.53v4.07h-8.53v6.49h10.4v4.07h-15.25v-24.27Z"/>
      <path class="cls-10" d="m205.35,18.17h4.95l1.93,11.84c.36,2.56.75,5.15,1.12,7.74h.13c.49-2.59,1.02-5.21,1.54-7.74l2.82-11.84h4.13l2.82,11.84c.52,2.49,1.02,5.12,1.54,7.74h.16c.36-2.62.72-5.21,1.08-7.74l1.9-11.84h4.62l-4.49,24.27h-6.03l-2.72-12c-.39-1.9-.75-3.77-1.05-5.61h-.13c-.33,1.84-.66,3.71-1.05,5.61l-2.66,12h-5.94l-4.69-24.27Z"/>
      <path class="cls-10" d="m237.42,25.49h4.85v16.95h-4.85v-16.95Z"/>
      <path class="cls-10" d="m246.81,18.17h4.95l7.05,12.92,2.43,5.25h.16c-.26-2.53-.62-5.74-.62-8.49v-9.68h4.59v24.27h-4.92l-7.02-12.99-2.46-5.21h-.16c.23,2.62.59,5.67.59,8.46v9.74h-4.59v-24.27Z"/>
      <path class="cls-10" d="m268.79,30.41c0-8,5.18-12.69,11.64-12.69,3.51,0,5.94,1.51,7.51,3.12l-2.59,3.08c-1.18-1.15-2.56-2.03-4.76-2.03-4.03,0-6.85,3.15-6.85,8.36s2.43,8.46,7.18,8.46c1.18,0,2.36-.33,3.05-.92v-4.79h-4.3v-3.97h8.63v10.95c-1.64,1.61-4.49,2.92-7.87,2.92-6.62,0-11.64-4.39-11.64-12.5Z"/>
      <circle class="cls-10" cx="239.85" cy="20.6" r="3.06"/>
      <path class="cls-12" d="m147.21,17.84c-6.88,0-12.47,5.58-12.47,12.47s5.58,12.47,12.47,12.47,12.47-5.58,12.47-12.47-5.58-12.47-12.47-12.47Zm0,21.1c-4.77,0-8.63-3.87-8.63-8.63s3.87-8.63,8.63-8.63,8.63,3.87,8.63,8.63-3.87,8.63-8.63,8.63Z"/>
    </g>
    <g>
      <path class="cls-12" d="m125.75,63.19v2.3h-15.04v-2.3h6.07v-3.06h-4.41v-8.42h11.73v2.25h-8.87v3.93h8.97v2.25h-4.57v3.06h6.11Z"/>
      <path class="cls-12" d="m127.38,52.23h6.67v11.04h-6.67v-11.04Zm2.65,8.83h1.38v-6.62h-1.38v6.62Zm11.29-10.42v16.58h-2.71v-8.11h-.96v7.43h-2.65v-15.68h2.65v5.98h.96v-6.21h2.71Z"/>
      <path class="cls-12" d="m151.46,50.85h2.65v15.7h-2.65v-7.7h-.87c-.23,3.26-1.58,5.19-3.61,5.19-2.21,0-3.63-2.3-3.63-6.18s1.42-6.18,3.63-6.18c1.96,0,3.29,1.81,3.59,4.88h.88v-5.72Zm-3.42,7.01c0-2.46-.35-3.47-1.06-3.47s-1.04,1.01-1.04,3.47.35,3.47,1.04,3.47,1.06-1.01,1.06-3.47Zm9.56-7.24v16.6h-2.71v-16.6h2.71Z"/>
      <path class="cls-12" d="m173.07,57.82c-2.64.51-5.19.65-7.45.65h-1.43v-7.11h2.85v4.78c1.79-.05,3.73-.23,5.72-.62l.32,2.3Zm-4.62,7.04h8.74v2.21h-11.61v-4.92h8.32v-.58h-8.34v-2.21h11.2v4.88h-8.32v.62Zm10.39-11.33v2.3h-2.07v2.92h-2.87v-8.14h2.87v2.92h2.07Z"/>
      <path class="cls-12" d="m187.1,52.64c0,4.88-1.33,8.57-5.89,11.29l-1.66-1.96c3.06-1.88,4.41-3.96,4.73-7.08h-3.79v-2.25h6.62Zm7.06-2v16.58h-2.71v-8.28h-1.03v7.65h-2.65v-15.5h2.65v5.59h1.03v-6.03h2.71Z"/>
      <path class="cls-12" d="m211.18,57.95v2.04h-15.03v-2.04h15.03Zm-10.55,7.33h9.22v1.89h-12.05v-4.21h8.81v-.51h-8.83v-1.89h11.66v4.16h-8.81v.57Zm5.95-12.57h-8.62v-1.89h11.45v4.18h-8.62v.55h8.92v1.89h-11.75v-4.19h8.62v-.53Z"/>
      <path class="cls-12" d="m226.04,58.07c-2.04.46-4.04.55-7.66.55h-1.43v-7.17h7.5v2.21h-4.65v2.74c2.65-.04,4.25-.18,5.96-.53l.28,2.19Zm-4.74,6.8h8.78v2.21h-11.61v-4.87h8.35v-.57h-8.37v-2.21h11.2v4.85h-8.35v.58Zm10.42-11.29v2.28h-2.07v2.97h-2.87v-8.21h2.87v2.96h2.07Z"/>
      <path class="cls-12" d="m236.2,61.01c2.09-.02,3.93-.14,5.91-.48l.27,2.34c-2.46.44-4.81.51-7.57.51h-1.45v-11.26h7.77v2.28h-4.92v6.6Zm11.93-2.12h-2.23v8.41h-2.87v-16.67h2.87v5.93h2.23v2.34Z"/>
    </g>
  </g>
  <g>
    <path class="cls-11" d="m90.56,25.38c6.21,1.19,14.28-.97,13.69-8.65-.41-5.3-4.02-11.37-9.82-11.66-6.61-.33-10.36,6.16-13.51,10.94-1.93,2.94-4.24,5.74-6.55,8.41-2.69,3.11-5.58,4.82-9.7,5.06h-3.85s1.87,11.23,2,11.1,3.59-2.97,3.59-2.97c2.13-1.36,4.59-2.19,7.11-2.42s5.01.81,7.34.34c.99-.2,2.14-1.16,1.57-2.29.32.54.9.89,1.51,1.05,1.68.42,4.28.24,5.39-1.28,1.07-1.48-.45-4.25,1.18-5.27l3.36-1.93"/>
    <path class="cls-11" d="m64.44,26.25c-.15-1.03,1.14-1.38,1.91-1.42,1.05-.06,1.99-.17,2.94-.65,1.01-.52,1.96-1.48,1.34-2.66-.08-.16-.65-1.02-.89-.82,1.14-.97,2.78-1.3,3.18-2.93.27-1.08-.96-4.71-2.61-3.91,2.47-1.21,5.15-2.63,6.17-5.18.83-2.06.31-4.56-1.19-6.2-2.97-3.26-8.18-1.88-11.49.11-2.84,1.71-3.73,4.68-4.07,7.8-.39,3.59-.46,7.23-.7,10.84-.33,2.79-1.32,2.03-2.37.93l1.68,11.87s11.83-.98,8.95-2.57c-2.88-1.59-2.88-5.21-2.88-5.21Z"/>
    <g>
      <path class="cls-7" d="m25.47,60.73s-19.76.36-17.17,17.53c.19,1.23,3.96-1.44,4.76-2.22.78-.76,1.99-.47,3.56-.9,1.4-.39,5.53-4.98,5.53-4.98"/>
      <g class="cls-3">
        <path class="cls-14" d="m13.19,62.09s.74,9.94,6.31,13.24c5.56,3.3,5.15-8.31,5.15-8.31l-11.45-4.92Z"/>
      </g>
    </g>
    <path class="cls-12" d="m25.48,60.93c-9.94.58-18.8,6.17-16.88,17.23,0,.08.02.07.02.08,0,.02,0,.02,0,.01.63.04,1.33-.45,1.92-.77,1.3-.62,2.22-2.05,3.65-2.27.89-.15,1.89-.11,2.67-.5,1.93-1.26,3.5-3.05,5.14-4.68.16-.18.45.07.29.26-1.25,1.42-2.52,2.81-3.97,4.06-.7.66-1.67,1.23-2.63,1.29-.95.16-1.93.09-2.48.7-1.12.97-2.29,1.77-3.64,2.36-.3.11-.67.25-1.03.18-.28,0-.56-.37-.56-.63-.58-3.77-.07-7.87,2.26-10.99,3.54-4.65,9.61-6.42,15.22-6.71.25,0,.26.38,0,.38h0Z"/>
    <g>
      <path class="cls-8" d="m2.94,48.41c2.79,10.7,13.77,27.21,47.64,27.21,27.05,0,33.8-14.57,37.54-14.57s14.75,7.18,14.75,3.22c0-9.88-13.5-10.79-13.5-10.79,0,0-.08-12.49-9.74-12.49-6.08,0,2.5,6.24,2.5,11.4,0,3-18.34,4.08-18.34-11.74,0-21.18-18.12-28.64-31.35-28.64C3.3,12.02.43,33.86.43,42.68c0,1.53.38,7.47,2.51,5.73,5.16-3.82,24.96-.4,29.01-.4s5.86-.93,7.05-5.55"/>
      <g class="cls-4">
        <path class="cls-10" d="m102.08,60.46s1.65,6.52-8.75.28c-10.41-6.25-16.19,15.26-34.26-6.66-6.81-8.27,2.96-30.13-34.17-20.05C-.83,41.01-1.91,19.52-2.91,30.26c-1,10.74-10.24,22.88,13.57,24.68,23.81,1.8,31.59,19.5,54,20.39,22.41.89,40.89-1.31,40.64-9.33-.25-8.02-3.23-5.54-3.23-5.54Z"/>
        <path class="cls-9" d="m54.72,65.3c6.5,4.27,15.75,4.87,27.78-.27,0,0-17.56,15.85-24.55,8.52-6.99-7.33-3.23-8.25-3.23-8.25Z"/>
        <path class="cls-9" d="m.43,42.68c.66,2.9.7,3.09,2.51,2.75s9.03-2.35,17.85-1.01c9.41,1.42,12.44,2.36,14.6,1.64s3.2-2.23,3.2-2.23c0,0-2.05,8.59-12.74,7.38-10.69-1.21-23.5,4.92-25.42,1.71s0-10.23,0-10.23Z"/>
      </g>
    </g>
    <path class="cls-11" d="m82.49,65.03c-.98.82-2.1,1.71-3.4,2.62-2.1,1.47-4.67,2.99-7.83,4.3-5.11,2.11-11.81,3.68-20.69,3.68-21.19,0-33.42-6.46-40.29-13.92h0c-4.11-4.46-6.3-9.29-7.35-13.29,5.16-3.82,24.96-.4,29.01-.4,3.03,0,4.81-.52,6.01-2.71,1.21,4.84,3.8,10.4,7.52,15.16,4.9,6.26,11.76,11.14,20.02,11.14,4.1,0,8.54-1.2,13.25-4.02,1.23-.74,2.48-1.58,3.74-2.54Z"/>
    <path class="cls-1" d="m79.1,67.65c-2.1,1.47-4.67,2.99-7.83,4.3-5.11,2.11-11.81,3.68-20.69,3.68-21.19,0-33.42-6.46-40.29-13.92h0s9.12-2.86,19.11,2.08c9.99,4.94,16.09-3.32,16.09-3.32,4.9,6.26,11.76,11.14,20.02,11.14,4.1,0,8.54-1.2,13.25-4.02l.35.07Z"/>
    <path class="cls-12" d="m64.66,29.35c4.94-.14,8.57-3.62,11.34-7.38,4.27-4.71,6.63-10.91,11.57-15.07,8.06-6.32,16.64.93,17.26,9.82.34,3.36-1.61,6.89-4.78,8.14-3.03,1.33-6.42,1.4-9.51.66-.07-.02-.12-.09-.1-.16,5.83.43,13.8-.96,13.24-8.55-1.13-11.15-11.6-15.5-18.72-5.82-3.69,5.05-7.07,10.53-11.63,14.96-1.16,1.1-2.5,2.04-3.98,2.67-1.48.64-3.08.94-4.66,1.01-.07,0-.14-.05-.14-.13,0-.07.05-.14.13-.14h0Z"/>
    <path class="cls-12" d="m90.59,27.87c-1.08,1.26.15,3.17-.45,4.77-.93,2.8-6.5,3.17-7.84.7-.03-.01.26-.15.26-.15.54.75.06,1.83-.66,2.27-2.07,1.28-4.74.23-6.9.13-2.96-.18-5.92.72-8.5,2.16-.15.09-.32-.15-.16-.25,2.53-1.74,5.6-2.82,8.72-2.67,1.83.02,7.71,1.67,7.24-1.49-.07-.16.17-.28.26-.14.66.84,1.79.89,2.83.87,1.04-.03,2.1-.26,2.87-.79,1.98-1.24-.15-4.59,2.17-5.65.15-.06.28.15.16.26h0Z"/>
    <path class="cls-12" d="m58.92,21.21c.16-3.94.11-7.88.58-11.84.31-2.97,1.84-6.19,4.69-7.56,2.7-1.44,5.86-2.39,8.94-1.4,3.13,1.03,5,4.66,4.11,7.82-.86,3.14-4.1,4.77-6.85,5.75-.16.07-.28-.17-.14-.26,1.85-.88,2.95,2.11,3.04,3.53.05,2.05-2.11,2.65-3.45,3.54,0,0-.19-.22-.19-.22.22-.15.4,0,.49.05,1.85,1.47.55,3.38-1.26,3.97-1.23.54-2.6.19-3.77.74-.35.18-.58.5-.53.89.03.17-.25.23-.28.05-.12-.5.22-1.03.63-1.25,1.16-.65,2.62-.3,3.79-.85,1.35-.48,2.58-1.79,1.41-3.09-.1-.17-.29-.26-.48-.52.61-.61,1.38-.99,1.99-1.47,1.42-.96,1.03-2.72.34-4.02-.32-.66-.87-1.38-1.6-1.1,0,0-.14-.27-.12-.26,2.39-1.53,5.08-2.98,5.88-5.79.72-2.6-.78-5.64-3.37-6.5-3.45-1.07-7.77.43-10.33,2.9-1.25,1.38-1.87,3.25-2.17,5.15-.57,3.85-.69,7.82-1.06,11.75,0,.18-.3.16-.29-.02h0Z"/>
    <ellipse class="cls-12" cx="43.6" cy="45.43" rx="2.39" ry="1.61"/>
    <circle class="cls-6" cx="42.26" cy="45.43" r=".62"/>
    <ellipse class="cls-15" cx="49.36" cy="48.37" rx="2.57" ry="1.33"/>
    <g>
      <path class="cls-12" d="m3.12,48.36c2.92,11.04,12.28,19.26,22.8,22.98,2.25.89,5.71,1.73,8.1,2.3,3.26.63,7.18,1.1,10.46,1.35,13.53.83,26.96-1.12,37.56-10.22,0,0,3.24-2.75,3.24-2.75.72-.54,1.52-1.23,2.5-1.41.63-.09,1.18.05,1.76.18,2.17.18,12.85,6.31,12.93,3.52,0-2.05-.65-4.04-1.96-5.64-2.79-3.15-7.09-4.51-11.18-5-.1-.01-.18-.1-.17-.2-.09-2.09-.5-4.19-1.25-6.14-.96-2.43-2.66-4.6-5.11-5.54-1.41-.44-3.11-.76-4.52-.37-1.02.27-.48,1.5,0,2.34,1.11,2.13,5.44,7.27,3.66,9.54-1.55,1.22-3.69,1.22-5.56,1.18-4.3-.23-8.72-2.25-10.98-6.05-1.76-2.7-1.99-6.24-2.07-9.37-.33-16.87-15.24-26.72-31.05-26.64-6.76.05-13.82,1.24-19.54,5.01C5.58,22,1.81,30.35,1.08,38.64c-.19,2.09-.31,4.2-.06,6.26.18,1.16.26,2.54,1.06,3.33.18.12.41-.05.58-.18,2.22-1.49,5.01-1.66,7.52-1.85,6.39-.28,12.78.52,19.11,1.14,2.02.17,4.19.41,6.09-.25,1.88-.63,2.77-2.72,3.42-4.68.03-.1.14-.16.24-.12.09.03.15.13.13.22-.2,1.05-.47,2.11-1,3.1-.96,2.16-3.58,2.92-5.75,2.88-7.42-.32-14.77-1.76-22.21-1.36-2.62.17-5.3.37-7.42,1.91C-.7,50.26-.01,40.45.19,38.55c.43-4.26,1.53-8.5,3.53-12.33,5.39-10.7,17.23-14.74,28.58-14.6,16.21-.05,31.43,10.13,31.75,27.4-.02,5.49,1.21,10.47,6.42,13.21,3.16,1.57,7.14,2.3,10.51,1.02,2.85-1.12-2.3-7.55-3.13-9.25-1.99-3.4,1.02-3.45,3.56-3.1,5.74,1.03,8,7.37,8.15,12.56,0,0,0,.01,0,.01l-.18-.19c5.48.5,12.25,2.85,13.62,8.85.19.72.18,1.45.25,2.2.01.4-.17.95-.6,1.23-.42.27-.86.29-1.25.29-4.3-.53-8.02-3.11-12.08-4.16-.61-.14-1.21-.29-1.79-.04-1.18.46-3.83,3.05-4.87,3.85-6.5,5.65-14.82,8.99-23.32,10.01-4.82.71-10.06.54-14.92.33-6.96-.56-14.32-1.8-20.76-4.6-7.23-2.99-13.75-8.07-17.67-14.93-1.44-2.46-2.56-5.11-3.26-7.88-.03-.1.04-.21.14-.23.1-.03.21.04.23.14h0Z"/>
      <path class="cls-12" d="m38.14,45.25c4.5,16.56,20.05,32.32,37.92,23.39,2.21-1.05,4.29-2.37,6.31-3.77.09-.06.21-.04.27.05.06.08.04.2-.04.26-1.96,1.53-4.02,2.94-6.25,4.07-12.53,6.43-25.01.59-32.43-10.41-2.83-4.09-4.94-8.68-6.16-13.5-.03-.1.04-.21.14-.23.1-.03.21.04.23.14h0Z"/>
      <circle class="cls-13" cx="12.25" cy="41.46" r=".54"/>
      <path class="cls-5" d="m41.22,43.08c1.77-.59,3.36-.74,4.58,0"/>
      <ellipse class="cls-5" cx="49.36" cy="48.37" rx="2.57" ry="1.33"/>
      <path class="cls-5" d="m37.95,57.22c6.34,11.67,21.25,18.65,31.73,15.34"/>
      <path class="cls-5" d="m35.39,50.28c.44,2.13,1.17,4.17,2.13,6.09"/>
      <path class="cls-5" d="m41.63,67.65c5.47,4.39,13.16,6.8,24.3,6.09"/>
      <path class="cls-5" d="m33.17,56.38c1.93,4.12,4.39,7.76,7.7,10.64"/>
      <path class="cls-5" d="m30.44,49.2c.4,1.26.82,2.5,1.28,3.71"/>
      <path class="cls-5" d="m32.12,65.3c5.21,6.73,13.98,10.77,29.98,9.32"/>
      <path class="cls-5" d="m25.47,49.7c1.21,5.01,2.77,9.74,5.33,13.73"/>
      <path class="cls-5" d="m24.21,61.4c4.57,8.53,12.37,13.84,25.15,14.21"/>
      <path class="cls-5" d="m20.3,50.28c.74,3.37,1.72,6.5,3.02,9.31"/>
      <path class="cls-5" d="m15.17,57.56c3.7,9.16,11.07,15.09,22.79,17.19"/>
      <path class="cls-5" d="m12.8,48.37c.2,1.47.47,2.88.8,4.24"/>
      <path class="cls-5" d="m7.53,51.2c1.97,9.57,8.28,16.14,17.95,20.39"/>
      <path class="cls-5" d="m35.97,55.32c1.36,3.77,6.47,10.8,11.63,13.54"/>
      <path class="cls-5" d="m36.25,68.33c3.22,2.6,7.48,4.44,13.66,5.65"/>
      <path class="cls-5" d="m23.73,58.73c4.16,9.6,11.65,14.96,23.86,16.89"/>
      <path class="cls-5" d="m20.79,55.62c4.21,12.8,12.05,18.57,22.28,19.7"/>
      <path class="cls-5" d="m11.97,59.83c2.73,4.69,9.84,9.56,15.07,12.34"/>
      <path class="cls-5" d="m13.85,49.7c.78,4.54,2.39,9.45,5.33,13.36"/>
      <path class="cls-5" d="m19.5,63.78c3.98,4.7,9.03,8.4,15.89,10.43"/>
      <circle class="cls-13" cx="4.42" cy="41.89" r=".54"/>
      <circle class="cls-13" cx="8.05" cy="41.35" r=".54"/>
    </g>
    <path class="cls-8" d="m46.93,59.83s-2.58,19.59,14.78,19.59c1.25,0-.83-4.13-1.49-5.04-.64-.88-.17-2.04-.36-3.65-.18-1.44-4.1-6.21-4.1-6.21"/>
    <g>
      <path class="cls-10" d="m46.93,59.83s-2.58,19.59,14.78,19.59c1.25,0-.83-4.13-1.49-5.04-.64-.88-.17-2.04-.36-3.65-.18-1.44-4.1-6.21-4.1-6.21"/>
      <g class="cls-2">
        <path class="cls-9" d="m46.8,62.05c2.06,10.4,7.4,16.2,16.06,17.36,0,0-16.32,3.62-18.4.96-2.08-2.66,2.34-18.32,2.34-18.32"/>
        <path class="cls-8" d="m55.53,66c1.07-.13,3.47,4.1,3.58,4.97.08.62-.11,2.77.17,3.41.14.32,2.29,2.8,1.54,3.33-3.18,2.25-9.15-11.26-5.29-11.71Z"/>
      </g>
    </g>
    <path class="cls-12" d="m47.12,59.85c-.84,9.94,3.29,19.38,14.52,19.22.08,0,.07-.01.07,0,.01.01.02,0,0,0,.07-.16.02-.46-.03-.7-.33-1.3-.98-2.61-1.68-3.74-.32-.41-.45-1.02-.44-1.5-.02-.9.17-1.89-.1-2.71-.96-2.09-2.47-3.93-3.87-5.78-.16-.19.14-.44.3-.24,1.21,1.45,2.39,2.92,3.43,4.53.55.79.96,1.84.88,2.79.02.96-.2,1.93.32,2.56.79,1.26,1.43,2.52,1.81,3.94.07.31.15.71.03,1.06-.05.28-.47.52-.73.48-3.82.06-7.82-1.08-10.57-3.87-4.06-4.2-4.93-10.51-4.33-16.09.03-.25.42-.21.38.05h0Z"/>
    <path class="cls-1" d="m29.94,14.19c-5.19,0-16.35,3.63-14.77,4.91.99.81,11.92,1.83,14.16-1.08,2.25-2.91,8.4-1.23,9.07-1.83,1.66-1.5-3.28-2-8.46-2Z"/>
  </g>
</svg>