<?xml version="1.0" encoding="UTF-8"?>
<svg id="Layer_1" data-name="Layer 1" xmlns="http://www.w3.org/2000/svg" viewBox="0 0 30 30">
  <defs>
    <style>
      .cls-1 {
        fill: #2b3f8a;
      }
    </style>
  </defs>
  <path class="cls-1" d="m15,30C6.73,30,0,23.27,0,15S6.73,0,15,0s15,6.73,15,15-6.73,15-15,15Zm0-28C7.83,2,2,7.83,2,15s5.83,13,13,13,13-5.83,13-13S22.17,2,15,2Z"/>
  <path class="cls-1" d="m14.95,30c-5.93,0-8.64-7.78-8.64-15,0-3.82.71-7.39,2.01-10.06C9.89,1.71,12.18,0,14.95,0c.55,0,1,.45,1,1v28c0,.55-.45,1-1,1Zm-1-27.88c-3.71.92-5.64,6.93-5.64,12.88s1.93,11.96,5.64,12.88V2.12Z"/>
  <path class="cls-1" d="m14.75,30c-.55,0-1-.45-1-1s.45-1,1-1c2.46,0,3.99-2.07,4.83-3.81,1.15-2.37,1.81-5.72,1.81-9.19,0-6.46-2.28-13-6.64-13-.55,0-1-.45-1-1s.45-1,1-1c5.93,0,8.64,7.78,8.64,15s-2.7,15-8.64,15Z"/>
  <path class="cls-1" d="m15,18.03c-3.71,0-7.17-.18-9.75-.52-3.78-.49-5.25-1.19-5.25-2.51,0-.55.45-1,1-1,.45,0,.84.3.96.71,2.39,1.74,23.69,1.74,26.08,0,.12-.41.51-.71.96-.71.55,0,1,.45,1,1,0,.75,0,3.03-15,3.03Zm-13-3.03h0,0Z"/>
</svg>