<?xml version="1.0" encoding="UTF-8"?>
<svg id="Layer_1" data-name="Layer 1" xmlns="http://www.w3.org/2000/svg" viewBox="0 0 30 30">
  <defs>
    <style>
      .cls-1 {
        fill: #e3f4ff;
      }

      .cls-2 {
        fill: #2b3f8a;
      }
    </style>
  </defs>
  <circle class="cls-2" cx="15" cy="15" r="15"/>
  <g>
    <path class="cls-1" d="m22.27,24.39H7.73c-1.17,0-2.12-.95-2.12-2.12V7.73c0-1.17.95-2.12,2.12-2.12h14.54c1.17,0,2.12.95,2.12,2.12v14.54c0,1.17-.95,2.12-2.12,2.12ZM7.73,6.61c-.62,0-1.12.5-1.12,1.12v14.54c0,.62.5,1.12,1.12,1.12h14.54c.62,0,1.12-.5,1.12-1.12V7.73c0-.62-.5-1.12-1.12-1.12H7.73Z"/>
    <path class="cls-1" d="m11.8,6.11h6.61v9.6c0,.39-.32.7-.7.7h-5.2c-.39,0-.7-.32-.7-.7V6.11h0Z"/>
    <path class="cls-1" d="m12.16,21.72h-4.01c-.28,0-.5-.22-.5-.5s.22-.5.5-.5h4.01c.28,0,.5.22.5.5s-.22.5-.5.5Z"/>
    <path class="cls-1" d="m14.58,21.72h-.62c-.28,0-.5-.22-.5-.5s.22-.5.5-.5h.62c.28,0,.5.22.5.5s-.22.5-.5.5Z"/>
  </g>
</svg>