<?xml version="1.0" encoding="UTF-8"?>
<svg id="Layer_1" data-name="Layer 1" xmlns="http://www.w3.org/2000/svg" viewBox="0 0 30 30">
  <defs>
    <style>
      .cls-1 {
        fill: #2b3f8a;
      }

      .cls-2 {
        fill: none;
        stroke: #2b3f8a;
        stroke-linecap: round;
        stroke-linejoin: round;
        stroke-width: 2px;
      }
    </style>
  </defs>
  <g>
    <path class="cls-1" d="m29.34,13.23c-.94-.97-2.25-2.21-3.85-3.4l-1.74,1.2c1.72,1.21,3.14,2.55,4.15,3.59.13.14.13.63,0,.76-2.45,2.54-7.38,6.8-12.9,6.8-1.94,0-3.81-.52-5.51-1.31l-1.87,1.29c2.2,1.18,4.72,2.02,7.38,2.02,6.31,0,11.77-4.74,14.34-7.41.88-.91.88-2.63,0-3.54ZM2.09,15.38c-.13-.13-.13-.62,0-.76,2.45-2.54,7.38-6.8,12.91-6.8,2.41,0,4.72.81,6.75,1.95l1.8-1.25c-2.47-1.52-5.41-2.7-8.55-2.7-6.32,0-11.78,4.75-14.35,7.41-.87.91-.87,2.63,0,3.54,1.13,1.17,2.83,2.76,4.91,4.16l1.79-1.23c-2.21-1.37-4.05-3.06-5.26-4.32Z"/>
    <path class="cls-1" d="m21.49,12.59l-1.66,1.15c.38.4.59.84.59,1.26,0,1.4-2.32,2.96-5.42,2.96-.41,0-.81-.03-1.18-.08l-2.21,1.53c1.01.35,2.17.55,3.39.55,4.1,0,7.42-2.22,7.42-4.96,0-.87-.34-1.69-.93-2.41Zm-11.92,2.41c0-1.4,2.32-2.96,5.43-2.96,1.03,0,1.98.17,2.78.46l1.94-1.33c-1.28-.7-2.93-1.13-4.72-1.13-4.1,0-7.43,2.22-7.43,4.96,0,1.25.7,2.4,1.85,3.27l1.78-1.23c-1.02-.56-1.63-1.32-1.63-2.04Z"/>
  </g>
  <line class="cls-2" x1="2.17" y1="23.28" x2="27.47" y2="5.82"/>
</svg>