<?xml version="1.0" encoding="UTF-8"?>
<svg id="Layer_1" data-name="Layer 1" xmlns="http://www.w3.org/2000/svg" viewBox="0 0 33.57 30.49">
  <defs>
    <style>
      .cls-1 {
        fill: #2b3f8a;
      }
    </style>
  </defs>
  <path class="cls-1" d="m3.5,23.31s-.01,0-.02,0c-.14,0-.26-.06-.35-.17C1.1,20.89,0,17.99,0,14.96,0,8.22,5.47,2.74,12.21,2.74s12.23,5.48,12.23,12.22c0,2.87-1.01,5.66-2.86,7.86-.15.18-.41.23-.62.12-.19-.1-.42-.16-.64-.16H4.81c-.36,0-.7.14-.96.39-.09.09-.22.14-.35.14ZM12.21,3.74C6.02,3.74.99,8.77.99,14.96c0,2.62.91,5.15,2.58,7.17.37-.23.8-.35,1.24-.35h15.51c.25,0,.49.04.73.11,1.55-1.97,2.39-4.42,2.39-6.93,0-6.19-5.04-11.22-11.23-11.22Z"/>
  <path class="cls-1" d="m17.45,22.78H6.98c-.1,0-.21-.03-.29-.09-2.49-1.78-3.98-4.67-3.98-7.73,0-5.24,4.26-9.5,9.5-9.5s9.51,4.26,9.51,9.5c0,3.06-1.49,5.95-3.98,7.73-.08.06-.19.09-.29.09Zm-10.31-1h10.14c2.15-1.6,3.43-4.14,3.43-6.82,0-4.69-3.82-8.5-8.51-8.5S3.71,10.27,3.71,14.96c0,2.68,1.28,5.22,3.43,6.82Z"/>
  <path class="cls-1" d="m20.39,29.66H4.74c-2.23,0-4.05-1.82-4.05-4.05v-.53c0-.28.22-.5.5-.5h22.75c.28,0,.5.22.5.5v.53c0,2.23-1.82,4.05-4.05,4.05ZM1.69,25.58v.03c0,1.68,1.37,3.05,3.05,3.05h15.65c1.68,0,3.05-1.37,3.05-3.05v-.03H1.69Z"/>
  <path class="cls-1" d="m32.77,29.35h-6.72c-.28,0-.5-.22-.5-.5v-15.32c0-.28.22-.5.5-.5h6.72c.28,0,.5.22.5.5v15.32c0,.28-.22.5-.5.5Zm-6.22-1h5.72v-14.32h-5.72v14.32Z"/>
  <path class="cls-1" d="m32.77,14.03h-6.72c-.28,0-.5-.22-.5-.5v-3.98c0-.28.22-.5.5-.5h6.72c.28,0,.5.22.5.5v3.98c0,.28-.22.5-.5.5Zm-6.22-1h5.72v-2.98h-5.72v2.98Z"/>
  <path class="cls-1" d="m31.87,10.06h-4.92c-.28,0-.5-.22-.5-.5v-4.92c0-.16.08-.32.22-.41.13-.09.31-.11.46-.06,2.11.8,3.2-.57,4.28-3.05.09-.22.33-.34.56-.29.23.05.4.25.4.49v8.23c0,.28-.22.5-.5.5Zm-4.42-1h3.92V3.41c-.79,1.23-2,2.33-3.92,1.91v3.75Z"/>
  <path class="cls-1" d="m26.96,5.14c-.28,0-.5-.22-.5-.5,0-2.25,2.85-3.81,5.42-3.81.28,0,.5.22.5.5s-.22.5-.5.5c-2.27,0-4.42,1.37-4.42,2.81,0,.28-.22.5-.5.5Z"/>
  <path class="cls-1" d="m22.21,25.58H2.91c-.28,0-.5-.22-.5-.5v-.9c0-.65.27-1.29.75-1.73.44-.43,1.03-.67,1.65-.67h15.51c.39,0,.78.1,1.12.28.78.42,1.27,1.23,1.27,2.12v.9c0,.28-.22.5-.5.5Zm-18.8-1h18.3v-.4c0-.52-.29-.99-.75-1.24-.2-.11-.42-.16-.64-.16H4.81c-.36,0-.7.14-.96.39-.28.27-.44.63-.44,1.01v.4Z"/>
  <path class="cls-1" d="m12.21,20.25c-.16,0-.32-.08-.42-.23-.15-.23-.08-.54.15-.69l6.92-4.48c.23-.15.54-.08.69.15.15.23.08.54-.15.69l-6.92,4.48c-.08.05-.18.08-.27.08Z"/>
  <path class="cls-1" d="m15.37,20.25c-.16,0-.32-.08-.42-.22-.15-.23-.09-.54.14-.69l2.25-1.52c.23-.15.54-.09.69.14.15.23.09.54-.14.69l-2.25,1.52c-.09.06-.18.09-.28.09Z"/>
</svg>