<?xml version="1.0" encoding="UTF-8"?>
<svg id="Layer_1" data-name="Layer 1" xmlns="http://www.w3.org/2000/svg" viewBox="0 0 30 30">
  <defs>
    <style>
      .cls-1 {
        fill: #2b3f8a;
      }
    </style>
  </defs>
  <path class="cls-1" d="m15,1c7.72,0,14,6.28,14,14s-6.28,14-14,14c-4.83,0-9.27-2.45-11.85-6.54-.17-.27-.36-.59-.53-.94-1.06-1.99-1.61-4.24-1.61-6.52,0-2.63.74-5.2,2.14-7.43.2-.33.41-.64.63-.93C6.44,3.05,10.53,1,15,1m0-1C10.07,0,5.7,2.37,2.97,6.04c-.24.32-.47.66-.68,1C.84,9.35,0,12.08,0,15c0,2.52.62,4.9,1.73,6.99.17.35.37.68.57,1,2.66,4.21,7.35,7.01,12.7,7.01,8.28,0,15-6.71,15-15S23.28,0,15,0h0Z"/>
  <path class="cls-1" d="m15.74,6.04H2.97c-.24.32-.47.66-.68,1h12.95v14.95h-2.02s0-.06-.03-.09c-.01-.08-.04-.16-.08-.24,0-.02-.01-.04-.02-.06-.03-.09-.08-.18-.13-.26-.02-.04-.05-.08-.08-.12-.25-.37-.6-.67-1.02-.84-.05-.02-.11-.04-.16-.06-.08-.02-.17-.05-.25-.06-.05-.01-.1-.02-.16-.03-.1-.01-.2-.02-.3-.02s-.2.01-.3.02c-.05.01-.11.02-.16.03-.37.07-.7.24-.99.47-.09.08-.17.16-.25.25-.07.07-.13.15-.19.24-.02.03-.04.06-.05.09-.13.21-.23.44-.28.68H1.73c.17.35.37.68.57,1h6.91c.28,0,.5-.22.5-.5,0-.71.58-1.28,1.28-1.28s1.28.56,1.28,1.28c0,.28.23.5.5.5h2.97c.28,0,.5-.22.5-.5V6.54c0-.28-.22-.5-.5-.5Z"/>
  <path class="cls-1" d="m18.06,22.99h-2.32c-.28,0-.5-.22-.5-.5s.22-.5.5-.5h2.32c.28,0,.5.22.5.5s-.22.5-.5.5Z"/>
  <path class="cls-1" d="m23.93,22.99h-2.31c-.28,0-.5-.22-.5-.5s.22-.5.5-.5h1.81v-6.73l-3.65-3.65h-4.04c-.28,0-.5-.22-.5-.5s.22-.5.5-.5h4.25c.13,0,.26.05.35.15l3.94,3.94c.09.09.15.22.15.35v7.44c0,.28-.22.5-.5.5Z"/>
  <path class="cls-1" d="m22.06,21.99c-.22-1.02-1.13-1.78-2.21-1.78s-2,.76-2.23,1.78c-.04.16-.06.33-.06.5s.02.34.06.5c.23,1.02,1.14,1.78,2.23,1.78s1.99-.76,2.21-1.78c.04-.16.06-.33.06-.5s-.02-.34-.06-.5Zm-2.21,1.78c-.71,0-1.29-.57-1.29-1.28s.57-1.28,1.29-1.28,1.27.57,1.27,1.28-.57,1.28-1.27,1.28Z"/>
  <path class="cls-1" d="m13.19,21.9c-.01-.08-.04-.16-.08-.24,0-.02-.01-.04-.02-.06-.03-.09-.08-.18-.13-.26-.02-.04-.05-.08-.08-.12-.25-.37-.6-.67-1.02-.84-.05-.02-.11-.04-.16-.06-.08-.02-.17-.05-.25-.06-.05-.01-.1-.02-.16-.03-.1-.01-.2-.02-.3-.02s-.2.01-.3.02c-.05.01-.11.02-.16.03-.37.07-.7.24-.99.47-.09.08-.17.16-.25.25-.07.07-.13.15-.19.24-.02.03-.04.06-.05.09-.13.21-.23.44-.28.68-.04.16-.06.33-.06.5s.02.34.06.5c.23,1.02,1.14,1.78,2.22,1.78s2-.76,2.22-1.78c.04-.16.06-.33.06-.5,0-.2-.03-.4-.08-.59Zm-2.2,1.87c-.7,0-1.28-.57-1.28-1.28s.58-1.28,1.28-1.28,1.28.56,1.28,1.28-.57,1.28-1.28,1.28Z"/>
</svg>