<?xml version="1.0" encoding="UTF-8"?>
<svg id="Layer_1" data-name="Layer 1" xmlns="http://www.w3.org/2000/svg" viewBox="0 0 33.57 30.49">
  <defs>
    <style>
      .cls-1 {
        fill: #2b3f8a;
      }
    </style>
  </defs>
  <path class="cls-1" d="m11.15,30c-.17,0-.35-.01-.52-.05-1.05-.19-2-.92-2.89-2.24-2.31-3.44-2.62-7.89-.79-11.34,1.89-3.54,5.58-5.5,10.39-5.5s8.5,1.95,10.39,5.5c1.84,3.45,1.53,7.9-.79,11.34-.89,1.32-1.83,2.06-2.89,2.24-1.58.28-3.01-.77-4.27-1.69-.9-.66-1.75-1.28-2.44-1.28s-1.54.62-2.44,1.28c-1.12.82-2.38,1.73-3.75,1.73Zm6.19-18.12c-4.42,0-7.8,1.76-9.5,4.97-1.67,3.13-1.38,7.17.73,10.31.73,1.09,1.46,1.68,2.23,1.81,1.16.21,2.35-.67,3.51-1.51,1.04-.76,2.02-1.47,3.03-1.47s2,.71,3.03,1.47c1.16.84,2.35,1.72,3.51,1.51.77-.14,1.5-.73,2.23-1.81,2.11-3.13,2.4-7.18.73-10.31-1.7-3.2-5.08-4.97-9.5-4.97Z"/>
  <path class="cls-1" d="m11.14,10.44c-2.05,0-3.72-2.08-3.72-4.63s1.67-4.63,3.72-4.63,3.72,2.08,3.72,4.63-1.67,4.63-3.72,4.63Zm0-8.27c-1.5,0-2.72,1.63-2.72,3.63s1.22,3.63,2.72,3.63,2.72-1.63,2.72-3.63-1.22-3.63-2.72-3.63Z"/>
  <path class="cls-1" d="m20.57,9.75c-2.05,0-3.72-2.08-3.72-4.63S18.52.49,20.57.49s3.72,2.08,3.72,4.63-1.67,4.63-3.72,4.63Zm0-8.27c-1.5,0-2.72,1.63-2.72,3.63s1.22,3.63,2.72,3.63,2.72-1.63,2.72-3.63-1.22-3.63-2.72-3.63Z"/>
  <path class="cls-1" d="m29.39,14.57c-2.05,0-3.72-2.08-3.72-4.63s1.67-4.63,3.72-4.63,3.72,2.08,3.72,4.63-1.67,4.63-3.72,4.63Zm0-8.27c-1.5,0-2.72,1.63-2.72,3.63s1.22,3.63,2.72,3.63,2.72-1.63,2.72-3.63-1.22-3.63-2.72-3.63Z"/>
  <path class="cls-1" d="m3.31,17.71c-1.74,0-3.16-1.75-3.16-3.91s1.42-3.91,3.16-3.91,3.16,1.75,3.16,3.91-1.42,3.91-3.16,3.91Zm0-6.82c-1.19,0-2.16,1.31-2.16,2.91s.97,2.91,2.16,2.91,2.16-1.3,2.16-2.91-.97-2.91-2.16-2.91Z"/>
  <path class="cls-1" d="m16.88,23.19c-.66,0-1.32-.22-1.87-.65h0c-1.79-1.41-2.7-2.71-2.7-3.86,0-.92.26-1.69.74-2.22.96-1.05,2.9-.94,3.82.31.92-1.26,2.86-1.36,3.82-.31.48.53.74,1.3.74,2.22,0,1.15-.91,2.45-2.7,3.86-.55.43-1.21.65-1.87.65Zm-2.1-6.48c-.39,0-.74.15-.99.42-.31.34-.48.88-.48,1.55,0,.8.82,1.9,2.32,3.08h0c.73.58,1.76.58,2.49,0,1.49-1.18,2.32-2.27,2.32-3.08,0-.67-.17-1.2-.48-1.55-.76-.83-2.58-.31-2.58,1.22,0,.28-.22.5-.5.5s-.5-.22-.5-.5c0-1.03-.81-1.64-1.6-1.64Z"/>
</svg>