<?xml version="1.0" encoding="UTF-8"?>
<svg id="Layer_1" data-name="Layer 1" xmlns="http://www.w3.org/2000/svg" viewBox="0 0 33.57 30.49">
  <defs>
    <style>
      .cls-1 {
        fill: #2b3f8a;
      }
    </style>
  </defs>
  <path class="cls-1" d="m3.44,22.05c-.19,0-.37-.11-.45-.29-.97-2.05-1.46-4.25-1.46-6.52,0-1.04.1-2.07.31-3.06.04-.18.17-.33.35-.38.18-.05.37,0,.5.14.4.43.87.76,1.37.96.2.08.32.28.31.49l-.44,8.19c-.01.23-.18.42-.4.46-.03,0-.06,0-.1,0Zm-.77-8.8c-.09.65-.14,1.32-.14,1.99,0,1.33.18,2.64.54,3.9l.29-5.47c-.24-.12-.47-.26-.69-.43Z"/>
  <path class="cls-1" d="m16.78,30.49c-3.73,0-7.31-1.36-10.09-3.83-.1-.09-.16-.21-.17-.35l-.7-12.78c-.01-.23.14-.45.37-.51,1.96-.54,3.38-2.87,3.38-5.54,0-.49-.04-.93-.13-1.32-.2-1.12-.63-2.1-1.26-2.84-.09-.11-.13-.25-.11-.39.02-.14.1-.27.22-.35C10.79.89,13.73,0,16.78,0c3.25,0,6.35,1,8.95,2.91.13.09.21.24.21.4v8.1c0,.96.78,1.74,1.74,1.74h.16c.14,0,.27.06.36.16.09.1.14.23.14.37l-.65,12.04c0,.12-.06.24-.15.33-2.88,2.87-6.7,4.45-10.76,4.45Zm-9.27-4.44c2.57,2.22,5.86,3.44,9.27,3.44,3.73,0,7.25-1.43,9.92-4.02l.61-11.34c-1.34-.18-2.37-1.33-2.37-2.72V3.57c-2.39-1.68-5.21-2.57-8.16-2.57-2.67,0-5.24.73-7.49,2.13.56.8.95,1.78,1.14,2.85.1.45.15.95.15,1.52,0,2.99-1.51,5.55-3.73,6.38l.67,12.19Z"/>
  <path class="cls-1" d="m27.66,10.24c-.68,0-1.17-.49-1.17-1.12v-4.51c0-.2.12-.38.3-.46.18-.08.39-.04.54.09.46.43.91.92,1.34,1.45.07.09.11.2.11.31v3.11c0,.62-.5,1.12-1.12,1.12Zm-.17-4.39v3.27c0,.07.04.12.11.12.12,0,.18-.04.18-.12v-2.93c-.1-.12-.19-.23-.29-.34Z"/>
  <path class="cls-1" d="m30.47,10.24h-.01c-.61-.02-1.1-.51-1.1-1.12v-.7c0-.23.16-.43.38-.49.23-.06.46.05.56.26.26.51.46.95.63,1.36.06.16.04.33-.05.47-.09.13-.25.21-.41.21Z"/>
  <path class="cls-1" d="m30.66,20.75s-.05,0-.07,0c-.24-.03-.41-.23-.43-.47l-.36-6.6c0-.14.04-.27.14-.37.09-.1.23-.16.36-.16h.16c.25,0,.5-.06.75-.17.15-.06.31-.06.45.02.14.08.23.21.25.37.08.61.12,1.24.12,1.87,0,1.77-.3,3.52-.9,5.18-.07.2-.26.33-.47.33Zm.17-6.62l.14,2.5c.04-.46.07-.92.07-1.39,0-.38-.02-.76-.05-1.14-.05.01-.1.02-.15.03Z"/>
  <path class="cls-1" d="m16.78,27.2c-4.37,0-8.4-2.39-10.51-6.24-.04-.07-.06-.14-.06-.21l-.39-7.21c-.01-.23.14-.45.37-.51,1.96-.54,3.38-2.87,3.38-5.54,0-.49-.04-.93-.13-1.32-.04-.19.03-.39.19-.51,2.08-1.55,4.56-2.37,7.15-2.37,3.47,0,6.77,1.51,9.04,4.13.08.09.12.21.12.33v3.66c0,.96.78,1.74,1.74,1.74h.16c.14,0,.27.06.36.16.09.1.14.23.14.37l-.3,5.56c0,.05-.01.12-.03.17-1.76,4.66-6.27,7.79-11.23,7.79Zm-9.58-6.62c1.95,3.47,5.61,5.62,9.58,5.62,4.52,0,8.64-2.84,10.27-7.08l.27-5c-1.34-.18-2.37-1.33-2.37-2.72v-3.47c-2.08-2.32-5.04-3.65-8.16-3.65-2.27,0-4.44.69-6.3,1.99.06.38.09.77.09,1.21,0,2.99-1.51,5.55-3.73,6.38l.36,6.71Z"/>
  <path class="cls-1" d="m5.1,29.66c-.68,0-1.34-.28-1.8-.78-.47-.5-.7-1.14-.66-1.82l.72-13.38c-.51-.26-.99-.61-1.4-1.05C.76,11.36.07,9.49.07,7.49.07,3.82,2.42.83,5.32.83c1.37,0,2.66.66,3.63,1.86.74.87,1.25,2.01,1.47,3.29.1.45.15.95.15,1.52,0,2.99-1.51,5.55-3.73,6.38l.72,13.2c.04.68-.2,1.33-.67,1.83-.46.49-1.11.77-1.79.77Zm.22-27.83C2.97,1.83,1.07,4.37,1.07,7.49c0,1.75.59,3.37,1.62,4.44.4.43.88.76,1.38.96.2.08.32.28.31.49l-.74,13.73c-.02.41.11.79.39,1.08.55.59,1.57.6,2.13,0,.28-.29.42-.68.4-1.09l-.74-13.58c-.01-.23.14-.45.37-.51,1.96-.54,3.38-2.87,3.38-5.54,0-.49-.04-.93-.13-1.32-.2-1.12-.63-2.1-1.26-2.84-.78-.97-1.79-1.49-2.86-1.49Z"/>
  <path class="cls-1" d="m29.07,29.66c-.68,0-1.32-.27-1.79-.77-.47-.49-.71-1.15-.67-1.83l.7-12.94c-1.34-.18-2.37-1.33-2.37-2.72V2.1c0-.7.57-1.27,1.27-1.27s1.28.57,1.28,1.27v7.02c0,.07.04.12.11.12.12,0,.18-.04.18-.12V2.1c0-.7.57-1.27,1.27-1.27.74,0,1.31.57,1.31,1.27v7.02c0,.09.06.12.12.12.11,0,.18-.04.18-.12V2.1c0-.7.57-1.27,1.27-1.27s1.27.57,1.27,1.27v9.31c0,1.05-.62,2.03-1.58,2.48-.26.12-.53.2-.8.23l.7,12.94c.04.69-.2,1.34-.67,1.83-.47.49-1.1.77-1.79.77ZM26.22,1.83c-.16,0-.28.12-.28.27v9.31c0,.96.78,1.74,1.74,1.74h.16c.14,0,.27.06.36.16.09.1.14.23.14.37l-.73,13.44c-.02.41.12.79.4,1.09.56.59,1.57.59,2.12,0,.28-.29.42-.68.4-1.09l-.73-13.44c0-.14.04-.27.14-.37.09-.1.23-.16.36-.16h.16c.25,0,.5-.06.75-.17.61-.29.99-.89.99-1.57V2.1c0-.31-.54-.31-.54,0v7.02c0,.62-.5,1.12-1.12,1.12-.7-.02-1.18-.51-1.18-1.12V2.1c0-.15-.12-.27-.27-.27-.19,0-.31.12-.31.27v7.02c0,.62-.5,1.12-1.12,1.12-.68,0-1.17-.49-1.17-1.12V2.1c0-.15-.12-.27-.27-.27Z"/>
</svg>