<?xml version="1.0" encoding="UTF-8"?>
<svg id="Layer_1" data-name="Layer 1" xmlns="http://www.w3.org/2000/svg" viewBox="0 0 226.9 210">
  <defs>
    <style>
      .cls-1 {
        stroke-dasharray: 0 0 6.15 6.15;
      }

      .cls-1, .cls-2 {
        fill: none;
        stroke: #ff69aa;
      }

      .cls-1, .cls-2, .cls-3, .cls-4, .cls-5, .cls-6, .cls-7, .cls-8 {
        stroke-linecap: round;
        stroke-linejoin: round;
      }

      .cls-3 {
        fill: #33a0e9;
      }

      .cls-3, .cls-4, .cls-5, .cls-6, .cls-7, .cls-8 {
        stroke: #2b3f8a;
      }

      .cls-9, .cls-7 {
        fill: #f5fbff;
      }

      .cls-4, .cls-10 {
        fill: #2b3f8a;
      }

      .cls-5 {
        fill: #f5eb60;
      }

      .cls-6 {
        fill: #ff69aa;
      }

      .cls-8 {
        fill: #8cddff;
      }
    </style>
  </defs>
  <path class="cls-7" d="m75.89,86.57c0,2.25-1.82,4.07-4.07,4.07h-33.13c-4.6,0-8.34-3.74-8.34-8.35s3.74-8.34,8.34-8.34c1.8,0,3.48.58,4.85,1.55.37-5.35,4.82-9.55,10.26-9.55s10.29,4.6,10.29,10.29c0,.08,0,.16,0,.24.54-.16,1.1-.24,1.68-.24,3.35,0,6.06,2.71,6.06,6.06,0,.07,0,.14,0,.21h0c2.25,0,4.07,1.82,4.07,4.07Z"/>
  <path class="cls-7" d="m169.27,94.23c0,1.92-1.55,3.48-3.48,3.48h-28.32c-3.93,0-7.13-3.2-7.13-7.14s3.2-7.13,7.13-7.13c1.54,0,2.97.49,4.14,1.32.32-4.57,4.12-8.17,8.77-8.17s8.79,3.93,8.79,8.79c0,.07,0,.14,0,.2.46-.14.94-.2,1.44-.2,2.86,0,5.18,2.32,5.18,5.18,0,.06,0,.12,0,.18h0c1.93,0,3.48,1.55,3.48,3.48Z"/>
  <g>
    <polygon class="cls-9" points=".89 200.93 39.82 137.1 195.03 137.1 226.1 200.93 .89 200.93"/>
    <path class="cls-10" d="m194.72,137.6l30.59,62.83H1.78l38.32-62.83h154.62m.63-1H39.54L0,201.43h226.9l-31.56-64.83h0Z"/>
  </g>
  <polygon class="cls-8" points="218.91 196.43 8.91 196.43 42.34 141.6 192.21 141.6 218.91 196.43"/>
  <path class="cls-4" d="m110.65,144.86s10.68-15.4,22.17-26.24,14.96-9.11,21.25-2.17,12.36,17.78,19.08,17.78,18.22,13.06,17.57,16.92c-1.72,10.12-82.07,1.96-80.08-6.29Z"/>
  <path class="cls-5" d="m144.77,155.53h-30.86s0-13.93,0-13.93h40.06c-.23,4.55-1.91,9.15-9.2,13.93Z"/>
  <polygon class="cls-5" points="129.43 141.6 111.32 141.6 111.32 136.07 127.76 136.07 129.43 141.6"/>
  <polygon class="cls-5" points="127.76 136.12 111.32 136.12 111.32 130.59 126.1 130.59 127.76 136.12"/>
  <path class="cls-4" d="m31.3,159.88c-.27-9.52,15.1-26.12,22.91-26.12s12.8-6.93,20.17-14.52,21.9-3.25,26.89,4.55,25.19,30.78,34.48,29.2,13.88,6.8,13.88,9.61-118.06,6.84-118.33-2.73Z"/>
  <rect class="cls-5" x="112.87" y="125.77" width="3.54" height="4.82"/>
  <rect class="cls-5" x="119.09" y="125.77" width="3.54" height="4.82"/>
  <circle class="cls-5" cx="137.98" cy="145.67" r="1.03"/>
  <circle class="cls-5" cx="142.62" cy="145.67" r="1.03"/>
  <circle class="cls-5" cx="147.31" cy="145.67" r="1.03"/>
  <rect class="cls-3" x="132.25" y="136.6" width="5" height="5"/>
  <rect class="cls-5" x="137.25" y="136.6" width="5" height="5"/>
  <rect class="cls-8" x="142.31" y="136.6" width="5" height="5"/>
  <rect class="cls-6" x="147.31" y="136.6" width="5" height="5"/>
  <rect class="cls-7" x="132.25" y="131.6" width="5" height="5"/>
  <rect class="cls-8" x="137.25" y="131.6" width="5" height="5"/>
  <rect class="cls-7" x="142.31" y="131.6" width="5" height="5"/>
  <rect class="cls-6" x="132.25" y="126.6" width="5" height="5"/>
  <rect class="cls-3" x="137.25" y="126.6" width="5" height="5"/>
  <rect class="cls-5" x="142.31" y="126.6" width="5" height="5"/>
  <rect class="cls-3" x="147.31" y="131.6" width="5" height="5"/>
  <path class="cls-4" d="m134.75,186.28c-2.71-5.19,16.3-17.57,22.37-14.53,6.07,3.04,10.84-10.63,16.92-8.46s10.46,15.83,16.73,16.48,6.7-6.51,12.33-2.6,6.07,7.81,5.2,9.11-71.63,3.69-73.55,0Z"/>
  <path class="cls-4" d="m44.99,182.27c0,1.26-2.23,2.28-4.99,2.28s-4.99-1.02-4.99-2.28,2.02-5.1,4.77-5.1,5.2,3.84,5.2,5.1Z"/>
  <path class="cls-4" d="m51.77,185.25c0,.48-1.26.87-2.82.87s-2.82-.39-2.82-.87,1.58-1.12,2.44-2.42,3.2,1.94,3.2,2.42Z"/>
  <path class="cls-4" d="m197.74,168.09c0,1.17-1.24,1.99-3.76,1.99s-5.35-.82-5.35-1.99,2.04-3.38,4.55-3.38,4.55,2.21,4.55,3.38Z"/>
  <path class="cls-6" d="m116.41,82.75c-6.05,0-10.95,4.9-10.95,10.95s10.95,21.58,10.95,21.58c0,0,10.95-15.53,10.95-21.58s-4.9-10.95-10.95-10.95Zm0,16.26c-3.11,0-5.64-2.52-5.64-5.64s2.53-5.64,5.64-5.64,5.64,2.53,5.64,5.64-2.53,5.64-5.64,5.64Z"/>
  <g>
    <path class="cls-2" d="m142.25,50.81c-1,.16-1.98.32-2.97.48"/>
    <path class="cls-1" d="m133.23,52.4c-51.4,10.2-79.7,36.1-89.53,84.68"/>
    <path class="cls-2" d="m43.12,140.09c-.18.98-.35,1.96-.52,2.96"/>
  </g>
  <path class="cls-7" d="m209.41,45.45l-57.5,7.38c-1.76-1.27-3.29-2.88-4.48-4.78l-6.5-10.44,4.57-.62c1.17-.16,2.34.26,3.13,1.13l5.51,5.97,43.23-6.33c3.88-.41,5.97.95,6.9,3.44,3.29.54,4.94,2.38,5.13,4.25Z"/>
  <path class="cls-6" d="m204.97,50.12l-40.88,5.72c-4.38.61-8.72-.53-12.18-3.01l57.5-7.38c.21,2.06-1.34,4.16-4.44,4.67Z"/>
  <path class="cls-7" d="m176.24,48.6l-12.17,17.34,6.2-1.73c3.71-1.04,7.03-3.15,9.54-6.07l9.63-11.22"/>
  <path class="cls-7" d="m201.62,41.4l-7.42,1.16-.68-1.61,5.84-.75c.93-.12,1.83.36,2.26,1.2h0Z"/>
  <path class="cls-7" d="m199.72,88.77c-.13,0-.26.01-.39.02-.44-8.75-7.66-15.71-16.52-15.71s-15.52,6.43-16.45,14.7c-.56-.1-1.13-.17-1.72-.17-4.26,0-7.84,2.88-8.92,6.8-1.12-.87-2.52-1.4-4.05-1.4-3.64,0-6.6,2.95-6.6,6.6s2.95,6.6,6.6,6.6c.31,0,.62-.03.93-.07h0s28.79,0,28.79,0c.47.04.94.07,1.42.07s.95-.03,1.42-.07h14.42c.35.04.71.07,1.07.07,4.81,0,8.72-3.9,8.72-8.72s-3.9-8.72-8.72-8.72Z"/>
</svg>