<?xml version="1.0" encoding="UTF-8"?>
<svg id="Layer_1" data-name="Layer 1" xmlns="http://www.w3.org/2000/svg" viewBox="0 0 33.57 30.49">
  <defs>
    <style>
      .cls-1 {
        fill: #2b3f8a;
      }
    </style>
  </defs>
  <path class="cls-1" d="m16.32,28.35c-2.76,0-5.36-.82-7.54-2.38-.12-.09-.2-.22-.21-.37-.01-.15.04-.29.15-.4l2.16-2.15-1.92-1.92-2.18,2.19c-.1.1-.24.15-.39.15-.14-.01-.28-.08-.36-.2-2.54-3.37-3.24-7.9-1.88-12.1.05-.15.16-.26.3-.31.14-.05.3-.04.43.04.46.29.99.44,1.54.44,1.63,0,2.95-1.33,2.95-2.96,0-1.02-.51-1.95-1.36-2.48-.13-.08-.22-.22-.23-.37-.02-.15.04-.31.15-.41C13.4-.18,22-.36,27.08,4.73s4.93,13.85-.56,19.34h0c-2.71,2.71-6.41,4.28-10.15,4.29h-.05Zm-6.47-2.86c1.92,1.23,4.16,1.9,6.52,1.86,3.48-.01,6.92-1.47,9.45-3.99,5.1-5.1,5.35-13.14.56-17.92-4.57-4.57-12.22-4.53-17.32,0,.83.73,1.31,1.79,1.31,2.94,0,2.18-1.77,3.96-3.95,3.96-.51,0-1.02-.1-1.49-.29-.98,3.54-.41,7.26,1.56,10.16l2.11-2.12c.09-.09.22-.15.35-.15h0c.13,0,.26.05.35.15l2.63,2.63c.09.09.15.22.15.35s-.05.26-.15.35l-2.08,2.07Zm16.32-1.78h0,0Z"/>
  <path class="cls-1" d="m16.37,28.35c-.13,0-.26-.05-.35-.15l-4.79-4.79c-.2-.2-.2-.51,0-.71s.51-.2.71,0l4.79,4.79c.2.2.2.51,0,.71-.1.1-.23.15-.35.15Z"/>
  <path class="cls-1" d="m8.95,20.93c-.13,0-.26-.05-.35-.15l-4.87-4.87c-.2-.2-.2-.51,0-.71s.51-.2.71,0l4.87,4.87c.2.2.2.51,0,.71-.1.1-.23.15-.35.15Z"/>
  <path class="cls-1" d="m5.14,29.47c-.48,0-.93-.19-1.27-.53l-.79-.79c-.34-.34-.53-.8-.53-1.28,0-.48.19-.93.53-1.26l5.87-5.88,3.34,3.34-5.88,5.87c-.33.34-.78.53-1.26.53h0Zm3.81-8.32l-5.17,5.18c-.15.15-.23.34-.24.55,0,.21.08.42.24.57l.79.79c.15.15.36.24.57.24.21,0,.4-.08.55-.23l5.18-5.17-1.92-1.92Z"/>
  <path class="cls-1" d="m6.42,12.33c-.73,0-1.44-.2-2.06-.58-1.19-.72-1.9-1.99-1.9-3.38,0-2.18,1.78-3.95,3.96-3.95.76,0,1.5.22,2.13.63,1.14.71,1.82,1.95,1.82,3.32,0,2.18-1.77,3.96-3.95,3.96Zm0-6.91c-1.63,0-2.96,1.32-2.96,2.95,0,1.04.53,1.98,1.42,2.52.46.29,1,.44,1.54.44,1.63,0,2.95-1.33,2.95-2.96,0-1.02-.51-1.95-1.36-2.48-.48-.31-1.03-.47-1.59-.47Z"/>
</svg>