<?xml version="1.0" encoding="UTF-8"?>
<svg id="Layer_1" data-name="Layer 1" xmlns="http://www.w3.org/2000/svg" viewBox="0 0 30 30">
  <defs>
    <style>
      .cls-1 {
        fill: #2b3f8a;
      }
    </style>
  </defs>
  <path class="cls-1" d="m15,1c7.72,0,14,6.28,14,14s-6.28,14-14,14S1,22.72,1,15,7.28,1,15,1m0-1C6.72,0,0,6.72,0,15s6.72,15,15,15,15-6.72,15-15S23.28,0,15,0h0Z"/>
  <g>
    <g>
      <circle class="cls-1" cx="11.37" cy="14.01" r="1.08"/>
      <circle class="cls-1" cx="14.89" cy="14.01" r="1.08"/>
      <circle class="cls-1" cx="18.69" cy="14.01" r="1.08"/>
    </g>
    <path class="cls-1" d="m15,22.7c-.15.01-.28-.06-.38-.17l-2.4-2.76h-4.43c-1.01,0-1.83-.82-1.83-1.83v-7.81c0-1.01.82-1.83,1.83-1.83h14.42c1.01,0,1.83.82,1.83,1.83v7.81c0,1.01-.82,1.83-1.83,1.83h-4.38l-2.45,2.76c-.1.11-.23.17-.37.17Zm-7.21-13.39c-.46,0-.83.37-.83.83v7.81c0,.46.37.83.83.83h4.66c.14,0,.28.06.38.17l2.17,2.5,2.22-2.5c.09-.11.23-.17.37-.17h4.61c.46,0,.83-.37.83-.83v-7.81c0-.46-.37-.83-.83-.83H7.79Z"/>
  </g>
</svg>