<?xml version="1.0" encoding="UTF-8"?>
<svg id="Layer_1" data-name="Layer 1" xmlns="http://www.w3.org/2000/svg" viewBox="0 0 210 210">
  <defs>
    <style>
      .cls-1 {
        stroke: #ff69aa;
      }

      .cls-1, .cls-2, .cls-3, .cls-4, .cls-5, .cls-6, .cls-7, .cls-8 {
        stroke-linecap: round;
        stroke-linejoin: round;
      }

      .cls-1, .cls-5, .cls-8 {
        fill: none;
      }

      .cls-2 {
        fill: #33a0e9;
      }

      .cls-2, .cls-3, .cls-4, .cls-5, .cls-6, .cls-7 {
        stroke: #2b3f8a;
      }

      .cls-9, .cls-6 {
        fill: #f5fbff;
      }

      .cls-3 {
        fill: #f5eb60;
      }

      .cls-10 {
        fill: #2b3f8a;
      }

      .cls-4 {
        fill: #ff69aa;
      }

      .cls-7 {
        fill: #8cddff;
      }

      .cls-8 {
        stroke: #8cddff;
      }
    </style>
  </defs>
  <g>
    <rect class="cls-9" x="46.19" y="64.49" width="163.31" height="126.52" rx="6.58" ry="6.58"/>
    <path class="cls-10" d="m202.92,64.99c3.35,0,6.08,2.73,6.08,6.08v113.35c0,3.35-2.73,6.08-6.08,6.08H52.77c-3.35,0-6.08-2.73-6.08-6.08v-113.35c0-3.35,2.73-6.08,6.08-6.08h150.14m0-1H52.77c-3.91,0-7.08,3.17-7.08,7.08v113.35c0,3.91,3.17,7.08,7.08,7.08h150.14c3.91,0,7.08-3.17,7.08-7.08v-113.35c0-3.91-3.17-7.08-7.08-7.08h0Z"/>
  </g>
  <path class="cls-3" d="m116.67,173.16c6.44,2.91,13.59,4.52,21.12,4.52,20.24,0,37.75-11.7,46.13-28.7l-46.13-24.96-21.12,49.14Z"/>
  <path class="cls-2" d="m116.67,173.16c-17.86-8.06-30.28-26.02-30.28-46.88,0-28.39,23.01-51.4,51.4-51.4s51.4,23.01,51.4,51.4c0,8.15-1.9,15.85-5.27,22.7l-46.13-24.96-21.12,49.14Z"/>
  <g>
    <g>
      <rect class="cls-9" x="15.9" y=".87" width="163.31" height="126.52" rx="6.58" ry="6.58"/>
      <path class="cls-10" d="m172.63,1.37c3.35,0,6.08,2.73,6.08,6.08v113.35c0,3.35-2.73,6.08-6.08,6.08H22.49c-3.35,0-6.08-2.73-6.08-6.08V7.45c0-3.35,2.73-6.08,6.08-6.08h150.14m0-1H22.49c-3.91,0-7.08,3.17-7.08,7.08v113.35c0,3.91,3.17,7.08,7.08,7.08h150.14c3.91,0,7.08-3.17,7.08-7.08V7.45c0-3.91-3.17-7.08-7.08-7.08h0Z"/>
    </g>
    <g>
      <line class="cls-8" x1="23.16" y1="105.19" x2="171.49" y2="105.19"/>
      <line class="cls-8" x1="23.16" y1="98.58" x2="171.49" y2="98.58"/>
      <line class="cls-8" x1="23.16" y1="91.98" x2="171.49" y2="91.98"/>
      <line class="cls-8" x1="23.16" y1="85.37" x2="171.49" y2="85.37"/>
      <line class="cls-8" x1="23.16" y1="78.77" x2="171.49" y2="78.77"/>
      <line class="cls-8" x1="23.16" y1="72.16" x2="171.49" y2="72.16"/>
      <line class="cls-8" x1="23.16" y1="65.55" x2="171.49" y2="65.55"/>
      <line class="cls-8" x1="23.16" y1="58.95" x2="171.49" y2="58.95"/>
      <line class="cls-8" x1="23.16" y1="52.34" x2="171.49" y2="52.34"/>
      <line class="cls-8" x1="23.16" y1="45.74" x2="171.49" y2="45.74"/>
      <line class="cls-8" x1="23.16" y1="39.13" x2="171.49" y2="39.13"/>
      <line class="cls-8" x1="23.16" y1="32.53" x2="171.49" y2="32.53"/>
      <line class="cls-8" x1="23.16" y1="25.92" x2="171.49" y2="25.92"/>
      <line class="cls-8" x1="23.16" y1="19.32" x2="171.49" y2="19.32"/>
      <g>
        <polyline class="cls-5" points="38.48 76.82 49.87 68.07 61.54 72.21 73.18 49.07 84.45 47.44 95.97 42.22 107.5 29.4 119.03 90.7 130.55 68.07 142.08 60.05 153.57 58.03 165.13 45.6"/>
        <circle class="cls-3" cx="38.34" cy="77.18" r="2.61"/>
        <circle class="cls-7" cx="49.87" cy="68.07" r="2.61"/>
        <circle class="cls-4" cx="61.39" cy="71.96" r="2.61"/>
        <circle class="cls-3" cx="72.92" cy="49.07" r="2.61"/>
        <circle class="cls-3" cx="84.45" cy="47.44" r="2.61"/>
        <circle class="cls-3" cx="95.97" cy="42.22" r="2.61"/>
        <circle class="cls-7" cx="107.5" cy="29.4" r="2.61"/>
        <circle class="cls-4" cx="119.03" cy="90.7" r="2.61"/>
        <circle class="cls-7" cx="130.55" cy="68.07" r="2.61"/>
        <circle class="cls-7" cx="142.08" cy="60.05" r="2.61"/>
        <circle class="cls-3" cx="153.61" cy="57.99" r="2.61"/>
        <circle class="cls-7" cx="165.13" cy="45.74" r="2.61"/>
        <line class="cls-1" x1="38.34" y1="90.14" x2="165.13" y2="37.88"/>
        <circle class="cls-6" cx="38.34" cy="90.14" r="2.61"/>
        <circle class="cls-6" cx="165.13" cy="37.88" r="2.61"/>
      </g>
      <line class="cls-6" x1="27.2" y1="13.96" x2="27.2" y2="119.5"/>
      <line class="cls-6" x1="23.16" y1="112.56" x2="171.49" y2="112.56"/>
      <polyline class="cls-5" points="23.16 17.72 27.2 13.67 31.25 17.72"/>
      <polyline class="cls-5" points="167.91 108.51 171.97 112.56 167.91 116.61"/>
    </g>
  </g>
  <g>
    <rect class="cls-9" x=".5" y="82.61" width="163.31" height="126.52" rx="6.58" ry="6.58"/>
    <path class="cls-10" d="m157.23,83.11c3.35,0,6.08,2.73,6.08,6.08v113.35c0,3.35-2.73,6.08-6.08,6.08H7.08c-3.35,0-6.08-2.73-6.08-6.08v-113.35c0-3.35,2.73-6.08,6.08-6.08h150.14m0-1H7.08c-3.91,0-7.08,3.17-7.08,7.08v113.35c0,3.91,3.17,7.08,7.08,7.08h150.14c3.91,0,7.08-3.17,7.08-7.08v-113.35c0-3.91-3.17-7.08-7.08-7.08h0Z"/>
  </g>
  <g>
    <line class="cls-8" x1="5.04" y1="187.2" x2="153.37" y2="187.2"/>
    <line class="cls-8" x1="5.04" y1="180.6" x2="153.37" y2="180.6"/>
    <line class="cls-8" x1="5.04" y1="173.99" x2="153.37" y2="173.99"/>
    <line class="cls-8" x1="5.04" y1="167.39" x2="153.37" y2="167.39"/>
    <line class="cls-8" x1="5.04" y1="160.78" x2="153.37" y2="160.78"/>
    <line class="cls-8" x1="5.04" y1="154.18" x2="153.37" y2="154.18"/>
    <line class="cls-8" x1="5.04" y1="147.57" x2="153.37" y2="147.57"/>
    <line class="cls-8" x1="5.04" y1="140.96" x2="153.37" y2="140.96"/>
    <line class="cls-8" x1="5.04" y1="134.36" x2="153.37" y2="134.36"/>
    <line class="cls-8" x1="5.04" y1="127.75" x2="153.37" y2="127.75"/>
    <line class="cls-8" x1="5.04" y1="121.15" x2="153.37" y2="121.15"/>
    <line class="cls-8" x1="5.04" y1="114.54" x2="153.37" y2="114.54"/>
    <line class="cls-8" x1="5.04" y1="107.94" x2="153.37" y2="107.94"/>
    <line class="cls-8" x1="5.04" y1="101.33" x2="153.37" y2="101.33"/>
    <line class="cls-6" x1="9.08" y1="95.97" x2="9.08" y2="201.52"/>
    <line class="cls-6" x1="5.04" y1="194.58" x2="153.37" y2="194.58"/>
    <polyline class="cls-5" points="5.04 99.74 9.08 95.68 13.13 99.74"/>
    <polyline class="cls-5" points="149.79 190.53 153.85 194.58 149.79 198.62"/>
    <rect class="cls-7" x="14.15" y="130.8" width="12.26" height="63.77"/>
    <rect class="cls-3" x="26.41" y="119.89" width="12.26" height="74.69"/>
    <rect class="cls-4" x="38.68" y="153.32" width="12.26" height="41.26"/>
    <rect class="cls-7" x="59.67" y="116.57" width="12.26" height="78"/>
    <rect class="cls-3" x="71.93" y="103.22" width="12.26" height="91.36"/>
    <rect class="cls-4" x="84.2" y="136.02" width="12.26" height="58.56"/>
    <rect class="cls-7" x="105.6" y="114.87" width="12.26" height="79.71"/>
    <rect class="cls-3" x="117.87" y="112.06" width="12.26" height="82.51"/>
    <rect class="cls-4" x="130.13" y="130.24" width="12.26" height="64.33"/>
  </g>
</svg>