<?xml version="1.0" encoding="UTF-8"?>
<svg id="Layer_1" data-name="Layer 1" xmlns="http://www.w3.org/2000/svg" viewBox="0 0 30 30">
  <defs>
    <style>
      .cls-1 {
        fill: #2b3f8a;
      }
    </style>
  </defs>
  <path class="cls-1" d="m18.25,2.25c5.24,0,9.5,4.26,9.5,9.5s-4.26,9.5-9.5,9.5-9.5-4.26-9.5-9.5S13.01,2.25,18.25,2.25m0-2C11.9.25,6.75,5.4,6.75,11.75s5.15,11.5,11.5,11.5,11.5-5.15,11.5-11.5S24.6.25,18.25.25h0Z"/>
  <path class="cls-1" d="m1.23,29.77c-.26,0-.51-.1-.71-.29-.39-.39-.39-1.02,0-1.41l8.52-8.52c.39-.39,1.02-.39,1.41,0s.39,1.02,0,1.41L1.94,29.48c-.2.2-.45.29-.71.29Z"/>
</svg>