<?xml version="1.0" encoding="UTF-8"?>
<svg id="Layer_1" data-name="Layer 1" xmlns="http://www.w3.org/2000/svg" viewBox="0 0 30 30">
  <defs>
    <style>
      .cls-1 {
        fill: #2b3f8a;
      }
    </style>
  </defs>
  <path class="cls-1" d="m15,1c7.72,0,14,6.28,14,14s-6.28,14-14,14S1,22.72,1,15,7.28,1,15,1m0-1C6.72,0,0,6.72,0,15s6.72,15,15,15,15-6.72,15-15S23.28,0,15,0h0Z"/>
  <path class="cls-1" d="m8.6,24.91c-.2,0-.4-.06-.56-.18-.3-.22-.45-.58-.38-.94l1.14-6.64-4.81-4.67c-.26-.26-.36-.64-.24-.99s.41-.6.78-.66l6.67-.97,2.96-6.02c.16-.33.49-.54.86-.54h0c.37,0,.7.21.86.54h0l2.98,6.04,6.64.95c.37.05.66.3.78.66.11.35.02.73-.24.99l-4.83,4.7,1.15,6.61c.06.36-.08.73-.38.94-.3.22-.69.24-1.01.07l-5.96-3.14-5.93,3.14c-.14.07-.3.11-.45.11ZM14.99,4.32l-2.94,6c-.14.28-.41.48-.72.53l-6.67.97,4.84,4.64c.23.22.33.54.28.85l-1.14,6.64,5.91-3.17c.28-.15.61-.15.9,0l5.96,3.14-1.19-6.6c-.05-.31.05-.63.28-.85l4.83-4.7-6.65-.91c-.31-.05-.58-.24-.72-.53l-2.96-6Z"/>
  <ellipse class="cls-1" cx="13.27" cy="14.18" rx="1.01" ry="1.5"/>
  <ellipse class="cls-1" cx="16.73" cy="14.18" rx="1.01" ry="1.5"/>
</svg>