<?xml version="1.0" encoding="UTF-8"?>
<svg xmlns="http://www.w3.org/2000/svg" xmlns:xlink="http://www.w3.org/1999/xlink" viewBox="0 0 248.3 210">
  <defs>
    <style>
      .cls-1 {
        fill: #fff;
      }

      .cls-2 {
        font-family: NotoSansTC-Bold-90ms-RKSJ-H, 'Noto Sans TC';
        font-size: 15.68px;
        font-weight: 700;
      }

      .cls-2, .cls-3 {
        fill: #2b3f8a;
      }

      .cls-4 {
        fill: #33a0e9;
      }

      .cls-4, .cls-3, .cls-5, .cls-6, .cls-7, .cls-8 {
        stroke: #2b3f8a;
        stroke-linecap: round;
        stroke-linejoin: round;
      }

      .cls-9, .cls-7 {
        fill: #f5fbff;
      }

      .cls-10 {
        mix-blend-mode: color;
        opacity: .28;
      }

      .cls-10, .cls-8 {
        fill: #8cddff;
      }

      .cls-5 {
        fill: #f5eb60;
      }

      .cls-11 {
        isolation: isolate;
      }

      .cls-11, .cls-12, .cls-13, .cls-14 {
        fill: none;
      }

      .cls-6 {
        fill: #ff69aa;
      }

      .cls-13 {
        clip-path: url(#clippath);
      }

      .cls-14 {
        mask: url(#mask);
      }

      .cls-15 {
        filter: url(#luminosity-noclip);
      }

      .cls-16 {
        letter-spacing: -.02em;
      }
    </style>
    <filter id="luminosity-noclip" x="13.56" y="20.49" width="208.93" height="129.24" color-interpolation-filters="sRGB" filterUnits="userSpaceOnUse">
      <feFlood flood-color="#fff" result="bg"/>
      <feBlend in="SourceGraphic" in2="bg"/>
    </filter>
    <mask id="mask" x="13.56" y="20.49" width="208.93" height="129.24" maskUnits="userSpaceOnUse">
      <g class="cls-15">
        <path d="m167.84,50.58c-21.46-25.46-59.5-28.7-84.96-7.24-25.45,21.47-28.69,59.5-7.23,84.96,21.46,25.46,59.5,28.7,84.95,7.23,25.46-21.46,28.7-59.49,7.24-84.95Z"/>
      </g>
    </mask>
    <clipPath id="clippath">
      <circle class="cls-12" cx="121.74" cy="89.44" r="56.52"/>
    </clipPath>
  </defs>
  <g class="cls-11">
    <g id="Layer_1" data-name="Layer 1">
      <g>
        <path class="cls-9" d="m166.93,155.33c-19.82,5.93-32.53,39.9-24.29,42.94s66.26-6.94,71.08-25.16c4.82-18.22-26.97-23.71-46.79-17.78Z"/>
        <path class="cls-9" d="m36.66,4.26C-7.8,6.36-9.36,72.57,25.55,107.49S-.47,171.68,22.95,194.67s74.17,11.01,119.71-38.31c45.54-49.32,104.49,4.28,104.49-54.94,0-64.19-62.42-84.96-100.58-68.5C108.4,49.37,111,.74,36.66,4.26Z"/>
        <rect class="cls-6" x="177.16" y="140.09" width="55.56" height="23.86" rx="11.93" ry="11.93"/>
        <rect class="cls-7" x="121.7" y="155.27" width="91.74" height="23.86" rx="11.93" ry="11.93"/>
        <rect class="cls-4" x="27.57" y="175.93" width="78.29" height="23.86" rx="11.93" ry="11.93"/>
        <g class="cls-14">
          <g>
            <rect class="cls-6" x="38.04" y="44.6" width="76.34" height="23.86" rx="11.93" ry="11.93"/>
            <rect class="cls-4" x="48.91" y="60.65" width="116.19" height="23.86" rx="11.93" ry="11.93"/>
            <rect class="cls-5" x="14.06" y="103.2" width="116.19" height="23.86" rx="11.93" ry="11.93"/>
            <rect class="cls-7" x="118.91" y="20.99" width="103.08" height="23.86" rx="11.93" ry="11.93"/>
          </g>
        </g>
        <rect class="cls-3" x="159.89" y="134.92" width="13.16" height="16.74" transform="translate(-53.14 139.39) rotate(-39.7)"/>
        <path class="cls-8" d="m162.58,137.87c-4.71,3.97-9.93,7.23-15.52,9.68-.76.33-1.64-.01-1.98-.77-.33-.76.01-1.64.77-1.98,10.14-4.45,19.11-11.82,25.47-20.9.47-.69,1.41-.84,2.09-.37.68.48.84,1.41.37,2.09-3.17,4.53-6.94,8.65-11.21,12.25Z"/>
        <rect class="cls-8" x="159.98" y="143.39" width="15.61" height="2.96" transform="translate(-53.85 140.59) rotate(-39.7)"/>
        <path class="cls-8" d="m185.77,140.15h15.61v64.15c0,4.09-3.32,7.41-7.41,7.41h-.79c-4.09,0-7.41-3.32-7.41-7.41v-64.15h0Z" transform="translate(-67.74 164.22) rotate(-39.7)"/>
        <g class="cls-13">
          <path class="cls-6" d="m112.21,50.54h0c0,8.53-6.91,15.44-15.44,15.44h-48.17c1.27-3.45,2.8-6.83,4.58-10.11,4.13-7.62,9.61-14.66,16.39-20.77h27.2c8.53,0,15.44,6.91,15.44,15.44Z"/>
          <path class="cls-4" d="m177.83,55.87v30.87H43.99c.58-7.08,2.12-14.07,4.61-20.77,1.27-3.45,2.8-6.83,4.58-10.11h124.65Z"/>
          <path class="cls-5" d="m132.75,126.37h0c0,8.53-6.91,15.44-15.44,15.44h-56.52c-7.48-9.34-12.46-19.9-15.01-30.87h71.53c8.53,0,15.44,6.91,15.44,15.44Z"/>
          <path class="cls-7" d="m174.25,35.41h-46.17c-5.53,0-10.01-4.48-10.01-10.01h0c0-5.83,4.97-10.51,10.78-9.98,16.5,1.51,32.52,8.24,45.39,19.98Z"/>
        </g>
        <g>
          <path class="cls-5" d="m148.95,147.27c1.01,1.93,4.64.04,3.63-1.89"/>
          <path class="cls-5" d="m172.93,127.06c1.74,1.32-.74,4.58-2.48,3.26"/>
        </g>
        <path class="cls-8" d="m167.84,50.58c-21.46-25.46-59.5-28.7-84.96-7.24-25.45,21.47-28.69,59.5-7.23,84.96,21.46,25.46,59.5,28.7,84.95,7.23,25.46-21.46,28.7-59.49,7.24-84.95Zm-9.66,82.07c-23.87,20.12-59.53,17.09-79.65-6.78-20.12-23.87-17.08-59.52,6.78-79.64,23.87-20.12,59.53-17.09,79.65,6.78,20.12,23.86,17.08,59.52-6.78,79.64Z"/>
        <path class="cls-10" d="m158.18,132.65c-23.87,20.12-59.53,17.09-79.65-6.78-20.12-23.87-17.08-59.52,6.78-79.64,23.87-20.12,59.53-17.09,79.65,6.78,20.12,23.86,17.08,59.52-6.78,79.64Z"/>
        <text class="cls-2" transform="translate(76.16 77.25)"><tspan x="0" y="0">Be</tspan><tspan class="cls-16" x="19.79" y="0">s</tspan><tspan x="27.19" y="0">t Selling</tspan></text>
        <rect class="cls-5" x="188.37" y="40.26" width="55.81" height="23.19" rx="11.59" ry="11.59"/>
        <path class="cls-1" d="m169.18,71.35c6.88,17.66,4.41,37.48-9.09,51.32-4.24,4.42-9.35,7.9-14.9,10.42-.25.12-.55.02-.67-.23-.12-.25-.02-.54.22-.67,5.07-3,9.86-6.58,13.75-11.02,8.9-9.81,13.19-23.25,12.05-36.4-.11-2.47-.65-5.25-1.01-7.68-.43-1.82-.89-3.63-1.3-5.46-.14-.58.76-.87.96-.27h0Z"/>
      </g>
    </g>
  </g>
</svg>