<?xml version="1.0" encoding="UTF-8"?>
<svg id="Layer_1" data-name="Layer 1" xmlns="http://www.w3.org/2000/svg" viewBox="0 0 33.57 30.49">
  <defs>
    <style>
      .cls-1 {
        fill: #2b3f8a;
      }
    </style>
  </defs>
  <path class="cls-1" d="m28.03,14.97l-.66-.23c-.2-.07-.38-.1-.56-.1H6.45c-.18,0-.36.03-.56.1l-.66.23v-3.05c0-.55-.22-1.07-.61-1.47-.15-.15-.3-.26-.46-.35l-.26-.14v-3.64C3.9,3.29,6.37.83,9.39.83h14.48c3.03,0,5.49,2.46,5.49,5.49v3.64l-.26.14c-.66.36-1.07,1.06-1.07,1.82v3.05ZM4.9,9.38c.15.1.29.23.43.36.58.59.9,1.36.9,2.17v1.73c.07,0,.15,0,.22,0h20.36c.07,0,.15,0,.22,0v-1.73c0-1.02.5-1.97,1.33-2.54v-3.06c0-2.48-2.01-4.49-4.49-4.49h-14.48c-2.48,0-4.49,2.01-4.49,4.49v3.06Z"/>
  <path class="cls-1" d="m6.23,25.85h-3.32c-1.57,0-2.84-1.27-2.84-2.84v-11.1c0-1.7,1.38-3.08,3.08-3.08.52,0,1.02.13,1.49.38.25.14.48.31.7.53.58.59.9,1.36.9,2.17v2.7l-.33.12c-.6.22-1,.81-1,1.45v.45c0,.64.4,1.23,1,1.45l.33.12v7.65ZM3.15,9.83c-1.15,0-2.08.93-2.08,2.08v11.1c0,1.01.83,1.84,1.84,1.84h2.32v-5.98c-.81-.44-1.33-1.3-1.33-2.24v-.45c0-.94.52-1.8,1.33-2.24v-2.03c0-.55-.22-1.07-.61-1.47-.15-.15-.3-.26-.46-.35-.32-.17-.66-.26-1.01-.26Z"/>
  <path class="cls-1" d="m30.35,25.85h-3.32v-7.65l.33-.12c.6-.22,1-.81,1-1.45v-.45c0-.64-.4-1.23-1-1.45l-.33-.12v-2.7c0-1.13.61-2.16,1.59-2.7,1.2-.65,2.74-.42,3.67.53.58.58.9,1.35.9,2.17v11.1c0,1.57-1.27,2.84-2.84,2.84Zm-2.32-1h2.32c1.01,0,1.84-.83,1.84-1.84v-11.1c0-.55-.22-1.07-.61-1.47-.63-.64-1.66-.79-2.48-.35-.66.36-1.07,1.06-1.07,1.82v2.03c.81.44,1.33,1.3,1.33,2.24v.45c0,.94-.52,1.8-1.33,2.24v5.98Z"/>
  <path class="cls-1" d="m28,25.85H5.26v-8l.67.24c.17.06.34.09.52.09h20.36c.18,0,.35-.03.52-.09l.67-.24v8Zm-21.74-1h20.74v-5.68c-.06,0-.13,0-.19,0H6.45c-.06,0-.13,0-.19,0v5.68Z"/>
  <path class="cls-1" d="m5.22,29.67h-2.11c-.56,0-1.01-.46-1.01-1.02v-3.79h4.13v3.79c0,.56-.45,1.02-1.01,1.02Zm-2.12-3.81v2.79l2.12.02v-2.81s-2.12,0-2.12,0Z"/>
  <path class="cls-1" d="m30.15,29.67h-2.11c-.56,0-1.01-.46-1.01-1.02v-3.79h4.13v3.79c0,.56-.45,1.02-1.01,1.02Zm-2.12-3.81v2.79l2.12.02v-2.81s-2.12,0-2.12,0Z"/>
</svg>