<?xml version="1.0" encoding="UTF-8"?>
<svg id="Layer_1" data-name="Layer 1" xmlns="http://www.w3.org/2000/svg" viewBox="0 0 30 30">
  <defs>
    <style>
      .cls-1 {
        fill: #e3f4ff;
      }

      .cls-2 {
        fill: #2b3f8a;
      }
    </style>
  </defs>
  <path class="cls-2" d="m30,15c0,4.91-2.36,9.27-6,12-.34.26-.68.49-1.04.71h0c-2.31,1.45-5.04,2.29-7.96,2.29s-5.65-.84-7.96-2.28h0c-.36-.23-.7-.46-1.04-.72C2.36,24.27,0,19.91,0,15,0,6.72,6.71,0,15,0s15,6.72,15,15Z"/>
  <path class="cls-1" d="m15,5c-4.97,0-9,4.04-9,9,0,2.67,1.19,5.19,3.22,6.89.17.15.35.29.54.43.09.07.19.13.29.19.18.12.37.24.56.34.2.11.39.21.59.3.2.09.4.18.6.25,1.01.4,2.09.6,3.2.6,1.33,0,2.62-.29,3.79-.85.2-.09.4-.19.59-.3.19-.1.38-.22.56-.34.1-.06.2-.12.29-.19.19-.14.38-.28.55-.43,2.03-1.7,3.22-4.22,3.22-6.89,0-4.96-4.04-9-9-9Zm4.64,15.5c-2.72,1.96-6.57,1.96-9.29,0-2.1-1.49-3.35-3.92-3.35-6.5,0-4.41,3.58-8,8-8s8,3.59,8,8c0,2.58-1.26,5.01-3.36,6.5Z"/>
  <path class="cls-1" d="m24,27c0-2.37-1.19-4.61-3.22-6.11-.18-.14-.38-.27-.58-.4l-.28-.18-.28.19c-2.72,1.96-6.57,1.96-9.29,0l-.27-.19-.29.18c-.2.12-.39.25-.57.4-2.03,1.49-3.22,3.74-3.22,6.11.34.26.68.49,1.04.71-.03-.23-.04-.47-.04-.71,0-2.15,1.13-4.18,3.05-5.49.18.12.37.24.56.34.2.11.39.21.59.3.2.09.4.18.6.25,2.25.84,4.82.76,6.99-.25.2-.09.4-.19.59-.3.19-.1.38-.22.56-.34,1.92,1.31,3.06,3.34,3.06,5.49,0,.24-.01.48-.04.71.36-.22.7-.45,1.04-.71Z"/>
  <g>
    <ellipse class="cls-1" cx="13.27" cy="16" rx="1.01" ry="1.5"/>
    <ellipse class="cls-1" cx="16.73" cy="16" rx="1.01" ry="1.5"/>
  </g>
</svg>