<?xml version="1.0" encoding="UTF-8"?>
<svg id="Layer_1" data-name="Layer 1" xmlns="http://www.w3.org/2000/svg" viewBox="0 0 30 30">
  <defs>
    <style>
      .cls-1 {
        fill: #e3f4ff;
      }

      .cls-2 {
        fill: #2b3f8a;
      }
    </style>
  </defs>
  <circle class="cls-2" cx="15" cy="15" r="15"/>
  <path class="cls-1" d="m4.36,18.28c-.07,0-.14-.01-.2-.04-.25-.11-.37-.41-.25-.66l1.28-2.88c.07-.16.22-.27.4-.29.17-.02.35.05.46.19l1.9,2.51c.17.22.12.53-.1.7-.22.17-.53.12-.7-.1l-1.39-1.83-.93,2.1c-.08.19-.27.3-.46.3Z"/>
  <path class="cls-1" d="m14.91,16.37c-.09,0-.17-.02-.25-.07-.16-.09-.25-.25-.25-.43v-7.38c0-.28.22-.5.5-.5s.5.22.5.5v6.51l2.39-1.41c.24-.14.54-.06.68.18.14.24.06.54-.18.68l-3.14,1.85c-.08.05-.17.07-.25.07Z"/>
  <path class="cls-1" d="m14.91,24.71c-5.39,0-9.77-4.38-9.77-9.77,0-.28.22-.5.5-.5s.5.22.5.5c0,4.84,3.93,8.77,8.77,8.77s8.77-3.93,8.77-8.77-3.93-8.77-8.77-8.77c-2.38,0-4.61.94-6.28,2.65-.19.2-.51.2-.71,0-.2-.19-.2-.51,0-.71,1.85-1.9,4.34-2.95,6.99-2.95,5.39,0,9.77,4.38,9.77,9.77s-4.38,9.77-9.77,9.77Z"/>
</svg>