<?xml version="1.0" encoding="UTF-8"?>
<svg id="Layer_1" data-name="Layer 1" xmlns="http://www.w3.org/2000/svg" viewBox="0 0 210 210">
  <defs>
    <style>
      .cls-1 {
        fill: #8cddff;
      }

      .cls-2 {
        fill: #33a0e9;
      }

      .cls-3 {
        fill: #f5fbff;
      }

      .cls-4 {
        fill: #2b3f8a;
      }

      .cls-5 {
        fill: #f5eb60;
      }

      .cls-6 {
        fill: #ff69aa;
      }
    </style>
  </defs>
  <g>
    <rect class="cls-1" x="3.58" y="135.35" width="109.6" height="74.15"/>
    <path class="cls-4" d="m112.68,135.85v73.15H4.08v-73.15h108.6m1-1H3.08v75.15h110.6v-75.15h0Z"/>
  </g>
  <g>
    <rect class="cls-2" x="114.18" y="85.74" width="92.24" height="123.76"/>
    <path class="cls-4" d="m205.92,86.24v122.76h-91.24v-122.76h91.24m1-1h-93.24v124.76h93.24v-124.76h0Z"/>
  </g>
  <g>
    <rect class="cls-5" x="18.91" y="75.66" width="73.17" height="58.69"/>
    <path class="cls-4" d="m91.57,76.16v57.69H19.41v-57.69h72.17m1-1H18.41v59.69h74.17v-59.69h0Z"/>
  </g>
  <g>
    <rect class="cls-4" x="117.65" y="53.9" width="36.94" height="30.84"/>
    <path class="cls-4" d="m154.09,54.4v29.84h-35.93v-29.84h35.93m1-1h-37.93v31.84h37.93v-31.84h0Z"/>
  </g>
  <g>
    <rect class="cls-6" x="155.59" y="53.9" width="36.94" height="30.84"/>
    <path class="cls-4" d="m192.02,54.4v29.84h-35.93v-29.84h35.93m1-1h-37.93v31.84h37.93v-31.84h0Z"/>
  </g>
  <g>
    <rect class="cls-5" x="119.82" y="44.86" width="61.89" height="8.04"/>
    <path class="cls-4" d="m181.21,45.36v7.04h-60.89v-7.04h60.89m1-1h-62.89v9.04h62.89v-9.04h0Z"/>
  </g>
  <g>
    <rect class="cls-2" x="26.24" y="32.88" width="61.89" height="41.78"/>
    <path class="cls-4" d="m87.63,33.38v40.78H26.74v-40.78h60.89m1-1H25.74v42.78h62.89v-42.78h0Z"/>
  </g>
  <g>
    <rect class="cls-1" x="38.39" y=".5" width="46.71" height="31.38"/>
    <path class="cls-4" d="m84.6,1v30.38h-45.71V1h45.71m1-1h-47.71v32.38h47.71V0h0Z"/>
  </g>
  <g>
    <rect class="cls-1" x="50.41" y="70.37" width="113.34" height="11.58" transform="translate(18.09 172.84) rotate(-82.79)"/>
    <path class="cls-4" d="m108.88,19.77l10.49,1.33-14.09,111.45-10.49-1.33,14.09-111.45m-.87-1.12l-14.34,113.44,12.48,1.58,14.34-113.44-12.48-1.58h0Z"/>
  </g>
  <g>
    <polygon class="cls-2" points="114.18 85.79 159.8 90.79 159.8 206.4 114.18 209.47 114.18 85.79"/>
    <path class="cls-4" d="m114.68,86.35l44.62,4.89v114.7l-44.62,2.99v-122.58m-1-1.12v124.76l46.62-3.13v-116.53l-46.62-5.1h0Z"/>
  </g>
  <g>
    <polygon class="cls-2" points="160.8 206.4 160.8 90.79 206.42 85.79 206.42 209.47 160.8 206.4"/>
    <path class="cls-4" d="m205.92,86.35v122.58l-44.62-2.99v-114.7l44.62-4.89m1-1.12l-46.62,5.1v116.53l46.62,3.13v-124.76h0Z"/>
  </g>
  <g>
    <rect class="cls-4" x="8.35" y="140.58" width="37.75" height="24.16"/>
    <path class="cls-4" d="m45.6,141.08v23.16H8.85v-23.16h36.75m1-1H7.85v25.16h38.75v-25.16h0Z"/>
  </g>
  <g>
    <rect class="cls-4" x="75.15" y="75.66" width="7.96" height="58.69"/>
    <path class="cls-4" d="m82.61,76.16v57.69h-6.96v-57.69h6.96m1-1h-8.96v59.69h8.96v-59.69h0Z"/>
  </g>
  <g>
    <rect class="cls-3" x="31.2" y="38.5" width="30.05" height="30.05"/>
    <path class="cls-4" d="m60.74,39v29.05h-29.05v-29.05h29.05m1-1h-31.05v31.05h31.05v-31.05h0Z"/>
  </g>
  <g>
    <rect class="cls-4" x="38.39" y="16.4" width="46.71" height="3.75"/>
    <path class="cls-4" d="m84.6,16.9v2.75h-45.71v-2.75h45.71m1-1h-47.71v4.75h47.71v-4.75h0Z"/>
  </g>
  <g>
    <rect class="cls-4" x="58.88" y=".5" width="4.57" height="31.38"/>
    <path class="cls-4" d="m62.95,1v30.38h-3.57V1h3.57m1-1h-5.57v32.38h5.57V0h0Z"/>
  </g>
</svg>