<?xml version="1.0" encoding="UTF-8"?>
<svg id="Layer_1" data-name="Layer 1" xmlns="http://www.w3.org/2000/svg" viewBox="0 0 210 210">
  <defs>
    <style>
      .cls-1, .cls-2 {
        fill: #8cddff;
      }

      .cls-3 {
        fill: #33a0e9;
      }

      .cls-3, .cls-4, .cls-5, .cls-6, .cls-7, .cls-8, .cls-2, .cls-9 {
        stroke: #2b3f8a;
        stroke-linecap: round;
        stroke-linejoin: round;
      }

      .cls-10, .cls-8 {
        fill: #f5fbff;
      }

      .cls-4, .cls-11 {
        fill: #2b3f8a;
      }

      .cls-5 {
        fill: #f5eb60;
      }

      .cls-6, .cls-9 {
        fill: #ff69aa;
      }

      .cls-7 {
        fill: none;
      }

      .cls-9 {
        stroke-width: 2px;
      }
    </style>
  </defs>
  <g>
    <rect class="cls-10" x=".46" y=".5" width="64.98" height="64.98" rx="6.05" ry="6.05"/>
    <path class="cls-11" d="m59.39,1c3.06,0,5.55,2.49,5.55,5.55v52.89c0,3.06-2.49,5.55-5.55,5.55H6.51c-3.06,0-5.55-2.49-5.55-5.55V6.55C.96,3.49,3.45,1,6.51,1h52.88m0-1H6.51C2.89,0-.04,2.93-.04,6.55v52.89c0,3.61,2.93,6.55,6.55,6.55h52.88c3.61,0,6.55-2.93,6.55-6.55V6.55c0-3.61-2.93-6.55-6.55-6.55h0Z"/>
  </g>
  <g>
    <rect class="cls-1" x="72.47" y=".5" width="64.98" height="64.98" rx="6.05" ry="6.05"/>
    <path class="cls-11" d="m131.4,1c3.06,0,5.55,2.49,5.55,5.55v52.89c0,3.06-2.49,5.55-5.55,5.55h-52.88c-3.06,0-5.55-2.49-5.55-5.55V6.55c0-3.06,2.49-5.55,5.55-5.55h52.88m0-1h-52.88c-3.61,0-6.55,2.93-6.55,6.55v52.89c0,3.61,2.93,6.55,6.55,6.55h52.88c3.61,0,6.55-2.93,6.55-6.55V6.55c0-3.61-2.93-6.55-6.55-6.55h0Z"/>
  </g>
  <g>
    <rect class="cls-10" x="144.49" y=".5" width="64.98" height="64.98" rx="6.05" ry="6.05"/>
    <path class="cls-11" d="m203.42,1c3.06,0,5.55,2.49,5.55,5.55v52.89c0,3.06-2.49,5.55-5.55,5.55h-52.88c-3.06,0-5.55-2.49-5.55-5.55V6.55c0-3.06,2.49-5.55,5.55-5.55h52.88m0-1h-52.88c-3.61,0-6.55,2.93-6.55,6.55v52.89c0,3.61,2.93,6.55,6.55,6.55h52.88c3.61,0,6.55-2.93,6.55-6.55V6.55c0-3.61-2.93-6.55-6.55-6.55h0Z"/>
  </g>
  <g>
    <rect class="cls-1" x=".46" y="72.51" width="64.98" height="64.98" rx="6.05" ry="6.05"/>
    <path class="cls-11" d="m59.39,73.01c3.06,0,5.55,2.49,5.55,5.55v52.89c0,3.06-2.49,5.55-5.55,5.55H6.51c-3.06,0-5.55-2.49-5.55-5.55v-52.89c0-3.06,2.49-5.55,5.55-5.55h52.88m0-1H6.51c-3.61,0-6.55,2.93-6.55,6.55v52.89c0,3.61,2.93,6.55,6.55,6.55h52.88c3.61,0,6.55-2.93,6.55-6.55v-52.89c0-3.61-2.93-6.55-6.55-6.55h0Z"/>
  </g>
  <g>
    <rect class="cls-1" x="144.49" y="72.51" width="64.98" height="64.98" rx="6.05" ry="6.05"/>
    <path class="cls-11" d="m203.42,73.01c3.06,0,5.55,2.49,5.55,5.55v52.89c0,3.06-2.49,5.55-5.55,5.55h-52.88c-3.06,0-5.55-2.49-5.55-5.55v-52.89c0-3.06,2.49-5.55,5.55-5.55h52.88m0-1h-52.88c-3.61,0-6.55,2.93-6.55,6.55v52.89c0,3.61,2.93,6.55,6.55,6.55h52.88c3.61,0,6.55-2.93,6.55-6.55v-52.89c0-3.61-2.93-6.55-6.55-6.55h0Z"/>
  </g>
  <g>
    <rect class="cls-10" x=".46" y="144.52" width="64.98" height="64.98" rx="6.05" ry="6.05"/>
    <path class="cls-11" d="m59.39,145.02c3.06,0,5.55,2.49,5.55,5.55v52.89c0,3.06-2.49,5.55-5.55,5.55H6.51c-3.06,0-5.55-2.49-5.55-5.55v-52.89c0-3.06,2.49-5.55,5.55-5.55h52.88m0-1H6.51c-3.61,0-6.55,2.93-6.55,6.55v52.89c0,3.61,2.93,6.55,6.55,6.55h52.88c3.61,0,6.55-2.93,6.55-6.55v-52.89c0-3.61-2.93-6.55-6.55-6.55h0Z"/>
  </g>
  <g>
    <rect class="cls-1" x="72.47" y="144.52" width="64.98" height="64.98" rx="6.05" ry="6.05"/>
    <path class="cls-11" d="m131.4,145.02c3.06,0,5.55,2.49,5.55,5.55v52.89c0,3.06-2.49,5.55-5.55,5.55h-52.88c-3.06,0-5.55-2.49-5.55-5.55v-52.89c0-3.06,2.49-5.55,5.55-5.55h52.88m0-1h-52.88c-3.61,0-6.55,2.93-6.55,6.55v52.89c0,3.61,2.93,6.55,6.55,6.55h52.88c3.61,0,6.55-2.93,6.55-6.55v-52.89c0-3.61-2.93-6.55-6.55-6.55h0Z"/>
  </g>
  <g>
    <rect class="cls-10" x="144.49" y="144.52" width="64.98" height="64.98" rx="6.05" ry="6.05"/>
    <path class="cls-11" d="m203.42,145.02c3.06,0,5.55,2.49,5.55,5.55v52.89c0,3.06-2.49,5.55-5.55,5.55h-52.88c-3.06,0-5.55-2.49-5.55-5.55v-52.89c0-3.06,2.49-5.55,5.55-5.55h52.88m0-1h-52.88c-3.61,0-6.55,2.93-6.55,6.55v52.89c0,3.61,2.93,6.55,6.55,6.55h52.88c3.61,0,6.55-2.93,6.55-6.55v-52.89c0-3.61-2.93-6.55-6.55-6.55h0Z"/>
  </g>
  <g>
    <rect class="cls-8" x="84.43" y="10.96" width="41.06" height="47.86"/>
    <rect class="cls-8" x="81.03" y="8.65" width="47.86" height="2.31"/>
    <rect class="cls-8" x="81.03" y="58.82" width="47.86" height="2.31"/>
    <rect class="cls-8" x="59.35" y="33.73" width="47.86" height="2.31" transform="translate(118.17 -48.38) rotate(90)"/>
    <rect class="cls-8" x="102.72" y="33.73" width="47.86" height="2.31" transform="translate(161.54 -91.76) rotate(90)"/>
    <rect class="cls-8" x="84.43" y="26.72" width="41.06" height="2.46"/>
    <rect class="cls-8" x="84.43" y="43.06" width="41.06" height="2.46"/>
    <rect class="cls-4" x="121.16" y="13.57" width="4.33" height="13.16"/>
    <rect class="cls-2" x="114.65" y="15.16" width="6.51" height="11.57"/>
    <rect class="cls-2" x="84.43" y="15.16" width="3.48" height="11.57"/>
    <rect class="cls-5" x="87.91" y="17.01" width="2.1" height="9.71"/>
    <rect class="cls-6" x="111.62" y="17.01" width="3.04" height="9.71"/>
    <rect class="cls-3" x="106.59" y="14.98" width="2.31" height="11.93" transform="translate(27.72 -54.19) rotate(32.19)"/>
    <polygon class="cls-5" points="120.36 43.06 110.12 43.06 112.05 31.06 122.37 31.06 120.36 43.06"/>
    <polygon class="cls-4" points="118.77 41.25 112.05 41.25 113.5 32.51 120.22 32.51 118.77 41.25"/>
    <polygon class="cls-5" points="121.07 38.87 123.33 43.06 120.36 43.06 121.07 38.87"/>
    <rect class="cls-6" x="84.43" y="31.06" width="2.97" height="12"/>
    <rect class="cls-4" x="87.4" y="33.88" width="2.06" height="9.18"/>
    <rect class="cls-3" x="96.92" y="32.23" width="2.01" height="10.27" transform="translate(-6.82 41.05) rotate(-22.9)"/>
    <rect class="cls-2" x="89.46" y="34.89" width="3.09" height="8.17"/>
    <rect class="cls-6" x="92.55" y="30.6" width="1.9" height="12.46"/>
    <path class="cls-4" d="m85.71,48.46c1.19.58,2.16,1.59,2.69,2.79-.37-.91-.34-1.98.08-2.87.25-.52.61-.97.98-1.41,1.24.79,1.9,2.39,1.57,3.82.5-.9,1.11-1.89,2.12-2.13.09.46.04.94-.13,1.37-.16.41-.44.77-.73,1.1-.07.08-.14.15-.23.21-.13.08-.3.1-.45.12-1.09.13-2.17.25-3.26.38-.29.03-.58.07-.86.02-.66-.12-.88-.77-1.2-1.28-.21-.33-.4-.68-.51-1.06-.03-.11-.1-1.07-.06-1.05Z"/>
    <path class="cls-5" d="m86.28,50.4h6.31c1.02,0,1.85.83,1.85,1.85v2.94c0,2-1.63,3.63-3.63,3.63h-2.76c-2,0-3.63-1.63-3.63-3.63v-2.94c0-1.02.83-1.85,1.85-1.85Z"/>
    <rect class="cls-4" x="108.36" y="47.33" width="17.2" height="1.73"/>
    <rect class="cls-6" x="106.34" y="49.06" width="19.15" height="2.82"/>
    <rect class="cls-2" x="106.34" y="51.88" width="19.15" height="6.94"/>
  </g>
  <g>
    <ellipse class="cls-5" cx="33.13" cy="50.4" rx="28.9" ry="5.93"/>
    <path class="cls-3" d="m15.23,19.4h12.57c2.84,0,5.15,2.31,5.15,5.15v15.67H10.08v-15.67c0-2.84,2.31-5.15,5.15-5.15Z"/>
    <path class="cls-3" d="m38.09,19.4h12.57c2.84,0,5.15,2.31,5.15,5.15v15.67h-22.87v-15.67c0-2.84,2.31-5.15,5.15-5.15Z"/>
    <path class="cls-3" d="m8.44,33.01h0c.91,0,1.64.74,1.64,1.64v13.25h0c-1.81,0-3.29-1.47-3.29-3.29v-9.96c0-.91.74-1.64,1.64-1.64Z"/>
    <path class="cls-3" d="m57.46,33.01h0c.91,0,1.64.74,1.64,1.64v9.96c0,1.81-1.47,3.29-3.29,3.29h0v-13.25c0-.91.74-1.64,1.64-1.64Z"/>
    <rect class="cls-3" x="10.08" y="41.04" width="45.74" height="6.87"/>
    <rect class="cls-3" x="8.67" y="38.94" width="48.87" height="4.19" rx="2.1" ry="2.1"/>
    <g>
      <line class="cls-8" x1="17.65" y1="27.52" x2="14.47" y2="30.7"/>
      <line class="cls-8" x1="14.47" y1="27.52" x2="17.65" y2="30.7"/>
      <g>
        <line class="cls-8" x1="28.55" y1="27.52" x2="25.37" y2="30.7"/>
        <line class="cls-8" x1="25.37" y1="27.52" x2="28.55" y2="30.7"/>
      </g>
    </g>
    <g>
      <line class="cls-8" x1="40.51" y1="27.52" x2="37.33" y2="30.7"/>
      <line class="cls-8" x1="37.33" y1="27.52" x2="40.51" y2="30.7"/>
      <g>
        <line class="cls-8" x1="51.42" y1="27.52" x2="48.24" y2="30.7"/>
        <line class="cls-8" x1="48.24" y1="27.52" x2="51.42" y2="30.7"/>
      </g>
    </g>
    <path class="cls-4" d="m10.08,47.9h3.29v1.64c0,.91-.74,1.64-1.64,1.64h0c-.91,0-1.64-.74-1.64-1.64v-1.64h0Z"/>
    <path class="cls-4" d="m52.14,47.9h3.29v1.64c0,.91-.74,1.64-1.64,1.64h0c-.91,0-1.64-.74-1.64-1.64v-1.64h0Z"/>
  </g>
  <g>
    <ellipse class="cls-6" cx="176.97" cy="51.76" rx="19.63" ry="4.23"/>
    <rect class="cls-2" x="163.82" y="26.08" width="26.31" height="3.39"/>
    <rect class="cls-2" x="165.15" y="29.47" width="3.04" height="22.62"/>
    <rect class="cls-2" x="185.76" y="29.47" width="3.04" height="22.62"/>
    <rect class="cls-2" x="168.19" y="29.47" width="17.57" height="10.19"/>
    <rect class="cls-2" x="168.19" y="39.87" width="17.57" height="10.19"/>
    <rect class="cls-2" x="173.45" y="33.75" width="7.05" height="1.63"/>
    <rect class="cls-2" x="173.45" y="44.15" width="7.05" height="1.63"/>
  </g>
  <g>
    <path class="cls-7" d="m11.72,113.87c-3.48.25,2.16,9.58,8.02,15.87,5.86,6.29,5.2,8.25,5.2,8.25"/>
    <rect class="cls-3" x="4.23" y="115.64" width="54.87" height="4.34"/>
    <polygon class="cls-3" points="11.72 137.99 6.79 137.99 10.9 119.98 15.83 119.98 11.72 137.99"/>
    <path class="cls-5" d="m42.86,87.73c2.54,1.61-2.82,10.09-5.37,8.48"/>
    <path class="cls-8" d="m26.68,81.92h15.71v7.58c0,3.11-2.53,5.64-5.64,5.64h-4.43c-3.11,0-5.64-2.53-5.64-5.64v-7.58h0Z" transform="translate(127.81 106.69) rotate(122.33)"/>
    <rect class="cls-8" x="24.78" y="83.18" width="6.35" height="2.36" transform="translate(114.19 105.86) rotate(122.33)"/>
    <path class="cls-7" d="m27.6,82.72s-8.97-5.23-8.97,8.97c0,14.2,0,21.72,0,21.72"/>
    <rect class="cls-8" x="12.79" y="112.1" width="15.17" height="3.54" transform="translate(40.74 227.73) rotate(-180)"/>
    <rect class="cls-8" x="16.69" y="110.36" width="5.44" height="1.73" transform="translate(38.83 222.46) rotate(-180)"/>
    <polygon class="cls-5" points="23.12 112.1 26.76 110.36 26.76 112.1 23.12 112.1"/>
  </g>
  <g>
    <path class="cls-2" d="m161.08,86.83h30.58c2.06,0,3.74,1.68,3.74,3.74v10.57h-38.06v-10.57c0-2.06,1.68-3.74,3.74-3.74Z"/>
    <polygon class="cls-2" points="202.4 111.12 150.34 111.12 157.34 101.14 195.4 101.14 202.4 111.12"/>
    <polygon class="cls-5" points="210.04 127.71 143.99 127.71 143.99 121.86 147.36 116.11 206.14 116.11 209.96 121.91 210.04 127.71"/>
    <rect class="cls-3" x="150.34" y="111.12" width="52.06" height="8.35"/>
    <rect class="cls-4" x="148.88" y="119.47" width="54.98" height="2.78" rx="1.36" ry="1.36"/>
    <rect class="cls-8" x="163.68" y="94.07" width="12.69" height="7.48" rx="2.33" ry="2.33"/>
    <rect class="cls-8" x="176.37" y="94.07" width="12.69" height="7.48" rx="2.33" ry="2.33"/>
    <line class="cls-5" x1="143.99" y1="106.64" x2="209.96" y2="106.64"/>
    <polygon class="cls-3" points="155.82 103.31 196.92 103.31 202.4 111.12 150.34 111.12 155.82 103.31"/>
    <rect class="cls-4" x="151.34" y="119.47" width="2.64" height="4.86"/>
    <rect class="cls-4" x="199.76" y="119.47" width="2.64" height="4.86"/>
  </g>
  <g>
    <rect class="cls-10" x="54.29" y="54.33" width="101.34" height="101.34" rx="9.65" ry="9.65"/>
    <path class="cls-11" d="m145.98,54.83c5.05,0,9.15,4.11,9.15,9.15v82.03c0,5.05-4.11,9.15-9.15,9.15H63.95c-5.05,0-9.15-4.11-9.15-9.15V63.98c0-5.05,4.11-9.15,9.15-9.15h82.03m0-1H63.95c-5.61,0-10.15,4.55-10.15,10.15v82.03c0,5.61,4.55,10.15,10.15,10.15h82.03c5.61,0,10.15-4.55,10.15-10.15V63.98c0-5.61-4.55-10.15-10.15-10.15h0Z"/>
  </g>
  <g>
    <rect class="cls-6" x="175.62" y="169.49" width="1.39" height="33.4"/>
    <polygon class="cls-5" points="187.25 172.53 165.49 172.53 168.06 150.77 184.68 150.77 187.25 172.53"/>
    <line class="cls-5" x1="176.37" y1="172.53" x2="176.37" y2="150.77"/>
    <line class="cls-5" x1="172.23" y1="150.77" x2="170.55" y2="172.53"/>
    <line class="cls-5" x1="180.48" y1="150.77" x2="182.15" y2="172.53"/>
    <path class="cls-6" d="m172.81,202.89h7.01c1.6,0,2.89,1.3,2.89,2.89h-12.8c0-1.6,1.3-2.89,2.89-2.89Z"/>
    <line class="cls-4" x1="179.46" y1="172.53" x2="179.46" y2="179.4"/>
    <circle class="cls-4" cx="179.46" cy="180.34" r=".94"/>
  </g>
  <g>
    <path class="cls-7" d="m51.04,174.13c-.33,0-.65.07-.94.18,0-.06.02-.12.02-.18,0-2.88-2.33-5.21-5.21-5.21-2.62,0-4.77,1.94-5.14,4.46-.69-1.15-1.94-1.93-3.37-1.93-.46,0-.9.09-1.31.24-.49-2.96-3.05-5.23-6.15-5.23-3.45,0-6.24,2.79-6.24,6.24,0,.04,0,.08,0,.12-.48-.27-1.02-.44-1.61-.44-1.81,0-3.28,1.47-3.28,3.28s1.47,3.28,3.28,3.28c1.43,0,2.64-.93,3.08-2.21,1.15,1.35,2.85,2.21,4.76,2.21,1.56,0,2.99-.58,4.08-1.53.69,1.15,1.94,1.93,3.38,1.93,1.85,0,3.38-1.27,3.82-2.98.84,1.76,2.62,2.98,4.7,2.98,1.39,0,2.65-.55,3.59-1.45.4,1.01,1.39,1.73,2.55,1.73,1.52,0,2.75-1.23,2.75-2.75s-1.23-2.75-2.75-2.75Z"/>
    <path class="cls-2" d="m45.02,195.19h-25.16c-5.8,0-10.73-4.22-11.62-9.95l-1.45-9.28h51.3l-1.45,9.28c-.89,5.73-5.83,9.95-11.62,9.95Z"/>
    <rect class="cls-7" x="19.1" y="195.19" width="27.7" height="1.8" rx=".9" ry=".9"/>
    <polygon class="cls-7" points="20.69 201.95 19.1 201.95 21.1 196.99 22.69 196.99 20.69 201.95"/>
    <polygon class="cls-7" points="45.21 201.95 46.8 201.95 44.8 196.99 43.21 196.99 45.21 201.95"/>
    <path class="cls-7" d="m11.31,175.96v-19.45c0-1.04.41-2.04,1.15-2.77h0c1.53-1.53,4.01-1.53,5.55,0l1.53,1.53"/>
    <path class="cls-2" d="m20.62,154.94h.71c2,0,3.63,1.63,3.63,3.63h0c0,.25-.2.44-.44.44h-7.08c-.25,0-.44-.2-.44-.44h0c0-2,1.63-3.63,3.63-3.63Z" transform="translate(-75.68 31.52) rotate(-30)"/>
  </g>
  <g>
    <rect class="cls-3" x="78.94" y="175.2" width="52.05" height="2.58"/>
    <rect class="cls-3" x="82.7" y="177.78" width="4.19" height="25.79"/>
    <rect class="cls-3" x="122.67" y="177.78" width="4.19" height="25.79"/>
    <rect class="cls-3" x="107.64" y="177.78" width="4.19" height="25.79"/>
    <rect class="cls-3" x="111.83" y="177.78" width="10.83" height="7.64"/>
    <rect class="cls-3" x="111.83" y="185.43" width="10.83" height="7.64"/>
    <rect class="cls-3" x="111.83" y="193.07" width="10.83" height="7.64"/>
    <line class="cls-3" x1="115.66" y1="181.61" x2="118.84" y2="181.61"/>
    <line class="cls-3" x1="115.66" y1="189.25" x2="118.84" y2="189.25"/>
    <line class="cls-3" x1="115.66" y1="196.9" x2="118.84" y2="196.9"/>
  </g>
  <g>
    <rect class="cls-2" x="80.64" y="65.66" width="48.87" height="35.58" rx="5.24" ry="5.24"/>
    <rect class="cls-2" x="88.82" y="101.32" width="5.59" height="16.25"/>
    <rect class="cls-2" x="115.72" y="101.32" width="5.59" height="16.25"/>
    <rect class="cls-2" x="74.71" y="117.58" width="60.71" height="7.44" rx="3.72" ry="3.72"/>
    <rect class="cls-2" x="87.51" y="134.46" width="34.44" height="2.61"/>
    <path class="cls-2" d="m84.76,148.12h0c-2.12,0-3.75-1.86-3.48-3.96l2.49-19.15h7.08l-2.6,20.05c-.23,1.75-1.72,3.06-3.48,3.06Z"/>
    <path class="cls-2" d="m125.38,148.12h0c2.12,0,3.75-1.86,3.48-3.96l-2.49-19.15h-7.08s2.6,20.05,2.6,20.05c.23,1.75,1.72,3.06,3.48,3.06Z"/>
  </g>
  <polygon class="cls-9" points="174.19 149.78 156.9 161.16 172.1 181.76 155.96 192.4 143.04 170.29 125.76 181.67 123.58 124.48 174.19 149.78"/>
  <line class="cls-3" x1="71.97" y1="203.45" x2="137.95" y2="203.45"/>
</svg>