<?xml version="1.0" encoding="UTF-8"?>
<svg id="Layer_1" data-name="Layer 1" xmlns="http://www.w3.org/2000/svg" viewBox="0 0 30 30">
  <defs>
    <style>
      .cls-1 {
        fill: #2b3f8a;
      }
    </style>
  </defs>
  <path class="cls-1" d="m15,7.82c5.53,0,10.46,4.26,12.9,6.8.13.14.13.63,0,.76-2.45,2.54-7.37,6.8-12.9,6.8s-10.46-4.26-12.9-6.8c-.13-.14-.13-.63,0-.76,2.45-2.54,7.37-6.8,12.9-6.8m0-2c-6.32,0-11.77,4.74-14.34,7.41-.88.91-.88,2.63,0,3.54,2.57,2.67,8.03,7.41,14.34,7.41s11.77-4.74,14.34-7.41c.88-.91.88-2.63,0-3.54-2.57-2.67-8.03-7.41-14.34-7.41h0Z"/>
  <path class="cls-1" d="m15,12.04c3.1,0,5.42,1.56,5.42,2.96s-2.32,2.96-5.42,2.96-5.42-1.56-5.42-2.96,2.32-2.96,5.42-2.96m0-2c-4.1,0-7.42,2.22-7.42,4.96s3.32,4.96,7.42,4.96,7.42-2.22,7.42-4.96-3.32-4.96-7.42-4.96h0Z"/>
</svg>